<svg width="2821" height="449" viewBox="0 0 2821 449" fill="none" xmlns="http://www.w3.org/2000/svg">
<g filter="url(#filter0_f)">
<path d="M156.024 98.1C120.324 98.1 94.674 121.35 79.074 167.85C78.774 168.75 77.874 169.2 76.374 169.2C74.874 168.9 74.124 168.3 74.124 167.4C75.324 155.4 76.674 139.95 78.174 121.05C79.674 101.85 80.424 87.45 80.424 77.85C80.424 76.35 81.174 75.6 82.674 75.6C84.474 75.6 85.374 76.35 85.374 77.85C85.374 84.45 93.924 87.75 111.024 87.75C136.824 88.65 166.974 89.1 201.474 89.1C219.174 89.1 237.924 88.8 257.724 88.2L288.324 87.75C299.724 87.75 307.974 87 313.074 85.5C318.474 84 321.924 81 323.424 76.5C323.724 75.3 324.624 74.7 326.124 74.7C327.924 74.7 328.824 75.3 328.824 76.5C327.924 85.5 326.874 99.9 325.674 119.7C324.774 139.5 324.324 155.4 324.324 167.4C324.324 168.3 323.574 168.75 322.074 168.75C320.574 168.75 319.674 168.3 319.374 167.4C314.874 144.3 306.474 127.05 294.174 115.65C281.874 103.95 266.724 98.1 248.724 98.1C240.024 98.1 234.174 100.05 231.174 103.95C228.474 107.55 227.124 114.6 227.124 125.1V332.55C227.124 341.85 228.024 348.6 229.824 352.8C231.624 357 235.074 359.85 240.174 361.35C245.274 362.85 253.374 363.6 264.474 363.6C265.374 363.6 265.824 364.5 265.824 366.3C265.824 368.1 265.374 369 264.474 369C253.674 369 245.124 368.85 238.824 368.55L201.474 368.1L165.024 368.55C158.724 368.85 150.024 369 138.924 369C138.024 369 137.574 368.1 137.574 366.3C137.574 364.5 138.024 363.6 138.924 363.6C149.724 363.6 157.674 362.85 162.774 361.35C168.174 359.85 171.774 357 173.574 352.8C175.674 348.3 176.724 341.55 176.724 332.55V124.2C176.724 114 175.374 107.1 172.674 103.5C169.974 99.9 164.424 98.1 156.024 98.1ZM582.364 210.6C582.364 194.7 579.214 183 572.914 175.5C566.914 167.7 557.314 163.8 544.114 163.8C543.214 163.8 542.764 162.9 542.764 161.1C542.764 159.3 543.214 158.4 544.114 158.4L563.014 158.85C573.214 159.45 581.464 159.75 587.764 159.75C592.564 159.75 599.764 159.45 609.364 158.85L627.814 158.4C628.414 158.4 628.714 159.3 628.714 161.1C628.714 162.9 628.414 163.8 627.814 163.8C615.814 163.8 607.114 167.55 601.714 175.05C596.314 182.55 593.614 194.4 593.614 210.6V286.2C593.614 314.1 585.964 335.85 570.664 351.45C555.364 367.05 534.664 374.85 508.564 374.85C491.764 374.85 476.164 371.55 461.764 364.95C447.664 358.05 436.264 348.3 427.564 335.7C419.164 323.1 414.964 308.1 414.964 290.7V194.85C414.964 185.85 414.214 179.25 412.714 175.05C411.514 170.85 408.814 168 404.614 166.5C400.714 164.7 394.564 163.8 386.164 163.8C385.264 163.8 384.814 162.9 384.814 161.1C384.814 159.3 385.264 158.4 386.164 158.4L407.764 158.85C419.764 159.45 429.364 159.75 436.564 159.75C444.664 159.75 454.714 159.45 466.714 158.85L488.314 158.4C488.914 158.4 489.214 159.3 489.214 161.1C489.214 162.9 488.914 163.8 488.314 163.8C479.914 163.8 473.614 164.7 469.414 166.5C465.514 168.3 462.814 171.45 461.314 175.95C459.814 180.15 459.064 186.75 459.064 195.75V279C459.064 305.7 464.764 325.35 476.164 337.95C487.864 350.25 503.014 356.4 521.614 356.4C540.214 356.4 554.914 350.4 565.714 338.4C576.814 326.4 582.364 309.3 582.364 287.1V210.6ZM748.576 167.4C737.176 167.4 726.226 172.2 715.726 181.8C705.526 191.4 697.426 204.45 691.426 220.95C691.126 221.85 690.226 222.3 688.726 222.3C687.226 222.3 686.476 221.85 686.476 220.95C687.676 211.35 689.026 198.9 690.526 183.6C692.026 168 692.776 156.3 692.776 148.5C692.776 147 693.526 146.25 695.026 146.25C696.826 146.25 697.726 147 697.726 148.5C697.726 152.4 699.976 154.95 704.476 156.15C708.976 157.05 714.676 157.5 721.576 157.5C747.376 158.1 770.026 158.4 789.526 158.4L828.676 157.95C833.776 157.65 840.676 157.5 849.376 157.5C861.076 157.5 869.776 156.9 875.476 155.7C881.476 154.2 885.226 151.2 886.726 146.7C887.026 145.8 887.926 145.35 889.426 145.35C891.226 145.35 892.126 145.8 892.126 146.7L890.776 169.2C888.976 195.6 888.076 212.85 888.076 220.95C888.076 221.85 887.176 222.3 885.376 222.3C883.576 222.3 882.676 221.85 882.676 220.95C881.176 211.65 877.726 202.95 872.326 194.85C866.926 186.45 860.476 179.85 852.976 175.05C845.776 169.95 838.426 167.4 830.926 167.4C823.726 167.4 818.926 169.35 816.526 173.25C814.126 176.85 812.926 184.05 812.926 194.85V332.55C812.926 341.55 813.676 348.3 815.176 352.8C816.976 357 820.126 359.85 824.626 361.35C829.126 362.85 836.326 363.6 846.226 363.6C847.126 363.6 847.576 364.5 847.576 366.3C847.576 368.1 847.126 369 846.226 369C836.326 369 828.526 368.85 822.826 368.55L789.076 368.1L756.226 368.55C750.526 368.85 742.426 369 731.926 369C731.326 369 731.026 368.1 731.026 366.3C731.026 364.5 731.326 363.6 731.926 363.6C742.126 363.6 749.476 362.85 753.976 361.35C758.776 359.85 761.926 357 763.426 352.8C765.226 348.3 766.126 341.55 766.126 332.55V193.95C766.126 182.85 765.076 175.65 762.976 172.35C760.876 169.05 756.076 167.4 748.576 167.4ZM1069.85 374.4C1048.55 374.4 1029.5 369.45 1012.7 359.55C995.904 349.35 982.854 335.85 973.554 319.05C964.254 301.95 959.604 283.5 959.604 263.7C959.604 240.9 965.454 221.1 977.154 204.3C989.154 187.5 1004.3 174.75 1022.6 166.05C1041.2 157.35 1060.25 153 1079.75 153C1101.05 153 1119.8 158.25 1136 168.75C1152.5 178.95 1165.25 192.45 1174.25 209.25C1183.25 225.75 1187.75 243.15 1187.75 261.45C1187.75 281.55 1182.5 300.3 1172 317.7C1161.5 334.8 1147.25 348.6 1129.25 359.1C1111.25 369.3 1091.45 374.4 1069.85 374.4ZM1080.2 364.05C1097 364.05 1110.5 355.8 1120.7 339.3C1131.2 322.8 1136.45 300 1136.45 270.9C1136.45 251.1 1133.45 233.1 1127.45 216.9C1121.45 200.7 1112.9 187.95 1101.8 178.65C1091 169.05 1078.4 164.25 1064 164.25C1046.6 164.25 1033.4 171.45 1024.4 185.85C1015.4 200.25 1010.9 221.55 1010.9 249.75C1010.9 271.05 1013.9 290.55 1019.9 308.25C1026.2 325.65 1034.6 339.3 1045.1 349.2C1055.6 359.1 1067.3 364.05 1080.2 364.05ZM1565.03 363.6C1565.63 363.6 1565.93 364.5 1565.93 366.3C1565.93 368.1 1565.63 369 1565.03 369H1484.93C1478.33 369 1466.03 356.7 1448.03 332.1C1430.03 307.2 1408.28 272.55 1382.78 228.15C1380.38 228.45 1376.93 228.6 1372.43 228.6C1360.73 228.6 1352.48 228.45 1347.68 228.15V332.55C1347.68 341.85 1348.43 348.6 1349.93 352.8C1351.43 357 1354.28 359.85 1358.48 361.35C1362.98 362.85 1370.03 363.6 1379.63 363.6C1380.23 363.6 1380.53 364.5 1380.53 366.3C1380.53 368.1 1380.23 369 1379.63 369C1369.73 369 1361.93 368.85 1356.23 368.55L1322.03 368.1L1289.18 368.55C1283.18 368.85 1275.08 369 1264.88 369C1263.98 369 1263.53 368.1 1263.53 366.3C1263.53 364.5 1263.98 363.6 1264.88 363.6C1274.48 363.6 1281.38 362.85 1285.58 361.35C1290.08 359.85 1293.08 357 1294.58 352.8C1296.38 348.3 1297.28 341.55 1297.28 332.55V124.2C1297.28 115.2 1296.53 108.6 1295.03 104.4C1293.53 100.2 1290.53 97.35 1286.03 95.85C1281.53 94.05 1274.63 93.15 1265.33 93.15C1264.73 93.15 1264.43 92.25 1264.43 90.45C1264.43 88.65 1264.73 87.75 1265.33 87.75L1289.18 88.2C1302.98 88.8 1313.93 89.1 1322.03 89.1C1330.73 89.1 1340.33 88.65 1350.83 87.75C1354.13 87.45 1358.33 87.15 1363.43 86.85C1368.83 86.55 1375.13 86.4 1382.33 86.4C1409.93 86.4 1431.23 91.5 1446.23 101.7C1461.53 111.6 1469.18 125.55 1469.18 143.55C1469.18 157.35 1464.98 170.55 1456.58 183.15C1448.18 195.75 1437.23 205.95 1423.73 213.75C1447.73 251.55 1467.83 281.1 1484.03 302.4C1500.53 323.7 1515.08 339.3 1527.68 349.2C1540.58 358.8 1553.03 363.6 1565.03 363.6ZM1347.68 215.1C1354.88 216.3 1363.58 216.9 1373.78 216.9C1384.58 216.9 1393.13 215.25 1399.43 211.95C1405.73 208.65 1410.23 202.95 1412.93 194.85C1415.93 186.75 1417.43 175.35 1417.43 160.65C1417.43 136.05 1413.83 119.1 1406.63 109.8C1399.43 100.5 1389.08 95.85 1375.58 95.85C1365.38 95.85 1358.18 98.1 1353.98 102.6C1349.78 107.1 1347.68 114.6 1347.68 125.1V215.1ZM1856.29 363.6C1857.79 363.6 1858.54 364.5 1858.54 366.3C1858.54 368.1 1857.79 369 1856.29 369C1849.99 369 1840.54 368.7 1827.94 368.1C1814.74 367.5 1805.44 367.2 1800.04 367.2C1794.94 367.2 1786.99 367.5 1776.19 368.1C1765.99 368.7 1758.79 369 1754.59 369C1753.39 369 1752.79 368.1 1752.79 366.3C1752.79 364.5 1753.39 363.6 1754.59 363.6C1761.49 363.6 1766.29 362.85 1768.99 361.35C1771.99 359.55 1773.49 357 1773.49 353.7C1773.49 349.5 1770.94 342 1765.84 331.2L1738.84 273.15H1686.64L1669.54 313.65C1664.14 326.25 1661.44 336.15 1661.44 343.35C1661.44 350.55 1663.99 355.8 1669.09 359.1C1674.19 362.1 1682.14 363.6 1692.94 363.6C1694.44 363.6 1695.19 364.5 1695.19 366.3C1695.19 368.1 1694.44 369 1692.94 369C1688.74 369 1682.74 368.7 1674.94 368.1C1666.54 367.5 1658.74 367.2 1651.54 367.2C1644.04 367.2 1635.19 367.5 1624.99 368.1C1615.99 368.7 1608.64 369 1602.94 369C1601.44 369 1600.69 368.1 1600.69 366.3C1600.69 364.5 1601.44 363.6 1602.94 363.6C1612.24 363.6 1619.74 362.25 1625.44 359.55C1631.14 356.85 1636.39 351.75 1641.19 344.25C1646.29 336.75 1652.14 325.2 1658.74 309.6L1726.24 151.65C1726.84 150.45 1727.74 149.85 1728.94 149.85C1730.14 149.85 1731.04 150.45 1731.64 151.65L1803.64 307.35C1811.14 323.55 1817.29 335.55 1822.09 343.35C1827.19 351.15 1832.29 356.55 1837.39 359.55C1842.49 362.25 1848.79 363.6 1856.29 363.6ZM1691.59 261.45H1733.44L1711.39 214.2L1691.59 261.45ZM2025.78 370.8C2017.38 370.8 2008.08 370.35 1997.88 369.45C1994.28 369.15 1989.78 368.85 1984.38 368.55C1978.98 368.25 1972.83 368.1 1965.93 368.1L1936.68 368.55C1931.28 368.85 1923.78 369 1914.18 369C1913.58 369 1913.28 368.1 1913.28 366.3C1913.28 364.5 1913.58 363.6 1914.18 363.6C1923.18 363.6 1929.63 362.85 1933.53 361.35C1937.73 359.85 1940.43 357 1941.63 352.8C1943.13 348.3 1943.88 341.55 1943.88 332.55V194.85C1943.88 185.85 1943.13 179.25 1941.63 175.05C1940.43 170.85 1937.73 168 1933.53 166.5C1929.63 164.7 1923.48 163.8 1915.08 163.8C1914.18 163.8 1913.73 162.9 1913.73 161.1C1913.73 159.3 1914.18 158.4 1915.08 158.4L1936.68 158.85C1948.68 159.45 1958.43 159.75 1965.93 159.75C1975.23 159.75 1984.53 159.3 1993.83 158.4C2005.83 157.8 2014.83 157.5 2020.83 157.5C2046.03 157.5 2067.78 162 2086.08 171C2104.38 180 2118.33 192.45 2127.93 208.35C2137.53 224.25 2142.33 242.25 2142.33 262.35C2142.33 283.05 2137.38 301.65 2127.48 318.15C2117.58 334.65 2103.78 347.55 2086.08 356.85C2068.38 366.15 2048.28 370.8 2025.78 370.8ZM2020.83 360.9C2042.73 360.9 2059.83 352.8 2072.13 336.6C2084.43 320.4 2090.58 297.3 2090.58 267.3C2090.58 238.2 2084.43 214.2 2072.13 195.3C2059.83 176.1 2041.38 166.5 2016.78 166.5C2006.58 166.5 1999.23 168.6 1994.73 172.8C1990.53 177 1988.43 184.65 1988.43 195.75V327.6C1988.43 339.9 1990.53 348.6 1994.73 353.7C1999.23 358.5 2007.93 360.9 2020.83 360.9ZM2446.38 363.6C2447.88 363.6 2448.63 364.5 2448.63 366.3C2448.63 368.1 2447.88 369 2446.38 369C2440.08 369 2430.63 368.7 2418.03 368.1C2404.83 367.5 2395.53 367.2 2390.13 367.2C2385.03 367.2 2377.08 367.5 2366.28 368.1C2356.08 368.7 2348.88 369 2344.68 369C2343.48 369 2342.88 368.1 2342.88 366.3C2342.88 364.5 2343.48 363.6 2344.68 363.6C2351.58 363.6 2356.38 362.85 2359.08 361.35C2362.08 359.55 2363.58 357 2363.58 353.7C2363.58 349.5 2361.03 342 2355.93 331.2L2328.93 273.15H2276.73L2259.63 313.65C2254.23 326.25 2251.53 336.15 2251.53 343.35C2251.53 350.55 2254.08 355.8 2259.18 359.1C2264.28 362.1 2272.23 363.6 2283.03 363.6C2284.53 363.6 2285.28 364.5 2285.28 366.3C2285.28 368.1 2284.53 369 2283.03 369C2278.83 369 2272.83 368.7 2265.03 368.1C2256.63 367.5 2248.83 367.2 2241.63 367.2C2234.13 367.2 2225.28 367.5 2215.08 368.1C2206.08 368.7 2198.73 369 2193.03 369C2191.53 369 2190.78 368.1 2190.78 366.3C2190.78 364.5 2191.53 363.6 2193.03 363.6C2202.33 363.6 2209.83 362.25 2215.53 359.55C2221.23 356.85 2226.48 351.75 2231.28 344.25C2236.38 336.75 2242.23 325.2 2248.83 309.6L2316.33 151.65C2316.93 150.45 2317.83 149.85 2319.03 149.85C2320.23 149.85 2321.13 150.45 2321.73 151.65L2393.73 307.35C2401.23 323.55 2407.38 335.55 2412.18 343.35C2417.28 351.15 2422.38 356.55 2427.48 359.55C2432.58 362.25 2438.88 363.6 2446.38 363.6ZM2281.68 261.45H2323.53L2301.48 214.2L2281.68 261.45ZM2745.48 363.6C2746.38 363.6 2746.83 364.5 2746.83 366.3C2746.83 368.1 2746.38 369 2745.48 369H2671.68C2667.18 369 2659.08 360 2647.38 342C2635.98 324 2622.33 299.25 2606.43 267.75C2600.13 268.65 2593.83 269.1 2587.53 269.1H2579.88V332.55C2579.88 341.85 2580.48 348.6 2581.68 352.8C2583.18 357 2585.73 359.85 2589.33 361.35C2593.23 362.85 2599.38 363.6 2607.78 363.6C2608.38 363.6 2608.68 364.5 2608.68 366.3C2608.68 368.1 2608.38 369 2607.78 369C2598.78 369 2591.73 368.85 2586.63 368.55L2556.03 368.1L2526.78 368.55C2521.38 368.85 2513.88 369 2504.28 369C2503.68 369 2503.38 368.1 2503.38 366.3C2503.38 364.5 2503.68 363.6 2504.28 363.6C2512.68 363.6 2518.83 362.85 2522.73 361.35C2526.63 359.85 2529.33 357 2530.83 352.8C2532.33 348.3 2533.08 341.55 2533.08 332.55V194.85C2533.08 185.85 2532.33 179.25 2530.83 175.05C2529.63 170.85 2527.08 168 2523.18 166.5C2519.28 164.7 2513.28 163.8 2505.18 163.8C2504.28 163.8 2503.83 162.9 2503.83 161.1C2503.83 159.3 2504.28 158.4 2505.18 158.4L2527.23 158.85C2539.23 159.45 2548.83 159.75 2556.03 159.75C2561.73 159.75 2566.98 159.6 2571.78 159.3C2576.58 159 2580.78 158.7 2584.38 158.4C2594.28 157.5 2603.58 157.05 2612.28 157.05C2635.68 157.05 2653.53 160.8 2665.83 168.3C2678.13 175.8 2684.28 186.6 2684.28 200.7C2684.28 212.4 2680.53 223.2 2673.03 233.1C2665.53 243 2655.18 251.1 2641.98 257.4C2658.18 284.7 2672.13 306 2683.83 321.3C2695.53 336.6 2706.18 347.55 2715.78 354.15C2725.38 360.45 2735.28 363.6 2745.48 363.6ZM2579.88 260.1C2581.98 260.4 2585.58 260.55 2590.68 260.55C2607.78 260.55 2619.63 256.65 2626.23 248.85C2632.83 240.75 2636.13 228.75 2636.13 212.85C2636.13 181.65 2624.73 166.05 2601.93 166.05C2595.63 166.05 2590.98 166.8 2587.98 168.3C2584.98 169.8 2582.88 172.65 2581.68 176.85C2580.48 180.75 2579.88 187.05 2579.88 195.75V260.1Z" fill="#150106"/>
<path d="M79.074 167.85L12.7091 145.586L12.6876 145.65L12.6662 145.714L79.074 167.85ZM76.374 169.2L62.6461 237.841L69.4427 239.2H76.374V169.2ZM74.124 167.4L4.47142 160.435L4.12402 163.909V167.4H74.124ZM78.174 121.05L147.955 126.588L147.958 126.545L147.961 126.502L78.174 121.05ZM111.024 87.75L113.464 17.7926L112.245 17.75H111.024V87.75ZM257.724 88.2L256.695 18.2076L256.149 18.2156L255.604 18.2321L257.724 88.2ZM288.324 87.75V17.75H287.809L287.295 17.7576L288.324 87.75ZM313.074 85.5L294.339 18.0537L293.83 18.1952L293.322 18.3444L313.074 85.5ZM323.424 76.5L389.832 98.6359L390.682 96.0854L391.334 93.4772L323.424 76.5ZM328.824 76.5L398.477 83.4651L398.824 79.9912V76.5H328.824ZM325.674 119.7L255.802 115.465L255.77 115.993L255.746 116.521L325.674 119.7ZM319.374 167.4L250.666 180.785L251.532 185.235L252.966 189.536L319.374 167.4ZM294.174 115.65L245.929 166.369L246.258 166.682L246.591 166.99L294.174 115.65ZM231.174 103.95L175.69 61.2703L175.43 61.6086L175.174 61.95L231.174 103.95ZM229.824 352.8L165.484 380.374L165.484 380.374L229.824 352.8ZM240.174 361.35L220.422 428.506L220.422 428.506L240.174 361.35ZM238.824 368.55L242.154 298.629L240.911 298.57L239.667 298.555L238.824 368.55ZM201.474 368.1L202.317 298.105L201.464 298.095L200.61 298.105L201.474 368.1ZM165.024 368.55L164.16 298.555L162.927 298.571L161.694 298.629L165.024 368.55ZM162.774 361.35L144.039 293.904L143.53 294.045L143.022 294.194L162.774 361.35ZM173.574 352.8L110.141 323.198L109.671 324.205L109.234 325.226L173.574 352.8ZM156.024 28.1C121.393 28.1 89.1371 39.9815 63 63.6731C38.3592 86.0083 22.8216 115.443 12.7091 145.586L145.439 190.114C150.926 173.757 156.014 168.317 157.023 167.402C157.312 167.14 156.904 167.551 155.94 167.916C155.011 168.269 154.825 168.1 156.024 168.1V28.1ZM12.6662 145.714C18.7709 127.4 31.8319 113.771 46.8692 106.253C59.7317 99.8213 71.1509 99.2 76.374 99.2V239.2C87.514 239.2 130.478 234.998 145.482 189.986L12.6662 145.714ZM90.102 100.559C94.4978 101.438 106.361 104.221 118.415 113.864C133.362 125.821 144.124 144.994 144.124 167.4H4.12402C4.12402 190.706 15.2614 210.629 30.958 223.186C43.7616 233.429 56.7503 236.662 62.6461 237.841L90.102 100.559ZM143.777 174.365C145.043 161.702 146.435 145.729 147.955 126.588L8.39345 115.512C6.91255 134.171 5.6051 149.098 4.47142 160.435L143.777 174.365ZM147.961 126.502C149.492 106.907 150.424 90.2846 150.424 77.85H10.424C10.424 84.6154 9.85581 96.7929 8.38667 115.598L147.961 126.502ZM150.424 77.85C150.424 87.8902 147.867 108.277 130.484 125.66C113.101 143.043 92.7141 145.6 82.674 145.6V5.6C71.1339 5.6 49.6217 8.53242 31.4891 26.665C13.3565 44.7976 10.424 66.3098 10.424 77.85H150.424ZM82.674 145.6C75.5772 145.6 57.2234 144.386 39.8861 129.938C20.1044 113.453 15.374 91.5854 15.374 77.85H155.374C155.374 62.6146 150.194 39.6218 129.512 22.387C111.275 7.18931 91.5709 5.6 82.674 5.6V145.6ZM15.374 77.85C15.374 96.1315 21.8408 113.856 33.9995 127.935C44.9864 140.656 57.7817 147.183 66.5812 150.58C83.123 156.964 99.995 157.75 111.024 157.75V17.75C104.953 17.75 109 16.8858 116.992 19.9704C121.516 21.7167 131.105 26.1813 139.955 36.4279C149.976 48.0314 155.374 62.8685 155.374 77.85H15.374ZM108.584 157.707C135.414 158.643 166.412 159.1 201.474 159.1V19.1C167.536 19.1 138.234 18.6566 113.464 17.7926L108.584 157.707ZM201.474 159.1C219.958 159.1 239.419 158.787 259.844 158.168L255.604 18.2321C236.429 18.8132 218.39 19.1 201.474 19.1V159.1ZM258.753 158.192L289.353 157.742L287.295 17.7576L256.695 18.2076L258.753 158.192ZM288.324 157.75C300.577 157.75 317.438 157.182 332.826 152.656L293.322 18.3444C295.318 17.7575 296.653 17.5205 297.025 17.4579C297.448 17.3865 297.388 17.4146 296.724 17.475C295.321 17.6025 292.632 17.75 288.324 17.75V157.75ZM331.809 152.946C354.954 146.517 379.55 129.482 389.832 98.6359L257.016 54.364C260.069 45.2042 265.694 36.3329 273.779 29.3026C281.491 22.5969 289.22 19.4757 294.339 18.0537L331.809 152.946ZM391.334 93.4772C387.91 107.174 379.275 122.646 363.153 133.393C348.45 143.195 334.028 144.7 326.124 144.7V4.69998C316.72 4.69998 301.098 6.50456 285.495 16.9065C268.473 28.2544 259.238 44.6256 255.514 59.5227L391.334 93.4772ZM326.124 144.7C321.457 144.7 305.715 144.324 289.32 133.393C280.194 127.309 271.788 118.502 266.045 107.017C260.448 95.8225 258.824 84.9919 258.824 76.5H398.824C398.824 55.5087 389.283 31.7762 366.978 16.9065C349.683 5.37625 332.591 4.69998 326.124 4.69998V144.7ZM259.171 69.5348C258.125 79.9958 257.008 95.5625 255.802 115.465L395.546 123.935C396.74 104.238 397.723 91.0042 398.477 83.4651L259.171 69.5348ZM255.746 116.521C254.825 136.796 254.324 153.883 254.324 167.4H394.324C394.324 156.917 394.723 142.204 395.602 122.879L255.746 116.521ZM254.324 167.4C254.324 157.711 256.417 145.831 262.992 133.996C269.62 122.066 278.828 113.739 287.747 108.388C303.498 98.9373 318.109 98.75 322.074 98.75V238.75C327.539 238.75 343.275 238.338 359.776 228.437C381.974 215.118 394.324 191.565 394.324 167.4H254.324ZM322.074 98.75C327.297 98.75 338.716 99.3713 351.579 105.803C366.616 113.321 379.677 126.95 385.782 145.264L252.966 189.536C267.97 234.548 310.934 238.75 322.074 238.75V98.75ZM388.082 154.015C381.857 122.056 368.554 89.1453 341.758 64.3099L246.591 166.99C244.394 164.955 247.892 166.544 250.666 180.785L388.082 154.015ZM342.419 64.9309C316.267 40.0542 283.49 28.1 248.724 28.1V168.1C249.426 168.1 249.664 168.156 249.525 168.132C249.373 168.105 248.957 168.014 248.371 167.788C247.781 167.56 247.207 167.267 246.708 166.948C246.216 166.634 245.959 166.398 245.929 166.369L342.419 64.9309ZM248.724 28.1C234.321 28.1 199.343 30.5223 175.69 61.2703L286.658 146.63C277.725 158.242 266.896 163.654 259.947 165.97C253.466 168.131 249.061 168.1 248.724 168.1V28.1ZM175.174 61.95C164.743 75.8586 161 90.3419 159.386 98.7724C157.595 108.124 157.124 117.26 157.124 125.1H297.124C297.124 122.44 297.328 122.801 296.887 125.103C296.647 126.357 296.086 128.879 294.831 132.178C293.597 135.423 291.308 140.438 287.174 145.95L175.174 61.95ZM157.124 125.1V332.55H297.124V125.1H157.124ZM157.124 332.55C157.124 343.542 157.775 362.387 165.484 380.374L294.164 325.226C295.514 328.375 296.235 330.904 296.607 332.414C296.989 333.964 297.14 334.996 297.185 335.336C297.261 335.906 297.124 335.14 297.124 332.55H157.124ZM165.484 380.374C176.893 406.996 198.951 422.19 220.422 428.506L259.926 294.194C264.781 295.622 271.531 298.493 278.343 304.12C285.398 309.948 290.77 317.305 294.164 325.226L165.484 380.374ZM220.422 428.506C235.714 433.003 252.308 433.6 264.474 433.6V293.6C260.362 293.6 257.821 293.455 256.528 293.336C255.918 293.279 255.888 293.255 256.324 293.33C256.714 293.396 258.006 293.63 259.926 294.194L220.422 428.506ZM264.474 433.6C252.45 433.6 238.806 430.393 226.236 422.012C214.103 413.924 206.916 403.659 202.877 395.58C195.788 381.403 195.824 368.975 195.824 366.3H335.824C335.824 361.825 335.635 348.047 328.096 332.97C323.832 324.441 316.364 313.839 303.894 305.525C290.985 296.92 276.948 293.6 264.474 293.6V433.6ZM195.824 366.3C195.824 363.625 195.788 351.197 202.877 337.02C206.916 328.941 214.103 318.676 226.236 310.588C238.806 302.207 252.45 299 264.474 299V439C276.948 439 290.985 435.68 303.894 427.075C316.364 418.761 323.832 408.159 328.096 399.63C335.635 384.553 335.824 370.775 335.824 366.3H195.824ZM264.474 299C254.124 299 246.838 298.852 242.154 298.629L235.494 438.471C243.41 438.848 253.224 439 264.474 439V299ZM239.667 298.555L202.317 298.105L200.631 438.095L237.981 438.545L239.667 298.555ZM200.61 298.105L164.16 298.555L165.888 438.545L202.338 438.095L200.61 298.105ZM161.694 298.629C157.03 298.851 149.61 299 138.924 299V439C150.438 439 160.418 438.849 168.354 438.471L161.694 298.629ZM138.924 299C150.948 299 164.591 302.207 177.162 310.588C189.295 318.676 196.482 328.941 200.521 337.02C207.61 351.197 207.574 363.625 207.574 366.3H67.574C67.574 370.775 67.763 384.553 75.3017 399.63C79.5662 408.159 87.0342 418.761 99.5044 427.075C112.413 435.68 126.45 439 138.924 439V299ZM207.574 366.3C207.574 368.975 207.61 381.403 200.521 395.58C196.482 403.659 189.295 413.924 177.162 422.012C164.591 430.393 150.948 433.6 138.924 433.6V293.6C126.45 293.6 112.413 296.92 99.5044 305.525C87.0342 313.839 79.5662 324.441 75.3017 332.97C67.763 348.047 67.574 361.825 67.574 366.3H207.574ZM138.924 433.6C151.01 433.6 167.337 432.973 182.526 428.506L143.022 294.194C144.865 293.653 146.113 293.422 146.521 293.352C146.967 293.275 146.967 293.295 146.412 293.347C145.229 293.459 142.837 293.6 138.924 293.6V433.6ZM181.509 428.796C202.26 423.032 225.861 408.5 237.914 380.374L109.234 325.226C112.942 316.573 118.795 308.967 126.075 303.204C133.017 297.709 139.678 295.115 144.039 293.904L181.509 428.796ZM237.007 382.402C245.645 363.892 246.724 344.783 246.724 332.55H106.724C106.724 334.507 106.598 334.7 106.768 333.603C106.862 332.999 107.079 331.792 107.545 330.129C108.006 328.48 108.798 326.075 110.141 323.198L237.007 382.402ZM246.724 332.55V124.2H106.724V332.55H246.724ZM246.724 124.2C246.724 116.413 246.242 107.301 244.409 97.9342C242.732 89.3641 238.923 75.165 228.674 61.5L116.674 145.5C112.665 140.154 110.394 135.271 109.136 132.01C107.863 128.709 107.276 126.155 107.014 124.816C106.531 122.349 106.724 121.787 106.724 124.2H246.724ZM228.674 61.5C204.803 29.6717 168.516 28.1 156.024 28.1V168.1C155.825 168.1 151.421 168.153 144.891 166.036C137.991 163.798 126.23 158.241 116.674 145.5L228.674 61.5ZM572.914 175.5L517.43 218.18L518.347 219.372L519.315 220.523L572.914 175.5ZM544.114 158.4L545.78 88.4198L544.947 88.4H544.114V158.4ZM563.014 158.85L567.124 88.9708L565.903 88.8989L564.68 88.8698L563.014 158.85ZM609.364 158.85L607.657 88.8708L606.326 88.9033L604.997 88.9863L609.364 158.85ZM627.814 158.4V88.4H626.96L626.107 88.4208L627.814 158.4ZM601.714 175.05L544.906 134.149L544.906 134.149L601.714 175.05ZM570.664 351.45L620.64 400.465L620.64 400.465L570.664 351.45ZM461.764 364.95L430.995 427.825L431.792 428.215L432.598 428.585L461.764 364.95ZM427.564 335.7L369.32 374.529L369.637 375.004L369.961 375.473L427.564 335.7ZM412.714 175.05L345.407 194.28L346.03 196.459L346.792 198.594L412.714 175.05ZM404.614 166.5L375.28 230.057L378.122 231.369L381.07 232.422L404.614 166.5ZM386.164 158.4L387.622 88.4152L386.893 88.4H386.164V158.4ZM407.764 158.85L411.259 88.9373L410.241 88.8864L409.222 88.8652L407.764 158.85ZM466.714 158.85L465.256 88.8652L464.237 88.8864L463.218 88.9373L466.714 158.85ZM488.314 158.4V88.4H487.585L486.856 88.4152L488.314 158.4ZM469.414 166.5L441.839 102.16L440.954 102.539L440.08 102.943L469.414 166.5ZM461.314 175.95L527.236 199.494L527.486 198.792L527.722 198.086L461.314 175.95ZM476.164 337.95L424.256 384.914L424.843 385.562L425.445 386.195L476.164 337.95ZM565.714 338.4L514.327 290.867L514.003 291.218L513.683 291.572L565.714 338.4ZM652.364 210.6C652.364 187.811 648.262 156.368 626.513 130.477L519.315 220.523C514.535 214.833 512.873 209.824 512.408 208.098C511.978 206.5 512.364 207.001 512.364 210.6H652.364ZM628.398 132.82C604.935 102.319 571.055 93.8 544.114 93.8V233.8C544.054 233.8 540.383 233.818 534.867 231.578C528.794 229.11 522.41 224.654 517.43 218.18L628.398 132.82ZM544.114 93.8C556.138 93.8 569.781 97.0071 582.352 105.388C594.485 113.476 601.672 123.741 605.711 131.82C612.8 145.997 612.764 158.425 612.764 161.1H472.764C472.764 165.575 472.953 179.353 480.491 194.43C484.756 202.959 492.224 213.561 504.694 221.875C517.603 230.48 531.64 233.8 544.114 233.8V93.8ZM612.764 161.1C612.764 163.775 612.8 176.203 605.711 190.38C601.672 198.459 594.485 208.724 582.352 216.812C569.781 225.193 556.138 228.4 544.114 228.4V88.4C531.64 88.4 517.603 91.7196 504.694 100.325C492.224 108.639 484.756 119.241 480.491 127.77C472.953 142.847 472.764 156.625 472.764 161.1H612.764ZM542.448 228.38L561.348 228.83L564.68 88.8698L545.78 88.4198L542.448 228.38ZM558.903 228.729C569.745 229.367 579.519 229.75 587.764 229.75V89.75C583.409 89.75 576.682 89.533 567.124 88.9708L558.903 228.729ZM587.764 229.75C594.832 229.75 603.811 229.334 613.73 228.714L604.997 88.9863C595.716 89.5664 590.296 89.75 587.764 89.75V229.75ZM611.071 228.829L629.521 228.379L626.107 88.4208L607.657 88.8708L611.071 228.829ZM627.814 228.4C608.185 228.4 590.841 220.197 578.71 208.066C568.298 197.654 563.895 186.652 562.081 181.211C558.583 170.717 558.714 162.243 558.714 161.1H698.714C698.714 158.157 698.695 148.333 694.897 136.939C691.699 127.345 674.612 88.4 627.814 88.4V228.4ZM558.714 161.1C558.714 159.957 558.583 151.483 562.081 140.989C563.895 135.548 568.298 124.546 578.71 114.134C590.841 102.003 608.185 93.8 627.814 93.8V233.8C674.612 233.8 691.698 194.856 694.897 185.261C698.695 173.867 698.714 164.043 698.714 161.1H558.714ZM627.814 93.8C600.711 93.8 567.264 103.097 544.906 134.149L658.521 215.951C653.624 222.753 646.977 227.886 639.997 230.895C633.597 233.654 628.894 233.8 627.814 233.8V93.8ZM544.906 134.149C526.581 159.601 523.614 189.514 523.614 210.6H663.614C663.614 206.118 664.013 204.571 663.89 205.113C663.782 205.584 662.723 210.115 658.521 215.951L544.906 134.149ZM523.614 210.6V286.2H663.614V210.6H523.614ZM523.614 286.2C523.614 293.849 522.557 298.179 521.842 300.212C521.226 301.964 520.768 302.354 520.688 302.435L620.64 400.465C652.064 368.424 663.614 327.124 663.614 286.2H523.614ZM520.688 302.435C520.26 302.872 519.923 303.141 518.981 303.496C517.8 303.941 514.667 304.85 508.564 304.85V444.85C549.534 444.85 589.656 432.056 620.64 400.465L520.688 302.435ZM508.564 304.85C501.209 304.85 495.63 303.47 490.93 301.315L432.598 428.585C456.698 439.63 482.319 444.85 508.564 444.85V304.85ZM492.533 302.075C488.926 300.31 486.872 298.397 485.167 295.927L369.961 375.473C385.655 398.203 406.402 415.79 430.995 427.825L492.533 302.075ZM485.807 296.871C485.78 296.829 485.759 296.793 485.73 296.73C485.699 296.664 485.62 296.479 485.521 296.126C485.329 295.44 484.964 293.755 484.964 290.7H344.964C344.964 319.802 352.158 348.786 369.32 374.529L485.807 296.871ZM484.964 290.7V194.85H344.964V290.7H484.964ZM484.964 194.85C484.964 184.282 484.38 167.589 478.636 151.506L346.792 198.594C345.869 196.009 345.397 194.018 345.17 192.927C344.934 191.796 344.857 191.127 344.849 191.054C344.838 190.96 344.871 191.224 344.904 191.911C344.937 192.589 344.964 193.556 344.964 194.85H484.964ZM480.021 155.82C472.464 129.372 453.091 109.483 428.157 100.578L381.07 232.422C374.228 229.978 366.162 225.494 358.972 217.905C351.742 210.272 347.546 201.766 345.407 194.28L480.021 155.82ZM433.948 102.943C415.698 94.5196 396.831 93.8 386.164 93.8V233.8C388.066 233.8 388.154 233.915 386.94 233.737C386.275 233.64 384.938 233.414 383.105 232.922C381.301 232.437 378.567 231.574 375.28 230.057L433.948 102.943ZM386.164 93.8C398.188 93.8 411.831 97.0071 424.402 105.388C436.535 113.476 443.722 123.741 447.761 131.82C454.85 145.997 454.814 158.425 454.814 161.1H314.814C314.814 165.575 315.003 179.353 322.541 194.43C326.806 202.959 334.274 213.561 346.744 221.875C359.653 230.48 373.69 233.8 386.164 233.8V93.8ZM454.814 161.1C454.814 163.775 454.85 176.203 447.761 190.38C443.722 198.459 436.535 208.724 424.402 216.812C411.831 225.193 398.188 228.4 386.164 228.4V88.4C373.69 88.4 359.653 91.7196 346.744 100.325C334.274 108.639 326.806 119.241 322.541 127.77C315.003 142.847 314.814 156.625 314.814 161.1H454.814ZM384.706 228.385L406.306 228.835L409.222 88.8652L387.622 88.4152L384.706 228.385ZM404.268 228.763C416.776 229.388 427.687 229.75 436.564 229.75V89.75C431.041 89.75 422.752 89.512 411.259 88.9373L404.268 228.763ZM436.564 229.75C446.239 229.75 457.543 229.396 470.209 228.763L463.218 88.9373C451.885 89.504 443.088 89.75 436.564 89.75V229.75ZM468.172 228.835L489.772 228.385L486.856 88.4152L465.256 88.8652L468.172 228.835ZM488.314 228.4C468.685 228.4 451.341 220.197 439.21 208.066C428.798 197.654 424.395 186.653 422.581 181.211C419.083 170.717 419.214 162.243 419.214 161.1H559.214C559.214 158.157 559.195 148.333 555.397 136.939C552.198 127.344 535.112 88.4 488.314 88.4V228.4ZM419.214 161.1C419.214 159.957 419.083 151.483 422.581 140.989C424.395 135.547 428.798 124.546 439.21 114.134C451.342 102.002 468.685 93.8 488.314 93.8V233.8C535.112 233.8 552.198 194.857 555.397 185.261C559.195 173.867 559.214 164.043 559.214 161.1H419.214ZM488.314 93.8C477.05 93.8 459.27 94.6895 441.839 102.16L496.988 230.84C494.212 232.03 491.924 232.719 490.391 233.113C488.839 233.512 487.727 233.695 487.188 233.771C486.214 233.911 486.446 233.8 488.314 233.8V93.8ZM440.08 102.943C416.704 113.732 401.81 133.101 394.906 153.814L527.722 198.086C526.015 203.205 522.939 209.553 517.612 215.768C512.177 222.108 505.607 226.892 498.748 230.057L440.08 102.943ZM395.392 152.406C389.648 168.489 389.064 185.182 389.064 195.75H529.064C529.064 194.456 529.091 193.489 529.124 192.811C529.157 192.124 529.189 191.86 529.179 191.954C529.17 192.027 529.094 192.696 528.858 193.827C528.631 194.918 528.159 196.909 527.236 199.494L395.392 152.406ZM389.064 195.75V279H529.064V195.75H389.064ZM389.064 279C389.064 313.58 396.123 353.819 424.256 384.914L528.071 290.986C530.803 294.005 531.055 295.942 530.568 294.261C530.017 292.363 529.064 287.641 529.064 279H389.064ZM425.445 386.195C451.698 413.794 485.875 426.4 521.614 426.4V286.4C520.106 286.4 520.771 286.173 522.631 286.928C523.509 287.284 524.403 287.762 525.229 288.33C526.048 288.892 526.595 289.403 526.883 289.705L425.445 386.195ZM521.614 426.4C556.73 426.4 591.595 414.282 617.744 385.228L513.683 291.572C514.352 290.829 515.296 289.947 516.515 289.087C517.737 288.225 518.985 287.561 520.136 287.091C522.495 286.128 523.375 286.4 521.614 286.4V426.4ZM617.101 385.933C643.901 356.96 652.364 320.521 652.364 287.1H512.364C512.364 292.515 511.671 294.81 511.62 294.965C511.611 294.995 511.769 294.505 512.241 293.68C512.722 292.838 513.414 291.854 514.327 290.867L617.101 385.933ZM652.364 287.1V210.6H512.364V287.1H652.364ZM715.726 181.8L668.492 130.138L668.118 130.479L667.75 130.826L715.726 181.8ZM691.426 220.95L625.64 197.028L625.317 197.917L625.018 198.814L691.426 220.95ZM686.476 220.95L617.016 212.268L616.476 216.592V220.95H686.476ZM690.526 183.6L760.192 190.43L760.198 190.365L760.204 190.3L690.526 183.6ZM704.476 156.15L686.439 223.786L688.577 224.357L690.747 224.791L704.476 156.15ZM721.576 157.5L723.203 87.5189L722.389 87.5H721.576V157.5ZM789.526 158.4V228.4H789.928L790.33 228.395L789.526 158.4ZM828.676 157.95L829.48 227.945L831.135 227.926L832.786 227.829L828.676 157.95ZM875.476 155.7L889.896 224.198L891.18 223.928L892.453 223.61L875.476 155.7ZM886.726 146.7L953.133 168.836L953.133 168.836L886.726 146.7ZM892.126 146.7L962 150.892L962.126 148.798V146.7H892.126ZM890.776 169.2L960.613 173.962L960.633 173.677L960.65 173.392L890.776 169.2ZM882.676 220.95H952.676V215.341L951.782 209.804L882.676 220.95ZM872.326 194.85L813.443 232.703L813.759 233.194L814.082 233.679L872.326 194.85ZM852.976 175.05L812.514 232.172L813.857 233.122L815.242 234.009L852.976 175.05ZM816.526 173.25L874.769 212.079L875.475 211.02L876.142 209.937L816.526 173.25ZM815.176 352.8L748.768 374.936L749.688 377.698L750.835 380.374L815.176 352.8ZM824.626 361.35L846.762 294.942L846.762 294.942L824.626 361.35ZM822.826 368.55L826.505 298.647L825.133 298.575L823.759 298.556L822.826 368.55ZM789.076 368.1L790.009 298.106L789.063 298.094L788.117 298.107L789.076 368.1ZM756.226 368.55L755.267 298.557L753.906 298.575L752.546 298.647L756.226 368.55ZM753.976 361.35L733.096 294.536L732.466 294.733L731.84 294.942L753.976 361.35ZM763.426 352.8L698.432 326.803L697.945 328.021L697.504 329.256L763.426 352.8ZM762.976 172.35L703.919 209.931L703.919 209.931L762.976 172.35ZM748.576 97.4C715.646 97.4 688.558 111.792 668.492 130.138L762.959 233.462C763.601 232.876 762.644 233.915 759.916 235.111C756.972 236.402 753.02 237.4 748.576 237.4V97.4ZM667.75 130.826C647.818 149.586 634.455 172.788 625.64 197.028L757.211 244.872C760.397 236.112 763.234 233.214 763.701 232.774L667.75 130.826ZM625.018 198.814C631.122 180.501 644.183 166.871 659.22 159.353C672.083 152.921 683.502 152.3 688.726 152.3V292.3C699.866 292.3 742.83 288.098 757.833 243.086L625.018 198.814ZM688.726 152.3C692.691 152.3 707.302 152.487 723.053 161.938C731.972 167.29 741.18 175.617 747.807 187.546C754.383 199.381 756.476 211.261 756.476 220.95H616.476C616.476 245.114 628.825 268.668 651.023 281.987C667.524 291.888 683.261 292.3 688.726 292.3V152.3ZM755.935 229.632C757.243 219.167 758.662 206.035 760.192 190.43L620.86 176.77C619.389 191.765 618.108 203.533 617.016 212.268L755.935 229.632ZM760.204 190.3C761.75 174.22 762.776 159.788 762.776 148.5H622.776C622.776 152.812 622.301 161.78 620.847 176.9L760.204 190.3ZM762.776 148.5C762.776 158.54 760.218 178.927 742.836 196.31C725.453 213.693 705.066 216.25 695.026 216.25V76.25C683.485 76.25 661.973 79.1825 643.841 97.3151C625.708 115.448 622.776 136.96 622.776 148.5H762.776ZM695.026 216.25C687.929 216.25 669.575 215.036 652.238 200.588C632.456 184.103 627.726 162.235 627.726 148.5H767.726C767.726 133.265 762.545 110.272 741.864 93.0371C723.626 77.8393 703.923 76.25 695.026 76.25V216.25ZM627.726 148.5C627.726 164.838 632.867 183.719 646.924 199.651C659.982 214.449 675.637 220.906 686.439 223.786L722.512 88.5136C728.814 90.1942 741.094 94.7756 751.902 107.024C763.709 120.406 767.726 136.062 767.726 148.5H627.726ZM690.747 224.791C701.415 226.924 712.121 227.5 721.576 227.5V87.5C719.603 87.5 718.324 87.434 717.635 87.3796C716.905 87.322 717.176 87.3037 718.204 87.5093L690.747 224.791ZM719.948 227.481C746.129 228.09 769.342 228.4 789.526 228.4V88.4C770.709 88.4 748.622 88.1101 723.203 87.5189L719.948 227.481ZM790.33 228.395L829.48 227.945L827.871 87.9546L788.721 88.4046L790.33 228.395ZM832.786 227.829C835.898 227.646 841.24 227.5 849.376 227.5V87.5C840.111 87.5 831.653 87.6538 824.565 88.0708L832.786 227.829ZM849.376 227.5C862.099 227.5 876.788 226.958 889.896 224.198L861.055 87.2015C862.511 86.8949 862.399 87.0407 859.859 87.2159C857.546 87.3754 854.122 87.5 849.376 87.5V227.5ZM892.453 223.61C913.722 218.293 941.794 202.854 953.133 168.836L820.318 124.564C823.891 113.845 830.537 104.482 839.059 97.6641C846.964 91.3406 854.436 88.8055 858.498 87.79L892.453 223.61ZM953.133 168.836C947.029 187.15 933.968 200.779 918.931 208.297C906.068 214.729 894.649 215.35 889.426 215.35V75.35C878.286 75.35 835.322 79.5522 820.318 124.564L953.133 168.836ZM889.426 215.35C886.75 215.35 874.323 215.386 860.146 208.297C852.067 204.258 841.802 197.071 833.713 184.939C825.333 172.368 822.126 158.724 822.126 146.7H962.126C962.126 134.226 958.806 120.189 950.2 107.28C941.887 94.81 931.284 87.342 922.755 83.0775C907.678 75.5389 893.901 75.35 889.426 75.35V215.35ZM822.251 142.508L820.901 165.008L960.65 173.392L962 150.892L822.251 142.508ZM820.938 164.438C819.175 190.29 818.076 210.021 818.076 220.95H958.076C958.076 215.679 958.776 200.91 960.613 173.962L820.938 164.438ZM818.076 220.95C818.076 208.926 821.283 195.283 829.663 182.712C837.752 170.579 848.016 163.392 856.096 159.353C870.273 152.264 882.7 152.3 885.376 152.3V292.3C889.851 292.3 903.628 292.111 918.706 284.572C927.235 280.308 937.837 272.84 946.15 260.369C954.756 247.461 958.076 233.424 958.076 220.95H818.076ZM885.376 152.3C888.051 152.3 900.478 152.264 914.656 159.353C922.735 163.392 933 170.579 941.088 182.712C949.469 195.283 952.676 208.926 952.676 220.95H812.676C812.676 233.424 815.995 247.461 824.601 260.369C832.914 272.84 843.516 280.308 852.045 284.572C867.123 292.111 880.9 292.3 885.376 292.3V152.3ZM951.782 209.804C948.632 190.271 941.34 172.178 930.569 156.021L814.082 233.679C814.165 233.803 814.051 233.653 813.893 233.254C813.732 232.848 813.623 232.431 813.569 232.096L951.782 209.804ZM931.208 156.997C921.024 141.155 907.673 126.948 890.709 116.091L815.242 234.009C814.354 233.441 813.73 232.889 813.375 232.525C813.036 232.178 813.094 232.16 813.443 232.703L931.208 156.997ZM893.437 117.928C876.554 105.969 855.345 97.4 830.926 97.4V237.4C826.576 237.4 822.544 236.634 819.119 235.445C815.789 234.29 813.591 232.934 812.514 232.172L893.437 117.928ZM830.926 97.4C814.07 97.4 778.197 101.972 756.91 136.563L876.142 209.937C868.525 222.314 857.783 229.851 848.272 233.715C839.727 237.186 833.082 237.4 830.926 237.4V97.4ZM758.282 134.421C749.058 148.258 746.036 162.292 744.778 169.842C743.322 178.581 742.926 187.238 742.926 194.85H882.926C882.926 191.662 883.13 191.319 882.873 192.858C882.731 193.712 882.334 195.834 881.358 198.761C880.421 201.572 878.509 206.47 874.769 212.079L758.282 134.421ZM742.926 194.85V332.55H882.926V194.85H742.926ZM742.926 332.55C742.926 343.593 743.62 359.492 748.768 374.936L881.583 330.664C882.292 332.791 882.657 334.402 882.832 335.275C882.925 335.739 882.982 336.087 883.015 336.302C883.047 336.518 883.06 336.632 883.06 336.632C883.06 336.634 883.05 336.544 883.036 336.357C883.021 336.17 883.004 335.903 882.987 335.549C882.953 334.831 882.926 333.841 882.926 332.55H742.926ZM750.835 380.374C760.847 403.734 779.843 420.209 802.49 427.758L846.762 294.942C852.627 296.897 859.448 300.386 865.852 306.18C872.308 312.022 876.749 318.771 879.516 325.226L750.835 380.374ZM802.49 427.758C818.345 433.043 835.145 433.6 846.226 433.6V293.6C844.619 293.6 843.347 293.569 842.374 293.527C841.391 293.483 840.838 293.434 840.653 293.414C840.446 293.393 840.848 293.425 841.726 293.594C842.182 293.682 842.834 293.819 843.648 294.026C844.459 294.231 845.514 294.526 846.762 294.942L802.49 427.758ZM846.226 433.6C834.202 433.6 820.558 430.393 807.987 422.012C795.854 413.924 788.668 403.659 784.628 395.58C777.54 381.403 777.576 368.975 777.576 366.3H917.576C917.576 361.825 917.387 348.047 909.848 332.97C905.584 324.441 898.116 313.839 885.645 305.525C872.737 296.92 858.7 293.6 846.226 293.6V433.6ZM777.576 366.3C777.576 363.625 777.54 351.197 784.628 337.02C788.668 328.941 795.854 318.676 807.987 310.588C820.558 302.207 834.202 299 846.226 299V439C858.7 439 872.737 435.68 885.645 427.075C898.116 418.761 905.584 408.159 909.848 399.63C917.387 384.553 917.576 370.775 917.576 366.3H777.576ZM846.226 299C836.805 299 830.409 298.852 826.505 298.647L819.146 438.453C826.642 438.848 835.847 439 846.226 439V299ZM823.759 298.556L790.009 298.106L788.142 438.094L821.892 438.544L823.759 298.556ZM788.117 298.107L755.267 298.557L757.184 438.543L790.034 438.093L788.117 298.107ZM752.546 298.647C748.69 298.85 742.032 299 731.926 299V439C742.819 439 752.362 438.85 759.905 438.453L752.546 298.647ZM731.926 299C751.554 299 768.898 307.203 781.029 319.334C791.441 329.746 795.845 340.747 797.658 346.189C801.156 356.683 801.026 365.157 801.026 366.3H661.026C661.026 369.243 661.045 379.067 664.843 390.461C668.041 400.056 685.128 439 731.926 439V299ZM801.026 366.3C801.026 367.443 801.156 375.917 797.658 386.411C795.845 391.853 791.441 402.854 781.029 413.266C768.898 425.397 751.554 433.6 731.926 433.6V293.6C685.128 293.6 668.041 332.544 664.843 342.139C661.045 353.533 661.026 363.357 661.026 366.3H801.026ZM731.926 433.6C743.036 433.6 760.136 433.083 776.112 427.758L731.84 294.942C733.141 294.509 734.234 294.205 735.062 293.996C735.896 293.786 736.556 293.649 737.008 293.563C737.464 293.477 737.776 293.43 737.921 293.409C738.068 293.388 738.094 293.388 737.982 293.399C737.74 293.424 737.119 293.478 736.052 293.523C734.998 293.568 733.633 293.6 731.926 293.6V433.6ZM774.855 428.164C797.564 421.067 819.44 404.084 829.348 376.344L697.504 329.256C700.437 321.044 705.556 312.891 712.974 306.18C720.168 299.671 727.583 296.259 733.096 294.536L774.855 428.164ZM828.419 378.797C835.257 361.702 836.126 344.153 836.126 332.55H696.126C696.126 334.876 696 335.596 696.065 335.111C696.103 334.82 696.229 333.964 696.54 332.667C696.846 331.391 697.413 329.352 698.432 326.803L828.419 378.797ZM836.126 332.55V193.95H696.126V332.55H836.126ZM836.126 193.95C836.126 186.579 835.801 178.321 834.605 170.124C833.673 163.728 831.186 149.153 822.032 134.769L703.919 209.931C699.918 203.643 698.082 198.257 697.306 195.671C696.458 192.843 696.153 190.89 696.071 190.326C695.925 189.329 696.126 190.221 696.126 193.95H836.126ZM822.032 134.769C798.877 98.3823 759.07 97.4 748.576 97.4V237.4C747.922 237.4 742.571 237.423 735.045 234.836C726.96 232.056 713.627 225.187 703.919 209.931L822.032 134.769ZM1012.7 359.55L976.376 419.385L976.769 419.624L977.166 419.858L1012.7 359.55ZM973.554 319.05L912.061 352.494L912.185 352.724L912.312 352.952L973.554 319.05ZM977.154 204.3L920.193 163.613L919.951 163.953L919.712 164.295L977.154 204.3ZM1022.6 166.05L992.947 102.643L992.748 102.736L992.549 102.831L1022.6 166.05ZM1136 168.75L1097.93 227.491L1098.56 227.898L1099.2 228.292L1136 168.75ZM1174.25 209.25L1112.55 242.305L1112.68 242.538L1112.8 242.77L1174.25 209.25ZM1172 317.7L1231.66 354.328L1231.8 354.098L1231.94 353.867L1172 317.7ZM1129.25 359.1L1163.77 420.002L1164.15 419.785L1164.53 419.565L1129.25 359.1ZM1120.7 339.3L1061.65 301.719L1061.4 302.104L1061.16 302.492L1120.7 339.3ZM1127.45 216.9L1193.1 192.588L1193.1 192.588L1127.45 216.9ZM1101.8 178.65L1055.3 230.969L1056.06 231.649L1056.85 232.306L1101.8 178.65ZM1024.4 185.85L1083.76 222.95L1083.76 222.95L1024.4 185.85ZM1019.9 308.25L953.61 330.723L953.841 331.404L954.086 332.081L1019.9 308.25ZM1045.1 349.2L997.084 400.131L1045.1 349.2ZM1069.85 304.4C1059.86 304.4 1053.29 302.219 1048.24 299.242L977.166 419.858C1005.72 436.681 1037.25 444.4 1069.85 444.4V304.4ZM1049.03 299.715C1042.4 295.686 1038.05 291.022 1034.8 285.148L912.312 352.952C927.66 380.678 949.411 403.014 976.376 419.385L1049.03 299.715ZM1035.05 285.606C1031.43 278.952 1029.6 272.026 1029.6 263.7H889.604C889.604 294.974 897.079 324.948 912.061 352.494L1035.05 285.606ZM1029.6 263.7C1029.6 253.509 1031.99 248.047 1034.6 244.305L919.712 164.295C898.919 194.153 889.604 228.291 889.604 263.7H1029.6ZM1034.12 244.987C1039.34 237.669 1045.31 232.765 1052.66 229.269L992.549 102.831C963.303 116.735 938.967 137.331 920.193 163.613L1034.12 244.987ZM1052.26 229.457C1062.08 224.864 1071.05 223 1079.75 223V83C1049.46 83 1020.33 89.8364 992.947 102.643L1052.26 229.457ZM1079.75 223C1088.99 223 1094.23 225.09 1097.93 227.491L1174.08 110.009C1145.38 91.4103 1113.12 83 1079.75 83V223ZM1099.2 228.292C1105.41 232.13 1109.48 236.574 1112.55 242.305L1235.96 176.194C1221.03 148.326 1199.6 125.77 1172.81 109.208L1099.2 228.292ZM1112.8 242.77C1116.35 249.277 1117.75 255.188 1117.75 261.45H1257.75C1257.75 231.112 1250.16 202.223 1235.71 175.73L1112.8 242.77ZM1117.75 261.45C1117.75 268.655 1116.06 274.92 1112.07 281.533L1231.94 353.867C1248.95 325.68 1257.75 294.445 1257.75 261.45H1117.75ZM1112.35 281.072C1108.13 287.953 1102.41 293.718 1093.98 298.635L1164.53 419.565C1192.1 403.482 1214.88 381.647 1231.66 354.328L1112.35 281.072ZM1094.74 298.198C1087.74 302.167 1079.91 304.4 1069.85 304.4V444.4C1103 444.4 1134.77 436.433 1163.77 420.002L1094.74 298.198ZM1080.2 434.05C1125.38 434.05 1159.62 409.477 1180.25 376.108L1061.16 302.492C1060.55 303.478 1061.92 300.886 1066.43 298.133C1071.36 295.121 1076.55 294.05 1080.2 294.05V434.05ZM1179.76 376.881C1200.09 344.932 1206.45 307.227 1206.45 270.9H1066.45C1066.45 292.773 1062.32 300.668 1061.65 301.719L1179.76 376.881ZM1206.45 270.9C1206.45 243.998 1202.37 217.618 1193.1 192.588L1061.81 241.212C1064.54 248.582 1066.45 258.202 1066.45 270.9H1206.45ZM1193.1 192.588C1183.69 167.181 1168.84 143.494 1146.76 124.994L1056.85 232.306C1056.97 232.406 1059.22 234.219 1061.81 241.212L1193.1 192.588ZM1148.31 126.331C1124.75 105.385 1095.61 94.25 1064 94.25V234.25C1063.27 234.25 1061.52 234.097 1059.33 233.264C1057.15 232.433 1055.78 231.399 1055.3 230.969L1148.31 126.331ZM1064 94.25C1023.19 94.25 987.216 113.276 965.045 148.75L1083.76 222.95C1082.73 224.611 1079.85 228.227 1074.57 231.103C1069.38 233.937 1065.16 234.25 1064 234.25V94.25ZM965.045 148.75C945.889 179.399 940.904 216.183 940.904 249.75H1080.9C1080.9 239.17 1081.77 231.832 1082.77 227.094C1083.78 222.311 1084.64 221.55 1083.76 222.95L965.045 148.75ZM940.904 249.75C940.904 277.642 944.84 304.852 953.61 330.723L1086.2 285.777C1082.97 276.248 1080.9 264.458 1080.9 249.75H940.904ZM954.086 332.081C963.095 356.963 976.684 380.898 997.084 400.131L1093.13 298.269C1092.52 297.702 1089.31 294.337 1085.72 284.419L954.086 332.081ZM997.084 400.131C1018.9 420.703 1047.28 434.05 1080.2 434.05V294.05C1082.98 294.05 1086.11 294.636 1089.03 295.87C1091.81 297.047 1093.13 298.277 1093.13 298.269L997.084 400.131ZM1448.03 332.1L1391.3 373.109L1391.42 373.273L1391.53 373.436L1448.03 332.1ZM1382.78 228.15L1443.48 193.288L1420.29 152.916L1374.09 158.691L1382.78 228.15ZM1347.68 228.15L1352.04 158.286L1277.68 153.638V228.15H1347.68ZM1349.93 352.8L1284 376.344L1284 376.344L1349.93 352.8ZM1358.48 361.35L1334.93 427.272L1335.63 427.522L1336.34 427.758L1358.48 361.35ZM1356.23 368.55L1359.91 298.647L1358.53 298.574L1357.15 298.556L1356.23 368.55ZM1322.03 368.1L1322.95 298.106L1322.01 298.094L1321.07 298.107L1322.03 368.1ZM1289.18 368.55L1288.22 298.557L1286.95 298.574L1285.68 298.637L1289.18 368.55ZM1285.58 361.35L1263.44 294.942L1262.73 295.178L1262.03 295.428L1285.58 361.35ZM1294.58 352.8L1229.58 326.803L1229.1 328.021L1228.65 329.256L1294.58 352.8ZM1295.03 104.4L1229.1 127.943L1229.1 127.944L1295.03 104.4ZM1286.03 95.85L1260.03 160.843L1261.94 161.607L1263.89 162.258L1286.03 95.85ZM1265.33 87.75L1266.65 17.7625L1265.99 17.75H1265.33V87.75ZM1289.18 88.2L1292.22 18.2661L1291.36 18.2287L1290.5 18.2125L1289.18 88.2ZM1350.83 87.75L1356.8 157.494L1356.98 157.479L1357.16 157.462L1350.83 87.75ZM1363.43 86.85L1359.54 16.9578L1359.43 16.9641L1359.32 16.9708L1363.43 86.85ZM1446.23 101.7L1406.87 159.585L1407.53 160.035L1408.2 160.47L1446.23 101.7ZM1456.58 183.15L1398.33 144.321L1398.33 144.321L1456.58 183.15ZM1423.73 213.75L1388.71 153.139L1325.51 189.653L1364.63 251.271L1423.73 213.75ZM1484.03 302.4L1428.31 344.776L1428.5 345.023L1428.69 345.268L1484.03 302.4ZM1527.68 349.2L1484.43 404.242L1485.15 404.809L1485.89 405.356L1527.68 349.2ZM1347.68 215.1H1277.68V274.399L1336.17 284.148L1347.68 215.1ZM1399.43 211.95L1431.91 273.958L1431.91 273.958L1399.43 211.95ZM1412.93 194.85L1347.28 170.538L1346.88 171.62L1346.52 172.714L1412.93 194.85ZM1406.63 109.8L1351.28 152.652L1351.28 152.652L1406.63 109.8ZM1353.98 102.6L1405.15 150.362L1405.15 150.362L1353.98 102.6ZM1565.03 433.6C1545.4 433.6 1528.05 425.398 1515.92 413.267C1505.51 402.855 1501.11 391.853 1499.29 386.411C1495.8 375.918 1495.93 367.443 1495.93 366.3H1635.93C1635.93 363.357 1635.91 353.532 1632.11 342.139C1628.91 332.543 1611.82 293.6 1565.03 293.6V433.6ZM1495.93 366.3C1495.93 365.157 1495.8 356.682 1499.29 346.189C1501.11 340.747 1505.51 329.745 1515.92 319.333C1528.05 307.202 1545.4 299 1565.03 299V439C1611.82 439 1628.91 400.057 1632.11 390.461C1635.91 379.068 1635.93 369.243 1635.93 366.3H1495.93ZM1565.03 299H1484.93V439H1565.03V299ZM1484.93 299C1494.82 299 1502.53 301.257 1507.23 303.058C1512 304.884 1515.34 306.885 1517.09 308.024C1520.38 310.163 1521.52 311.549 1520.25 310.278C1517.84 307.867 1512.72 301.976 1504.52 290.764L1391.53 373.436C1401.33 386.824 1411.36 399.383 1421.25 409.272C1426.13 414.151 1432.71 420.15 1440.73 425.364C1447.31 429.65 1463.17 439 1484.93 439V299ZM1504.76 291.091C1488.81 269.036 1468.45 236.764 1443.48 193.288L1322.08 263.012C1348.11 308.336 1371.24 345.364 1391.3 373.109L1504.76 291.091ZM1374.09 158.691C1374.8 158.603 1375.26 158.565 1375.41 158.553C1375.58 158.54 1375.57 158.544 1375.35 158.554C1374.89 158.574 1373.95 158.6 1372.43 158.6V298.6C1377.81 298.6 1384.7 298.454 1391.46 297.609L1374.09 158.691ZM1372.43 158.6C1360.71 158.6 1354.43 158.435 1352.04 158.286L1343.31 298.014C1350.52 298.465 1360.74 298.6 1372.43 298.6V158.6ZM1277.68 228.15V332.55H1417.68V228.15H1277.68ZM1277.68 332.55C1277.68 343.1 1278.21 360.116 1284 376.344L1415.85 329.256C1416.81 331.949 1417.29 334.007 1417.51 335.083C1417.74 336.206 1417.81 336.846 1417.81 336.857C1417.81 336.892 1417.78 336.555 1417.74 335.779C1417.71 335.015 1417.68 333.95 1417.68 332.55H1277.68ZM1284 376.344C1292.56 400.308 1310.97 418.713 1334.93 427.272L1382.02 295.428C1388.63 297.789 1396.03 301.937 1402.69 308.59C1409.34 315.243 1413.49 322.646 1415.85 329.256L1284 376.344ZM1336.34 427.758C1352.07 433 1368.57 433.6 1379.63 433.6V293.6C1378.12 293.6 1376.94 293.57 1376.05 293.53C1375.16 293.49 1374.67 293.444 1374.54 293.43C1374.4 293.415 1374.83 293.453 1375.71 293.626C1376.17 293.715 1376.82 293.852 1377.61 294.056C1378.4 294.258 1379.42 294.544 1380.61 294.942L1336.34 427.758ZM1379.63 433.6C1360 433.6 1342.65 425.398 1330.52 413.266C1320.11 402.854 1315.71 391.853 1313.89 386.411C1310.4 375.917 1310.53 367.443 1310.53 366.3H1450.53C1450.53 363.357 1450.51 353.533 1446.71 342.139C1443.51 332.544 1426.42 293.6 1379.63 293.6V433.6ZM1310.53 366.3C1310.53 365.157 1310.4 356.683 1313.89 346.189C1315.71 340.747 1320.11 329.746 1330.52 319.334C1342.65 307.202 1360 299 1379.63 299V439C1426.42 439 1443.51 400.056 1446.71 390.461C1450.51 379.067 1450.53 369.243 1450.53 366.3H1310.53ZM1379.63 299C1370.21 299 1363.81 298.852 1359.91 298.647L1352.55 438.453C1360.04 438.848 1369.25 439 1379.63 439V299ZM1357.15 298.556L1322.95 298.106L1321.11 438.094L1355.31 438.544L1357.15 298.556ZM1321.07 298.107L1288.22 298.557L1290.14 438.543L1322.99 438.093L1321.07 298.107ZM1285.68 298.637C1281.37 298.853 1274.59 299 1264.88 299V439C1275.56 439 1284.98 438.847 1292.67 438.463L1285.68 298.637ZM1264.88 299C1276.9 299 1290.54 302.207 1303.12 310.588C1315.25 318.676 1322.43 328.941 1326.47 337.02C1333.56 351.197 1333.53 363.625 1333.53 366.3H1193.53C1193.53 370.775 1193.72 384.553 1201.25 399.63C1205.52 408.159 1212.99 418.761 1225.46 427.075C1238.37 435.68 1252.4 439 1264.88 439V299ZM1333.53 366.3C1333.53 368.975 1333.56 381.403 1326.47 395.58C1322.43 403.659 1315.25 413.924 1303.12 422.012C1290.54 430.393 1276.9 433.6 1264.88 433.6V293.6C1252.4 293.6 1238.37 296.92 1225.46 305.525C1212.99 313.839 1205.52 324.441 1201.25 332.97C1193.72 348.047 1193.53 361.825 1193.53 366.3H1333.53ZM1264.88 433.6C1275.42 433.6 1292.76 433.116 1309.12 427.272L1262.03 295.428C1264.83 294.428 1266.96 293.944 1268.01 293.73C1268.59 293.612 1269.03 293.541 1269.29 293.502C1269.42 293.481 1269.52 293.468 1269.59 293.46C1269.65 293.451 1269.69 293.448 1269.69 293.447C1269.69 293.447 1269.66 293.45 1269.61 293.455C1269.55 293.46 1269.46 293.468 1269.35 293.476C1269.13 293.492 1268.81 293.513 1268.39 293.532C1267.54 293.57 1266.38 293.6 1264.88 293.6V433.6ZM1307.71 427.758C1331.12 419.956 1351.25 402.244 1360.5 376.344L1228.65 329.256C1231.3 321.847 1235.93 314.047 1242.99 307.338C1249.94 300.73 1257.38 296.963 1263.44 294.942L1307.71 427.758ZM1359.57 378.797C1366.41 361.702 1367.28 344.153 1367.28 332.55H1227.28C1227.28 334.876 1227.15 335.596 1227.22 335.111C1227.25 334.82 1227.38 333.964 1227.69 332.667C1228 331.391 1228.56 329.352 1229.58 326.803L1359.57 378.797ZM1367.28 332.55V124.2H1227.28V332.55H1367.28ZM1367.28 124.2C1367.28 113.632 1366.69 96.9389 1360.95 80.8564L1229.1 127.944C1228.18 125.359 1227.71 123.368 1227.48 122.277C1227.25 121.146 1227.17 120.477 1227.16 120.404C1227.15 120.31 1227.18 120.574 1227.22 121.261C1227.25 121.939 1227.28 122.906 1227.28 124.2H1367.28ZM1360.95 80.8566C1351.7 54.9565 1331.57 37.2442 1308.16 29.4421L1263.89 162.258C1257.83 160.237 1250.39 156.47 1243.44 149.862C1236.38 143.153 1231.75 135.353 1229.1 127.943L1360.95 80.8566ZM1312.02 30.8566C1294.76 23.949 1276.88 23.15 1265.33 23.15V163.15C1267.89 163.15 1268.78 163.284 1268.42 163.237C1268.2 163.207 1267.36 163.091 1266.07 162.784C1264.8 162.484 1262.69 161.908 1260.03 160.843L1312.02 30.8566ZM1265.33 23.15C1284.96 23.15 1302.3 31.3524 1314.43 43.4837C1324.84 53.8957 1329.25 64.8973 1331.06 70.339C1334.56 80.8326 1334.43 89.3071 1334.43 90.45H1194.43C1194.43 93.3929 1194.45 103.217 1198.24 114.611C1201.44 124.206 1218.53 163.15 1265.33 163.15V23.15ZM1334.43 90.45C1334.43 91.5929 1334.56 100.067 1331.06 110.561C1329.25 116.003 1324.84 127.004 1314.43 137.416C1302.3 149.548 1284.96 157.75 1265.33 157.75V17.75C1218.53 17.75 1201.44 56.6935 1198.24 66.289C1194.45 77.6826 1194.43 87.5071 1194.43 90.45H1334.43ZM1264.01 157.738L1287.86 158.188L1290.5 18.2125L1266.65 17.7625L1264.01 157.738ZM1286.14 158.134C1300.35 158.752 1312.45 159.1 1322.03 159.1V19.1C1315.4 19.1 1305.6 18.848 1292.22 18.2661L1286.14 158.134ZM1322.03 159.1C1333.09 159.1 1344.72 158.53 1356.8 157.494L1344.85 18.0057C1335.94 18.7695 1328.37 19.1 1322.03 19.1V159.1ZM1357.16 157.462C1359.44 157.256 1362.83 157.006 1367.54 156.729L1359.32 16.9708C1353.82 17.2939 1348.81 17.6444 1344.49 18.0375L1357.16 157.462ZM1367.31 156.742C1371.08 156.533 1376.03 156.4 1382.33 156.4V16.4C1374.23 16.4 1366.58 16.567 1359.54 16.9578L1367.31 156.742ZM1382.33 156.4C1391.99 156.4 1398.56 157.309 1402.7 158.301C1406.77 159.276 1407.66 160.124 1406.87 159.585L1485.59 43.8151C1454.38 22.5928 1417.12 16.4 1382.33 16.4V156.4ZM1408.2 160.47C1407.54 160.04 1404.58 157.844 1402.06 153.246C1399.52 148.612 1399.18 144.748 1399.18 143.55H1539.18C1539.18 101.45 1519.19 65.535 1484.25 42.9301L1408.2 160.47ZM1399.18 143.55C1399.18 143.434 1399.19 143.248 1399.22 143.028C1399.26 142.808 1399.3 142.648 1399.32 142.576C1399.34 142.507 1399.32 142.601 1399.19 142.869C1399.06 143.142 1398.8 143.627 1398.33 144.321L1514.82 221.979C1530.11 199.047 1539.18 172.508 1539.18 143.55H1399.18ZM1398.33 144.321C1396.08 147.703 1393.18 150.555 1388.71 153.139L1458.75 274.361C1481.27 261.345 1500.28 243.797 1514.82 221.979L1398.33 144.321ZM1364.63 251.271C1389.09 289.79 1410.39 321.214 1428.31 344.776L1539.74 260.024C1525.26 240.986 1506.36 213.31 1482.82 176.229L1364.63 251.271ZM1428.69 345.268C1446.67 368.478 1465.29 389.204 1484.43 404.242L1570.92 294.158C1564.86 289.396 1554.39 278.922 1539.37 259.532L1428.69 345.268ZM1485.89 405.356C1506.8 420.918 1533.59 433.6 1565.03 433.6V293.6C1568.55 293.6 1570.96 294.334 1571.87 294.686C1572.64 294.982 1571.83 294.8 1569.47 293.044L1485.89 405.356ZM1336.17 284.148C1348.33 286.175 1361.11 286.9 1373.78 286.9V146.9C1366.04 146.9 1361.42 146.425 1359.18 146.052L1336.17 284.148ZM1373.78 286.9C1390.53 286.9 1411.72 284.532 1431.91 273.958L1366.95 149.942C1371.02 147.81 1374.04 147.12 1375.03 146.931C1376.01 146.74 1375.74 146.9 1373.78 146.9V286.9ZM1431.91 273.958C1457.37 260.619 1472.13 238.599 1479.33 216.986L1346.52 172.714C1347.29 170.396 1349.02 166.346 1352.58 161.825C1356.3 157.123 1361.2 152.954 1366.95 149.942L1431.91 273.958ZM1478.57 219.162C1485.78 199.682 1487.43 178.666 1487.43 160.65H1347.43C1347.43 165.741 1347.16 169.118 1346.9 171.093C1346.62 173.201 1346.48 172.698 1347.28 170.538L1478.57 219.162ZM1487.43 160.65C1487.43 134.437 1484.64 96.2164 1461.98 66.9479L1351.28 152.652C1348.54 149.118 1347.18 146.211 1346.62 144.843C1346.05 143.472 1346.05 143.059 1346.25 144.03C1346.45 144.968 1346.76 146.786 1347.01 149.677C1347.26 152.543 1347.43 156.17 1347.43 160.65H1487.43ZM1461.98 66.9479C1439.45 37.8459 1407.11 25.85 1375.58 25.85V165.85C1374.29 165.85 1370.17 165.612 1364.78 163.189C1359.09 160.632 1354.44 156.739 1351.28 152.652L1461.98 66.9479ZM1375.58 25.85C1358.19 25.85 1326.75 29.1845 1302.8 54.8378L1405.15 150.362C1397.3 158.775 1388.79 162.668 1383.41 164.351C1380.76 165.179 1378.69 165.535 1377.47 165.694C1376.83 165.776 1376.36 165.814 1376.05 165.832C1375.75 165.85 1375.58 165.85 1375.58 165.85V25.85ZM1302.8 54.8377C1280.41 78.825 1277.68 108.465 1277.68 125.1H1417.68C1417.68 124.17 1417.81 126.37 1416.66 130.474C1415.47 134.721 1412.46 142.535 1405.15 150.362L1302.8 54.8377ZM1277.68 125.1V215.1H1417.68V125.1H1277.68ZM1827.94 368.1L1831.27 298.179L1831.19 298.176L1831.11 298.172L1827.94 368.1ZM1776.19 368.1L1772.3 298.208L1772.19 298.214L1772.08 298.221L1776.19 368.1ZM1768.99 361.35L1802.98 422.541L1804 421.975L1805 421.375L1768.99 361.35ZM1765.84 331.2L1702.37 360.721L1702.45 360.906L1702.54 361.09L1765.84 331.2ZM1738.84 273.15L1802.31 243.629L1783.48 203.15H1738.84V273.15ZM1686.64 273.15V203.15H1640.21L1622.15 245.922L1686.64 273.15ZM1669.54 313.65L1733.88 341.224L1733.95 341.051L1734.02 340.878L1669.54 313.65ZM1669.09 359.1L1631.06 417.87L1632.31 418.68L1633.59 419.435L1669.09 359.1ZM1674.94 368.1L1680.3 298.306L1680.11 298.292L1679.92 298.278L1674.94 368.1ZM1624.99 368.1L1620.88 298.221L1620.6 298.237L1620.33 298.255L1624.99 368.1ZM1625.44 359.55L1655.4 422.812L1655.4 422.812L1625.44 359.55ZM1641.19 344.25L1583.3 304.888L1582.75 305.695L1582.23 306.516L1641.19 344.25ZM1658.74 309.6L1594.37 282.092L1594.32 282.209L1594.27 282.325L1658.74 309.6ZM1726.24 151.65L1663.63 120.345L1662.69 122.217L1661.87 124.142L1726.24 151.65ZM1731.64 151.65L1795.17 122.269L1794.72 121.3L1794.25 120.345L1731.64 151.65ZM1803.64 307.35L1740.1 336.731L1740.11 336.745L1740.11 336.759L1803.64 307.35ZM1822.09 343.35L1762.47 380.037L1762.97 380.854L1763.5 381.657L1822.09 343.35ZM1837.39 359.55L1801.89 419.885L1803.25 420.681L1804.63 421.415L1837.39 359.55ZM1691.59 261.45L1627.03 234.396L1586.35 331.45H1691.59V261.45ZM1733.44 261.45V331.45H1843.35L1796.87 231.848L1733.44 261.45ZM1711.39 214.2L1774.82 184.598L1707.94 41.2947L1646.83 187.146L1711.39 214.2ZM1856.29 433.6C1842.55 433.6 1820.68 428.87 1804.2 409.088C1789.75 391.751 1788.54 373.397 1788.54 366.3H1928.54C1928.54 357.403 1926.95 337.699 1911.75 319.462C1894.51 298.78 1871.52 293.6 1856.29 293.6V433.6ZM1788.54 366.3C1788.54 359.203 1789.75 340.849 1804.2 323.512C1820.68 303.73 1842.55 299 1856.29 299V439C1871.52 439 1894.51 433.82 1911.75 413.138C1926.95 394.901 1928.54 375.197 1928.54 366.3H1788.54ZM1856.29 299C1851.71 299 1843.62 298.768 1831.27 298.179L1824.61 438.021C1837.45 438.632 1848.26 439 1856.29 439V299ZM1831.11 298.172C1817.93 297.573 1807.2 297.2 1800.04 297.2V437.2C1803.67 437.2 1811.54 437.427 1824.76 438.028L1831.11 298.172ZM1800.04 297.2C1792.88 297.2 1783.3 297.597 1772.3 298.208L1780.07 437.992C1790.67 437.403 1796.99 437.2 1800.04 437.2V297.2ZM1772.08 298.221C1761.86 298.822 1756.51 299 1754.59 299V439C1761.06 439 1770.11 438.578 1780.3 437.979L1772.08 298.221ZM1754.59 299C1763.08 299 1773.91 300.624 1785.1 306.221C1796.59 311.964 1805.4 320.37 1811.48 329.496C1822.41 345.891 1822.79 361.633 1822.79 366.3H1682.79C1682.79 372.767 1683.46 389.859 1694.99 407.154C1709.86 429.458 1733.59 439 1754.59 439V299ZM1822.79 366.3C1822.79 370.967 1822.41 386.709 1811.48 403.104C1805.4 412.23 1796.59 420.636 1785.1 426.379C1773.91 431.976 1763.08 433.6 1754.59 433.6V293.6C1733.59 293.6 1709.86 303.142 1694.99 325.446C1683.46 342.741 1682.79 359.833 1682.79 366.3H1822.79ZM1754.59 433.6C1762.09 433.6 1783.17 433.549 1802.98 422.541L1734.99 300.159C1739.7 297.54 1743.78 296.088 1746.45 295.287C1749.19 294.466 1751.32 294.069 1752.55 293.877C1754.87 293.515 1755.79 293.6 1754.59 293.6V433.6ZM1805 421.375C1827.54 407.85 1843.49 383.336 1843.49 353.7H1703.49C1703.49 344.346 1705.74 333.283 1712.03 322.596C1718.2 312.096 1726.27 305.344 1732.97 301.325L1805 421.375ZM1843.49 353.7C1843.49 339.875 1839.81 328.16 1837.85 322.392C1835.41 315.221 1832.31 308.034 1829.13 301.31L1702.54 361.09C1703.45 363.021 1704.12 364.538 1704.6 365.68C1704.83 366.242 1705.01 366.676 1705.13 366.988C1705.18 367.142 1705.23 367.259 1705.26 367.339C1705.29 367.421 1705.3 367.46 1705.3 367.458C1705.3 367.457 1705.28 367.408 1705.25 367.313C1705.22 367.218 1705.18 367.067 1705.12 366.863C1705.01 366.474 1704.82 365.785 1704.61 364.838C1704.41 363.904 1704.14 362.527 1703.92 360.78C1703.7 359.059 1703.49 356.646 1703.49 353.7H1843.49ZM1829.31 301.679L1802.31 243.629L1675.37 302.671L1702.37 360.721L1829.31 301.679ZM1738.84 203.15H1686.64V343.15H1738.84V203.15ZM1622.15 245.922L1605.05 286.422L1734.02 340.878L1751.12 300.378L1622.15 245.922ZM1605.2 286.076C1598.83 300.937 1591.44 321.539 1591.44 343.35H1731.44C1731.44 345.849 1731.21 347.584 1731.09 348.361C1730.96 349.163 1730.87 349.387 1730.99 348.943C1731.11 348.516 1731.37 347.652 1731.85 346.304C1732.34 344.966 1732.99 343.281 1733.88 341.224L1605.2 286.076ZM1591.44 343.35C1591.44 369.192 1602.09 399.124 1631.06 417.87L1707.11 300.33C1714.83 305.326 1721.77 312.752 1726.31 322.104C1730.62 330.973 1731.44 338.778 1731.44 343.35H1591.44ZM1633.59 419.435C1655.1 432.085 1678.44 433.6 1692.94 433.6V293.6C1690.54 293.6 1690.4 293.415 1691.85 293.689C1693.1 293.924 1698.13 294.972 1704.58 298.765L1633.59 419.435ZM1692.94 433.6C1679.2 433.6 1657.33 428.87 1640.85 409.088C1626.4 391.751 1625.19 373.397 1625.19 366.3H1765.19C1765.19 357.403 1763.6 337.699 1748.4 319.462C1731.16 298.78 1708.17 293.6 1692.94 293.6V433.6ZM1625.19 366.3C1625.19 359.203 1626.4 340.849 1640.85 323.512C1657.33 303.73 1679.2 299 1692.94 299V439C1708.17 439 1731.16 433.82 1748.4 413.138C1763.6 394.901 1765.19 375.197 1765.19 366.3H1625.19ZM1692.94 299C1691.45 299 1687.56 298.864 1680.3 298.306L1669.57 437.894C1677.91 438.536 1686.03 439 1692.94 439V299ZM1679.92 298.278C1670.13 297.579 1660.65 297.2 1651.54 297.2V437.2C1656.82 437.2 1662.94 437.421 1669.95 437.922L1679.92 298.278ZM1651.54 297.2C1642.28 297.2 1631.99 297.567 1620.88 298.221L1629.1 437.979C1638.38 437.433 1645.8 437.2 1651.54 437.2V297.2ZM1620.33 298.255C1612.1 298.804 1606.46 299 1602.94 299V439C1610.81 439 1619.87 438.596 1629.64 437.945L1620.33 298.255ZM1602.94 299C1616.67 299 1638.54 303.73 1655.02 323.512C1669.47 340.849 1670.69 359.203 1670.69 366.3H1530.69C1530.69 375.197 1532.28 394.901 1547.47 413.138C1564.71 433.82 1587.7 439 1602.94 439V299ZM1670.69 366.3C1670.69 373.397 1669.47 391.751 1655.02 409.088C1638.54 428.87 1616.67 433.6 1602.94 433.6V293.6C1587.7 293.6 1564.71 298.78 1547.47 319.462C1532.28 337.699 1530.69 357.403 1530.69 366.3H1670.69ZM1602.94 433.6C1618.08 433.6 1636.97 431.544 1655.4 422.812L1595.47 296.288C1599.22 294.513 1602.02 293.895 1603.14 293.695C1604.25 293.493 1604.3 293.6 1602.94 293.6V433.6ZM1655.4 422.812C1676.9 412.629 1691.05 396.198 1700.14 381.984L1582.23 306.516C1581.72 307.302 1585.37 301.071 1595.47 296.288L1655.4 422.812ZM1699.07 383.612C1708.09 370.342 1716.07 353.739 1723.2 336.875L1594.27 282.325C1588.2 296.661 1584.48 303.158 1583.3 304.888L1699.07 383.612ZM1723.1 337.108L1790.6 179.158L1661.87 124.142L1594.37 282.092L1723.1 337.108ZM1788.85 182.955C1784.99 190.659 1778.04 200.643 1766.19 208.544C1753.9 216.737 1740.58 219.85 1728.94 219.85V79.85C1716.09 79.85 1701.72 83.2634 1688.53 92.0565C1675.78 100.557 1668.08 111.441 1663.63 120.345L1788.85 182.955ZM1728.94 219.85C1717.29 219.85 1703.97 216.737 1691.68 208.543C1679.83 200.642 1672.88 190.659 1669.03 182.955L1794.25 120.345C1789.79 111.441 1782.09 100.558 1769.34 92.0566C1756.15 83.2634 1741.78 79.85 1728.94 79.85V219.85ZM1668.1 181.031L1740.1 336.731L1867.17 277.969L1795.17 122.269L1668.1 181.031ZM1740.11 336.759C1747.9 353.586 1755.44 368.619 1762.47 380.037L1881.7 306.663C1879.13 302.481 1874.37 293.514 1867.16 277.941L1740.11 336.759ZM1763.5 381.657C1771.45 393.824 1783.67 409.165 1801.89 419.885L1872.88 299.215C1877.25 301.784 1879.75 304.255 1880.63 305.186C1881.54 306.151 1881.5 306.303 1880.67 305.043L1763.5 381.657ZM1804.63 421.415C1822.39 430.818 1840.68 433.6 1856.29 433.6V293.6C1856.89 293.6 1862.58 293.682 1870.14 297.685L1804.63 421.415ZM1691.59 331.45H1733.44V191.45H1691.59V331.45ZM1796.87 231.848L1774.82 184.598L1647.95 243.802L1670 291.052L1796.87 231.848ZM1646.83 187.146L1627.03 234.396L1756.15 288.504L1775.95 241.254L1646.83 187.146ZM1997.88 369.45L2004.04 299.721L2003.87 299.706L2003.7 299.692L1997.88 369.45ZM1984.38 368.55L1980.5 438.442L1980.5 438.442L1984.38 368.55ZM1965.93 368.1V298.1H1965.4L1964.86 298.108L1965.93 368.1ZM1936.68 368.55L1935.61 298.558L1934.2 298.58L1932.8 298.658L1936.68 368.55ZM1933.53 361.35L1909.99 295.428L1909.19 295.712L1908.41 296.016L1933.53 361.35ZM1941.63 352.8L1875.23 330.664L1874.75 332.107L1874.33 333.57L1941.63 352.8ZM1941.63 175.05L1874.33 194.28L1874.95 196.459L1875.71 198.594L1941.63 175.05ZM1933.53 166.5L1904.2 230.057L1907.04 231.369L1909.99 232.422L1933.53 166.5ZM1915.08 158.4L1916.54 88.4152L1915.81 88.4H1915.08V158.4ZM1936.68 158.85L1940.18 88.9373L1939.16 88.8864L1938.14 88.8652L1936.68 158.85ZM1993.83 158.4L1990.34 88.4873L1988.71 88.5686L1987.09 88.7255L1993.83 158.4ZM2086.08 171L2116.98 108.185L2116.98 108.185L2086.08 171ZM2127.93 208.35L2068.01 244.531L2068.01 244.531L2127.93 208.35ZM2127.48 318.15L2187.51 354.165L2187.51 354.165L2127.48 318.15ZM2086.08 356.85L2118.64 418.817L2118.64 418.817L2086.08 356.85ZM2072.13 336.6L2016.38 294.27L2016.38 294.27L2072.13 336.6ZM2072.13 195.3L2013.19 233.06L2013.33 233.271L2013.46 233.482L2072.13 195.3ZM1994.73 172.8L1946.97 121.626L1946.09 122.449L1945.24 123.303L1994.73 172.8ZM1994.73 353.7L1940.7 398.2L1942.13 399.935L1943.67 401.576L1994.73 353.7ZM2025.78 300.8C2019.82 300.8 2012.62 300.478 2004.04 299.721L1991.73 439.179C2003.55 440.222 2014.94 440.8 2025.78 440.8V300.8ZM2003.7 299.692C1999.22 299.319 1994.03 298.978 1988.27 298.658L1980.5 438.442C1985.54 438.722 1989.34 438.981 1992.07 439.208L2003.7 299.692ZM1988.27 298.658C1981.28 298.27 1973.8 298.1 1965.93 298.1V438.1C1971.87 438.1 1976.69 438.23 1980.5 438.442L1988.27 298.658ZM1964.86 298.108L1935.61 298.558L1937.76 438.542L1967.01 438.092L1964.86 298.108ZM1932.8 298.658C1929.32 298.851 1923.31 299 1914.18 299V439C1924.25 439 1933.25 438.849 1940.57 438.442L1932.8 298.658ZM1914.18 299C1933.81 299 1951.16 307.202 1963.29 319.334C1973.7 329.746 1978.1 340.747 1979.92 346.189C1983.42 356.683 1983.28 365.157 1983.28 366.3H1843.28C1843.28 369.243 1843.3 379.067 1847.1 390.461C1850.3 400.056 1867.39 439 1914.18 439V299ZM1983.28 366.3C1983.28 367.443 1983.42 375.917 1979.92 386.411C1978.1 391.853 1973.7 402.854 1963.29 413.266C1951.16 425.398 1933.81 433.6 1914.18 433.6V293.6C1867.39 293.6 1850.3 332.544 1847.1 342.139C1843.3 353.533 1843.28 363.357 1843.28 366.3H1983.28ZM1914.18 433.6C1924.17 433.6 1941.84 433.156 1958.66 426.684L1908.41 296.016C1911.51 294.822 1913.94 294.22 1915.26 293.932C1916.64 293.632 1917.51 293.527 1917.69 293.506C1917.95 293.476 1916.93 293.6 1914.18 293.6V433.6ZM1957.08 427.272C1982.01 418.367 2001.38 398.478 2008.94 372.03L1874.33 333.57C1876.47 326.084 1880.66 317.578 1887.89 309.945C1895.08 302.356 1903.15 297.872 1909.99 295.428L1957.08 427.272ZM2008.04 374.936C2013.19 359.492 2013.88 343.593 2013.88 332.55H1873.88C1873.88 333.841 1873.86 334.831 1873.82 335.549C1873.81 335.903 1873.79 336.17 1873.77 336.357C1873.76 336.544 1873.75 336.634 1873.75 336.632C1873.75 336.632 1873.76 336.518 1873.8 336.302C1873.83 336.087 1873.89 335.739 1873.98 335.275C1874.15 334.402 1874.52 332.791 1875.23 330.664L2008.04 374.936ZM2013.88 332.55V194.85H1873.88V332.55H2013.88ZM2013.88 194.85C2013.88 184.282 2013.3 167.589 2007.56 151.506L1875.71 198.594C1874.79 196.009 1874.32 194.018 1874.09 192.927C1873.85 191.796 1873.78 191.127 1873.77 191.054C1873.76 190.96 1873.79 191.224 1873.82 191.911C1873.86 192.589 1873.88 193.556 1873.88 194.85H2013.88ZM2008.94 155.82C2001.38 129.372 1982.01 109.483 1957.08 100.578L1909.99 232.422C1903.15 229.978 1895.08 225.494 1887.89 217.905C1880.66 210.272 1876.47 201.766 1874.33 194.28L2008.94 155.82ZM1962.87 102.943C1944.62 94.5196 1925.75 93.8 1915.08 93.8V233.8C1916.99 233.8 1917.07 233.915 1915.86 233.737C1915.2 233.64 1913.86 233.414 1912.03 232.922C1910.22 232.437 1907.49 231.574 1904.2 230.057L1962.87 102.943ZM1915.08 93.8C1927.11 93.8 1940.75 97.0071 1953.32 105.388C1965.46 113.476 1972.64 123.741 1976.68 131.82C1983.77 145.997 1983.73 158.425 1983.73 161.1H1843.73C1843.73 165.575 1843.92 179.353 1851.46 194.43C1855.73 202.959 1863.19 213.561 1875.67 221.875C1888.57 230.48 1902.61 233.8 1915.08 233.8V93.8ZM1983.73 161.1C1983.73 163.775 1983.77 176.203 1976.68 190.38C1972.64 198.459 1965.46 208.724 1953.32 216.812C1940.75 225.193 1927.11 228.4 1915.08 228.4V88.4C1902.61 88.4 1888.57 91.7196 1875.66 100.325C1863.19 108.639 1855.73 119.241 1851.46 127.77C1843.92 142.847 1843.73 156.625 1843.73 161.1H1983.73ZM1913.63 228.385L1935.23 228.835L1938.14 88.8652L1916.54 88.4152L1913.63 228.385ZM1933.19 228.763C1945.75 229.391 1956.79 229.75 1965.93 229.75V89.75C1960.08 89.75 1951.62 89.5092 1940.18 88.9373L1933.19 228.763ZM1965.93 229.75C1977.5 229.75 1989.05 229.19 2000.58 228.074L1987.09 88.7255C1980.02 89.4096 1972.97 89.75 1965.93 89.75V229.75ZM1997.33 228.313C2009.07 227.725 2016.65 227.5 2020.83 227.5V87.5C2013.02 87.5 2002.6 87.8745 1990.34 88.4873L1997.33 228.313ZM2020.83 227.5C2037.8 227.5 2048.5 230.524 2055.19 233.814L2116.98 108.185C2087.07 93.4762 2054.27 87.5 2020.83 87.5V227.5ZM2055.19 233.814C2062.69 237.501 2066.01 241.219 2068.01 244.531L2187.86 172.169C2170.66 143.681 2146.08 122.499 2116.98 108.185L2055.19 233.814ZM2068.01 244.531C2070.48 248.62 2072.33 253.917 2072.33 262.35H2212.33C2212.33 230.583 2204.59 199.88 2187.86 172.169L2068.01 244.531ZM2072.33 262.35C2072.33 271.36 2070.34 277.339 2067.46 282.135L2187.51 354.165C2204.43 325.961 2212.33 294.74 2212.33 262.35H2072.33ZM2067.46 282.135C2064.43 287.188 2060.33 291.308 2053.53 294.883L2118.64 418.817C2147.24 403.792 2170.74 382.112 2187.51 354.165L2067.46 282.135ZM2053.53 294.883C2047.07 298.276 2038.38 300.8 2025.78 300.8V440.8C2058.19 440.8 2089.7 434.024 2118.64 418.817L2053.53 294.883ZM2020.83 430.9C2062.68 430.9 2101.22 414.055 2127.89 378.93L2016.38 294.27C2016.35 294.312 2016.67 293.891 2017.41 293.276C2018.18 292.646 2019.11 292.042 2020.12 291.563C2022.3 290.529 2023.05 290.9 2020.83 290.9V430.9ZM2127.89 378.93C2152.9 345.983 2160.58 305.631 2160.58 267.3H2020.58C2020.58 288.969 2015.97 294.817 2016.38 294.27L2127.89 378.93ZM2160.58 267.3C2160.58 228.537 2152.37 190.254 2130.8 157.118L2013.46 233.482C2016.5 238.146 2020.58 247.863 2020.58 267.3H2160.58ZM2131.08 157.54C2104.74 116.428 2062.99 96.5 2016.78 96.5V236.5C2018.39 236.5 2019 236.657 2018.85 236.622C2018.65 236.577 2017.86 236.369 2016.76 235.797C2015.64 235.215 2014.66 234.494 2013.91 233.791C2013.18 233.113 2012.99 232.747 2013.19 233.06L2131.08 157.54ZM2016.78 96.5C1999.79 96.5 1970.67 99.5068 1946.97 121.626L2042.5 223.974C2034.92 231.043 2027.3 234.11 2022.85 235.382C2018.59 236.601 2016.16 236.5 2016.78 236.5V96.5ZM1945.24 123.303C1920.36 148.18 1918.43 180.555 1918.43 195.75H2058.43C2058.43 194.174 2058.63 196.139 2057.51 200.218C2056.39 204.31 2053.13 213.403 2044.23 222.297L1945.24 123.303ZM1918.43 195.75V327.6H2058.43V195.75H1918.43ZM1918.43 327.6C1918.43 343.887 1920.42 373.58 1940.7 398.2L2048.77 309.2C2055.35 317.194 2057.46 324.443 2058.06 326.925C2058.68 329.532 2058.43 330.119 2058.43 327.6H1918.43ZM1943.67 401.576C1969.52 429.153 2005.03 430.9 2020.83 430.9V290.9C2018.22 290.9 2019.56 290.602 2023.25 291.621C2026.88 292.621 2036.55 295.957 2045.8 305.824L1943.67 401.576ZM2418.03 368.1L2421.36 298.179L2421.29 298.176L2421.21 298.172L2418.03 368.1ZM2366.28 368.1L2362.4 298.208L2362.29 298.214L2362.17 298.221L2366.28 368.1ZM2359.08 361.35L2393.08 422.541L2394.1 421.975L2395.1 421.375L2359.08 361.35ZM2355.93 331.2L2292.46 360.721L2292.55 360.906L2292.64 361.09L2355.93 331.2ZM2328.93 273.15L2392.4 243.629L2373.58 203.15H2328.93V273.15ZM2276.73 273.15V203.15H2230.31L2212.25 245.922L2276.73 273.15ZM2259.63 313.65L2323.97 341.224L2324.05 341.051L2324.12 340.878L2259.63 313.65ZM2259.18 359.1L2221.16 417.87L2222.41 418.68L2223.69 419.435L2259.18 359.1ZM2265.03 368.1L2270.4 298.306L2270.21 298.292L2270.02 298.278L2265.03 368.1ZM2215.08 368.1L2210.97 298.221L2210.7 298.237L2210.43 298.255L2215.08 368.1ZM2215.53 359.55L2245.5 422.812L2245.5 422.812L2215.53 359.55ZM2231.28 344.25L2173.4 304.888L2172.85 305.695L2172.32 306.516L2231.28 344.25ZM2248.83 309.6L2184.46 282.092L2184.42 282.209L2184.37 282.325L2248.83 309.6ZM2316.33 151.65L2253.72 120.345L2252.79 122.217L2251.96 124.142L2316.33 151.65ZM2321.73 151.65L2385.27 122.269L2384.82 121.3L2384.34 120.345L2321.73 151.65ZM2393.73 307.35L2330.2 336.731L2330.2 336.745L2330.21 336.759L2393.73 307.35ZM2412.18 343.35L2352.57 380.037L2353.07 380.854L2353.6 381.657L2412.18 343.35ZM2427.48 359.55L2391.99 419.885L2393.34 420.681L2394.73 421.415L2427.48 359.55ZM2281.68 261.45L2217.12 234.396L2176.45 331.45H2281.68V261.45ZM2323.53 261.45V331.45H2433.45L2386.97 231.848L2323.53 261.45ZM2301.48 214.2L2364.92 184.598L2298.04 41.2947L2236.92 187.146L2301.48 214.2ZM2446.38 433.6C2432.65 433.6 2410.78 428.87 2394.3 409.088C2379.85 391.751 2378.63 373.397 2378.63 366.3H2518.63C2518.63 357.403 2517.04 337.699 2501.85 319.462C2484.61 298.78 2461.62 293.6 2446.38 293.6V433.6ZM2378.63 366.3C2378.63 359.203 2379.85 340.849 2394.3 323.512C2410.78 303.73 2432.65 299 2446.38 299V439C2461.62 439 2484.61 433.82 2501.85 413.138C2517.04 394.901 2518.63 375.197 2518.63 366.3H2378.63ZM2446.38 299C2441.81 299 2433.72 298.768 2421.36 298.179L2414.7 438.021C2427.55 438.632 2438.36 439 2446.38 439V299ZM2421.21 298.172C2408.03 297.573 2397.3 297.2 2390.13 297.2V437.2C2393.77 437.2 2401.64 437.427 2414.85 438.028L2421.21 298.172ZM2390.13 297.2C2382.97 297.2 2373.4 297.597 2362.4 298.208L2370.17 437.992C2380.77 437.403 2387.09 437.2 2390.13 437.2V297.2ZM2362.17 298.221C2351.96 298.822 2346.61 299 2344.68 299V439C2351.16 439 2360.21 438.578 2370.39 437.979L2362.17 298.221ZM2344.68 299C2353.18 299 2364.01 300.624 2375.2 306.221C2386.69 311.964 2395.49 320.37 2401.58 329.496C2412.51 345.891 2412.88 361.633 2412.88 366.3H2272.88C2272.88 372.767 2273.56 389.859 2285.09 407.154C2299.96 429.458 2323.69 439 2344.68 439V299ZM2412.88 366.3C2412.88 370.967 2412.51 386.709 2401.58 403.104C2395.49 412.23 2386.69 420.636 2375.2 426.379C2364.01 431.976 2353.18 433.6 2344.68 433.6V293.6C2323.69 293.6 2299.96 303.142 2285.09 325.446C2273.56 342.741 2272.88 359.833 2272.88 366.3H2412.88ZM2344.68 433.6C2352.19 433.6 2373.26 433.549 2393.08 422.541L2325.09 300.159C2329.8 297.54 2333.88 296.088 2336.55 295.287C2339.29 294.466 2341.42 294.069 2342.65 293.877C2344.97 293.515 2345.89 293.6 2344.68 293.6V433.6ZM2395.1 421.375C2417.64 407.85 2433.58 383.336 2433.58 353.7H2293.58C2293.58 344.346 2295.84 333.283 2302.12 322.596C2308.3 312.096 2316.37 305.344 2323.07 301.325L2395.1 421.375ZM2433.58 353.7C2433.58 339.875 2429.91 328.16 2427.94 322.392C2425.51 315.221 2422.41 308.034 2419.23 301.31L2292.64 361.09C2293.55 363.021 2294.22 364.538 2294.7 365.68C2294.93 366.242 2295.1 366.676 2295.22 366.988C2295.28 367.142 2295.33 367.259 2295.35 367.339C2295.38 367.421 2295.4 367.46 2295.4 367.458C2295.4 367.457 2295.38 367.408 2295.35 367.313C2295.32 367.218 2295.27 367.067 2295.22 366.863C2295.1 366.474 2294.92 365.785 2294.71 364.838C2294.51 363.904 2294.24 362.527 2294.02 360.78C2293.8 359.059 2293.58 356.646 2293.58 353.7H2433.58ZM2419.4 301.679L2392.4 243.629L2265.46 302.671L2292.46 360.721L2419.4 301.679ZM2328.93 203.15H2276.73V343.15H2328.93V203.15ZM2212.25 245.922L2195.15 286.422L2324.12 340.878L2341.22 300.378L2212.25 245.922ZM2195.29 286.076C2188.92 300.937 2181.53 321.539 2181.53 343.35H2321.53C2321.53 345.849 2321.31 347.584 2321.18 348.361C2321.06 349.163 2320.97 349.387 2321.09 348.943C2321.21 348.516 2321.47 347.652 2321.95 346.304C2322.43 344.966 2323.09 343.281 2323.97 341.224L2195.29 286.076ZM2181.53 343.35C2181.53 369.192 2192.18 399.124 2221.16 417.87L2297.21 300.33C2304.93 305.326 2311.87 312.752 2316.41 322.104C2320.72 330.973 2321.53 338.778 2321.53 343.35H2181.53ZM2223.69 419.435C2245.2 432.085 2268.54 433.6 2283.03 433.6V293.6C2280.64 293.6 2280.5 293.415 2281.95 293.689C2283.2 293.924 2288.23 294.972 2294.67 298.765L2223.69 419.435ZM2283.03 433.6C2269.3 433.6 2247.43 428.87 2230.95 409.088C2216.5 391.751 2215.28 373.397 2215.28 366.3H2355.28C2355.28 357.403 2353.69 337.699 2338.5 319.462C2321.26 298.78 2298.27 293.6 2283.03 293.6V433.6ZM2215.28 366.3C2215.28 359.203 2216.5 340.849 2230.95 323.512C2247.43 303.73 2269.3 299 2283.03 299V439C2298.27 439 2321.26 433.82 2338.5 413.138C2353.69 394.901 2355.28 375.197 2355.28 366.3H2215.28ZM2283.03 299C2281.54 299 2277.66 298.864 2270.4 298.306L2259.66 437.894C2268.01 438.536 2276.12 439 2283.03 439V299ZM2270.02 298.278C2260.23 297.579 2250.75 297.2 2241.63 297.2V437.2C2246.92 437.2 2253.04 437.421 2260.05 437.922L2270.02 298.278ZM2241.63 297.2C2232.37 297.2 2222.09 297.567 2210.97 298.221L2219.19 437.979C2228.48 437.433 2235.89 437.2 2241.63 437.2V297.2ZM2210.43 298.255C2202.2 298.804 2196.56 299 2193.03 299V439C2200.91 439 2209.97 438.596 2219.74 437.945L2210.43 298.255ZM2193.03 299C2206.77 299 2228.64 303.73 2245.12 323.512C2259.57 340.849 2260.78 359.203 2260.78 366.3H2120.78C2120.78 375.197 2122.37 394.901 2137.57 413.138C2154.81 433.82 2177.8 439 2193.03 439V299ZM2260.78 366.3C2260.78 373.397 2259.57 391.751 2245.12 409.088C2228.64 428.87 2206.77 433.6 2193.03 433.6V293.6C2177.8 293.6 2154.81 298.78 2137.57 319.462C2122.37 337.699 2120.78 357.403 2120.78 366.3H2260.78ZM2193.03 433.6C2208.18 433.6 2227.07 431.544 2245.5 422.812L2185.57 296.288C2189.31 294.513 2192.12 293.895 2193.23 293.695C2194.35 293.493 2194.4 293.6 2193.03 293.6V433.6ZM2245.5 422.812C2267 412.629 2281.15 396.198 2290.24 381.984L2172.32 306.516C2171.82 307.302 2175.47 301.071 2185.57 296.288L2245.5 422.812ZM2289.17 383.612C2298.19 370.342 2306.17 353.739 2313.3 336.875L2184.37 282.325C2178.3 296.661 2174.58 303.158 2173.4 304.888L2289.17 383.612ZM2313.2 337.108L2380.7 179.158L2251.96 124.142L2184.46 282.092L2313.2 337.108ZM2378.94 182.955C2375.09 190.659 2368.14 200.643 2356.29 208.544C2344 216.737 2330.68 219.85 2319.03 219.85V79.85C2306.18 79.85 2291.82 83.2634 2278.63 92.0565C2265.88 100.557 2258.18 111.441 2253.72 120.345L2378.94 182.955ZM2319.03 219.85C2307.38 219.85 2294.07 216.737 2281.78 208.543C2269.93 200.642 2262.98 190.659 2259.12 182.955L2384.34 120.345C2379.89 111.441 2372.19 100.558 2359.44 92.0566C2346.25 83.2634 2331.88 79.85 2319.03 79.85V219.85ZM2258.2 181.031L2330.2 336.731L2457.27 277.969L2385.27 122.269L2258.2 181.031ZM2330.21 336.759C2338 353.586 2345.54 368.619 2352.57 380.037L2471.8 306.663C2469.23 302.481 2464.47 293.514 2457.26 277.941L2330.21 336.759ZM2353.6 381.657C2361.55 393.824 2373.77 409.165 2391.99 419.885L2462.97 299.215C2467.34 301.784 2469.84 304.255 2470.72 305.186C2471.64 306.151 2471.6 306.303 2470.77 305.043L2353.6 381.657ZM2394.73 421.415C2412.49 430.818 2430.78 433.6 2446.38 433.6V293.6C2446.99 293.6 2452.67 293.682 2460.24 297.685L2394.73 421.415ZM2281.68 331.45H2323.53V191.45H2281.68V331.45ZM2386.97 231.848L2364.92 184.598L2238.05 243.802L2260.1 291.052L2386.97 231.848ZM2236.92 187.146L2217.12 234.396L2346.24 288.504L2366.04 241.254L2236.92 187.146ZM2647.38 342L2588.24 379.454L2588.47 379.803L2588.69 380.149L2647.38 342ZM2606.43 267.75L2668.92 236.207L2646.28 191.347L2596.53 198.454L2606.43 267.75ZM2579.88 269.1V199.1H2509.88V269.1H2579.88ZM2581.68 352.8L2514.38 372.03L2515 374.209L2515.76 376.344L2581.68 352.8ZM2589.33 361.35L2562.41 425.965L2563.3 426.337L2564.2 426.684L2589.33 361.35ZM2586.63 368.55L2590.74 298.671L2589.2 298.58L2587.66 298.558L2586.63 368.55ZM2556.03 368.1L2557.06 298.108L2556.01 298.092L2554.96 298.108L2556.03 368.1ZM2526.78 368.55L2525.71 298.558L2524.3 298.58L2522.9 298.658L2526.78 368.55ZM2522.73 361.35L2497.6 296.016L2497.6 296.016L2522.73 361.35ZM2530.83 352.8L2596.75 376.344L2597 375.642L2597.24 374.936L2530.83 352.8ZM2530.83 175.05L2463.53 194.28L2464.15 196.459L2464.91 198.594L2530.83 175.05ZM2523.18 166.5L2493.85 230.057L2495.92 231.014L2498.05 231.834L2523.18 166.5ZM2505.18 158.4L2506.61 88.4146L2505.9 88.4H2505.18V158.4ZM2527.23 158.85L2530.73 88.9373L2529.69 88.8857L2528.66 88.8646L2527.23 158.85ZM2584.38 158.4L2590.2 228.158L2590.46 228.136L2590.72 228.113L2584.38 158.4ZM2665.83 168.3L2629.39 228.066L2629.39 228.066L2665.83 168.3ZM2673.03 233.1L2728.83 275.37L2728.83 275.37L2673.03 233.1ZM2641.98 257.4L2611.83 194.226L2542.68 227.229L2581.78 293.122L2641.98 257.4ZM2683.83 321.3L2739.44 278.778L2739.44 278.778L2683.83 321.3ZM2715.78 354.15L2676.13 411.833L2676.75 412.26L2677.38 412.673L2715.78 354.15ZM2579.88 260.1H2509.88V320.811L2569.98 329.396L2579.88 260.1ZM2626.23 248.85L2679.67 294.066L2680.09 293.57L2680.5 293.067L2626.23 248.85ZM2587.98 168.3L2619.29 230.91L2619.29 230.91L2587.98 168.3ZM2581.68 176.85L2648.59 197.436L2648.79 196.76L2648.99 196.081L2581.68 176.85ZM2745.48 433.6C2733.46 433.6 2719.81 430.393 2707.24 422.012C2695.11 413.923 2687.92 403.659 2683.88 395.58C2676.8 381.402 2676.83 368.975 2676.83 366.3H2816.83C2816.83 361.825 2816.64 348.048 2809.1 332.97C2804.84 324.441 2797.37 313.839 2784.9 305.525C2771.99 296.92 2757.96 293.6 2745.48 293.6V433.6ZM2676.83 366.3C2676.83 363.625 2676.8 351.198 2683.88 337.02C2687.92 328.941 2695.11 318.677 2707.24 310.588C2719.81 302.207 2733.46 299 2745.48 299V439C2757.96 439 2771.99 435.68 2784.9 427.075C2797.37 418.761 2804.84 408.159 2809.1 399.63C2816.64 384.552 2816.83 370.775 2816.83 366.3H2676.83ZM2745.48 299H2671.68V439H2745.48V299ZM2671.68 299C2682.68 299 2691.33 301.706 2696.75 303.963C2702.21 306.237 2706.11 308.773 2708.32 310.351C2710.63 312.002 2712.2 313.403 2712.98 314.136C2713.8 314.908 2714.23 315.392 2714.26 315.422C2714.31 315.472 2714.12 315.264 2713.69 314.724C2713.26 314.194 2712.68 313.437 2711.93 312.417C2710.41 310.349 2708.47 307.538 2706.07 303.851L2588.69 380.149C2595.26 390.258 2602.53 400.555 2610.2 409.078C2613.95 413.246 2619.6 419.026 2626.95 424.274C2632.76 428.425 2648.77 439 2671.68 439V299ZM2706.52 304.546C2696.86 289.292 2684.37 266.809 2668.92 236.207L2543.94 299.293C2560.3 331.691 2575.11 358.708 2588.24 379.454L2706.52 304.546ZM2596.53 198.454C2593.48 198.89 2590.49 199.1 2587.53 199.1V339.1C2597.18 339.1 2606.79 338.41 2616.33 337.046L2596.53 198.454ZM2587.53 199.1H2579.88V339.1H2587.53V199.1ZM2509.88 269.1V332.55H2649.88V269.1H2509.88ZM2509.88 332.55C2509.88 342.74 2510.32 357.827 2514.38 372.03L2648.99 333.57C2649.3 334.669 2649.52 335.58 2649.67 336.257C2649.82 336.94 2649.91 337.469 2649.97 337.817C2650.08 338.483 2650.09 338.712 2650.06 338.39C2650.03 338.088 2649.98 337.453 2649.95 336.432C2649.91 335.42 2649.88 334.136 2649.88 332.55H2509.88ZM2515.76 376.344C2522.84 396.176 2537.91 415.757 2562.41 425.965L2616.26 296.735C2623.91 299.923 2631.05 304.889 2636.89 311.412C2642.57 317.759 2645.81 324.226 2647.6 329.256L2515.76 376.344ZM2564.2 426.684C2580.71 433.033 2597.68 433.6 2607.78 433.6V293.6C2605.49 293.6 2604.82 293.488 2605.34 293.552C2605.65 293.59 2606.58 293.713 2607.97 294.025C2609.33 294.329 2611.6 294.916 2614.46 296.016L2564.2 426.684ZM2607.78 433.6C2588.15 433.6 2570.81 425.398 2558.68 413.266C2548.27 402.854 2543.86 391.853 2542.05 386.411C2538.55 375.917 2538.68 367.443 2538.68 366.3H2678.68C2678.68 363.357 2678.66 353.533 2674.87 342.139C2671.67 332.544 2654.58 293.6 2607.78 293.6V433.6ZM2538.68 366.3C2538.68 365.157 2538.55 356.683 2542.05 346.189C2543.86 340.747 2548.27 329.746 2558.68 319.334C2570.81 307.202 2588.15 299 2607.78 299V439C2654.58 439 2671.67 400.056 2674.87 390.461C2678.66 379.067 2678.68 369.243 2678.68 366.3H2538.68ZM2607.78 299C2599.29 299 2593.82 298.852 2590.74 298.671L2582.52 438.429C2589.64 438.848 2598.27 439 2607.78 439V299ZM2587.66 298.558L2557.06 298.108L2555 438.092L2585.6 438.542L2587.66 298.558ZM2554.96 298.108L2525.71 298.558L2527.86 438.542L2557.11 438.092L2554.96 298.108ZM2522.9 298.658C2519.41 298.851 2513.41 299 2504.28 299V439C2514.35 439 2523.35 438.849 2530.67 438.442L2522.9 298.658ZM2504.28 299C2523.91 299 2541.25 307.202 2553.39 319.334C2563.8 329.746 2568.2 340.747 2570.02 346.189C2573.51 356.683 2573.38 365.157 2573.38 366.3H2433.38C2433.38 369.243 2433.4 379.067 2437.2 390.461C2440.4 400.056 2457.48 439 2504.28 439V299ZM2573.38 366.3C2573.38 367.443 2573.51 375.917 2570.02 386.411C2568.2 391.853 2563.8 402.854 2553.39 413.266C2541.25 425.398 2523.91 433.6 2504.28 433.6V293.6C2457.48 293.6 2440.4 332.544 2437.2 342.139C2433.4 353.533 2433.38 363.357 2433.38 366.3H2573.38ZM2504.28 433.6C2514.38 433.6 2531.36 433.032 2547.86 426.684L2497.6 296.016C2500.46 294.916 2502.74 294.329 2504.09 294.025C2505.49 293.713 2506.41 293.59 2506.72 293.552C2507.24 293.488 2506.57 293.6 2504.28 293.6V433.6ZM2547.86 426.684C2572.21 417.32 2588.92 398.283 2596.75 376.344L2464.91 329.256C2466.99 323.44 2470.67 316.481 2476.87 309.945C2483.15 303.315 2490.46 298.765 2497.6 296.016L2547.86 426.684ZM2597.24 374.936C2602.39 359.492 2603.08 343.593 2603.08 332.55H2463.08C2463.08 333.841 2463.06 334.831 2463.02 335.549C2463 335.903 2462.99 336.17 2462.97 336.357C2462.96 336.544 2462.95 336.634 2462.95 336.632C2462.95 336.632 2462.96 336.518 2462.99 336.302C2463.03 336.087 2463.08 335.739 2463.18 335.275C2463.35 334.402 2463.72 332.791 2464.42 330.664L2597.24 374.936ZM2603.08 332.55V194.85H2463.08V332.55H2603.08ZM2603.08 194.85C2603.08 184.282 2602.5 167.589 2596.75 151.506L2464.91 198.594C2463.99 196.009 2463.52 194.018 2463.29 192.927C2463.05 191.796 2462.98 191.127 2462.97 191.054C2462.96 190.96 2462.99 191.224 2463.02 191.911C2463.05 192.589 2463.08 193.556 2463.08 194.85H2603.08ZM2598.14 155.82C2591.22 131.603 2573.79 110.967 2548.31 101.166L2498.05 231.834C2490.62 228.974 2482.65 224.037 2475.85 216.438C2469.13 208.925 2465.42 200.905 2463.53 194.28L2598.14 155.82ZM2552.52 102.943C2534.48 94.6176 2516 93.8 2505.18 93.8V233.8C2506.83 233.8 2506.73 233.904 2505.37 233.701C2504.64 233.59 2503.28 233.351 2501.45 232.852C2499.64 232.359 2497 231.51 2493.85 230.057L2552.52 102.943ZM2505.18 93.8C2517.21 93.8 2530.85 97.0071 2543.42 105.388C2555.55 113.476 2562.74 123.741 2566.78 131.82C2573.87 145.997 2573.83 158.425 2573.83 161.1H2433.83C2433.83 165.575 2434.02 179.353 2441.56 194.43C2445.82 202.959 2453.29 213.561 2465.76 221.875C2478.67 230.48 2492.71 233.8 2505.18 233.8V93.8ZM2573.83 161.1C2573.83 163.775 2573.87 176.203 2566.78 190.38C2562.74 198.459 2555.55 208.724 2543.42 216.812C2530.85 225.193 2517.21 228.4 2505.18 228.4V88.4C2492.71 88.4 2478.67 91.7196 2465.76 100.325C2453.29 108.639 2445.82 119.241 2441.56 127.77C2434.02 142.847 2433.83 156.625 2433.83 161.1H2573.83ZM2503.75 228.385L2525.8 228.835L2528.66 88.8646L2506.61 88.4146L2503.75 228.385ZM2523.74 228.763C2536.24 229.388 2547.16 229.75 2556.03 229.75V89.75C2550.51 89.75 2542.22 89.512 2530.73 88.9373L2523.74 228.763ZM2556.03 229.75C2562.93 229.75 2569.66 229.569 2576.15 229.164L2567.42 89.4363C2564.31 89.6307 2560.53 89.75 2556.03 89.75V229.75ZM2576.15 229.164C2581.28 228.843 2585.99 228.509 2590.2 228.158L2578.57 88.6418C2575.58 88.891 2571.88 89.1573 2567.42 89.4363L2576.15 229.164ZM2590.72 228.113C2598.8 227.378 2605.97 227.05 2612.28 227.05V87.05C2601.19 87.05 2589.76 87.6223 2578.04 88.6875L2590.72 228.113ZM2612.28 227.05C2620.43 227.05 2625.74 227.719 2628.83 228.367C2631.94 229.021 2631.58 229.398 2629.39 228.066L2702.27 108.534C2674.14 91.3763 2641.31 87.05 2612.28 87.05V227.05ZM2629.39 228.066C2627.04 226.632 2622.51 223.106 2618.84 216.664C2615.13 210.153 2614.28 204.135 2614.28 200.7H2754.28C2754.28 161.548 2734.86 128.404 2702.27 108.534L2629.39 228.066ZM2614.28 200.7C2614.28 198.92 2614.59 196.771 2615.34 194.614C2616.08 192.502 2616.93 191.23 2617.24 190.83L2728.83 275.37C2744.94 254.104 2754.28 228.635 2754.28 200.7H2614.28ZM2617.24 190.83C2617.34 190.695 2617.2 190.93 2616.5 191.475C2615.77 192.045 2614.33 193.033 2611.83 194.226L2672.13 320.574C2693.64 310.309 2713.47 295.644 2728.83 275.37L2617.24 190.83ZM2581.78 293.122C2598.61 321.48 2614.15 345.41 2628.23 363.822L2739.44 278.778C2730.12 266.59 2717.75 247.92 2702.18 221.678L2581.78 293.122ZM2628.23 363.822C2641.89 381.683 2657.77 399.213 2676.13 411.833L2755.44 296.467C2755.48 296.495 2755.08 296.218 2754.23 295.486C2753.39 294.76 2752.24 293.687 2750.77 292.182C2747.8 289.126 2744.02 284.767 2739.44 278.778L2628.23 363.822ZM2677.38 412.673C2696.9 425.488 2719.96 433.6 2745.48 433.6V293.6C2747.72 293.6 2749.85 293.965 2751.63 294.533C2753.35 295.081 2754.21 295.644 2754.19 295.627L2677.38 412.673ZM2569.98 329.396C2577.52 330.473 2585.58 330.55 2590.68 330.55V190.55C2589.74 190.55 2588.97 190.543 2588.35 190.532C2587.71 190.521 2587.3 190.508 2587.07 190.498C2586.83 190.488 2586.91 190.487 2587.25 190.514C2587.43 190.528 2587.73 190.554 2588.12 190.596C2588.51 190.637 2589.08 190.703 2589.78 190.804L2569.98 329.396ZM2590.68 330.55C2614.93 330.55 2653.02 325.555 2679.67 294.066L2572.8 203.634C2579.52 195.688 2586.87 192.331 2590.51 191.133C2593.72 190.077 2594.35 190.55 2590.68 190.55V330.55ZM2680.5 293.067C2701.4 267.422 2706.13 236.835 2706.13 212.85H2566.13C2566.13 216.172 2565.76 216.664 2566.16 215.214C2566.61 213.6 2568.06 209.423 2571.97 204.633L2680.5 293.067ZM2706.13 212.85C2706.13 190.797 2702.47 161.592 2684.1 136.449C2662.74 107.217 2631.1 96.05 2601.93 96.05V236.05C2599.7 236.05 2594.42 235.661 2587.84 232.662C2580.88 229.486 2575.09 224.562 2571.06 219.051C2564.09 209.508 2566.13 203.703 2566.13 212.85H2706.13ZM2601.93 96.05C2592.71 96.05 2574.62 96.7183 2556.68 105.69L2619.29 230.91C2612.45 234.33 2606.95 235.383 2604.87 235.719C2602.51 236.099 2601.35 236.05 2601.93 236.05V96.05ZM2556.68 105.69C2531.21 118.422 2519.24 140.578 2514.38 157.619L2648.99 196.081C2646.52 204.722 2638.75 221.178 2619.29 230.91L2556.68 105.69ZM2514.78 156.264C2510.29 170.845 2509.88 186.119 2509.88 195.75H2649.88C2649.88 194.365 2649.91 193.283 2649.94 192.473C2649.97 191.652 2650.01 191.226 2650.02 191.137C2650.03 191.025 2649.99 191.485 2649.83 192.39C2649.75 192.859 2649.62 193.516 2649.43 194.331C2649.24 195.141 2648.97 196.192 2648.59 197.436L2514.78 156.264ZM2509.88 195.75V260.1H2649.88V195.75H2509.88Z" fill="#FFF2F2"/>
</g>
<defs>
<filter id="filter0_f" x="0.124023" y="0.699951" width="2820.71" height="448.15" filterUnits="userSpaceOnUse" color-interpolation-filters="sRGB">
<feFlood flood-opacity="0" result="BackgroundImageFix"/>
<feBlend mode="normal" in="SourceGraphic" in2="BackgroundImageFix" result="shape"/>
<feGaussianBlur stdDeviation="2" result="effect1_foregroundBlur"/>
</filter>
</defs>
</svg>
