<svg width="959" height="304" viewBox="0 0 959 304" fill="none" xmlns="http://www.w3.org/2000/svg">
<rect width="959" height="304" fill="black"/>
<path d="M38.104 5.944L79.576 8.24798C98.008 8.24798 111.256 6.03998 119.32 1.62398C120.472 0.855993 121.432 0.471998 122.2 0.471998C123.16 0.471998 123.64 1.816 123.64 4.504C123.64 7.192 122.008 11.608 118.744 17.752C113.944 27.16 107.032 31.864 98.008 31.864L82.168 31.576C80.632 31.576 79.672 32.44 79.288 34.168C77.944 62.392 77.272 92.92 77.272 125.752C77.272 158.392 78.616 182.968 81.304 199.48V200.92C81.304 205.72 76.696 209.56 67.48 212.44C58.456 215.32 49.912 216.76 41.848 216.76C38.008 216.76 36.088 215.704 36.088 213.592C36.088 213.016 36.376 211.672 36.952 209.56C39.064 205.336 40.888 184.888 42.424 148.216C44.152 111.544 45.016 83.896 45.016 65.272L44.44 33.88C44.44 32.728 43.864 32.056 42.712 31.864C38.68 31.096 34.072 30.712 28.888 30.712C18.52 30.712 10.84 32.824 5.848 37.048C4.504 38.008 3.256 38.488 2.104 38.488C0.76 38.488 0.0879999 37.72 0.0879999 36.184C0.0879999 33.88 1.336 30.712 3.832 26.68C6.136 22.648 8.632 19.192 11.32 16.312C17.848 9.39999 26.776 5.944 38.104 5.944ZM215.467 82.84C212.011 103.576 210.283 129.976 210.283 162.04C210.283 185.656 211.243 201.208 213.163 208.696L214.315 212.44C214.315 214.936 212.203 216.184 207.979 216.184C193.195 216.184 184.747 212.056 182.635 203.8C182.443 202.84 181.963 202.36 181.195 202.36C180.619 202.36 180.043 202.744 179.467 203.512C173.515 211.384 164.299 215.32 151.819 215.32C144.907 215.32 137.707 213.592 130.219 210.136C125.611 208.024 121.867 204.376 118.987 199.192C116.107 193.816 114.667 187.288 114.667 179.608L118.987 116.536C118.987 103.288 117.643 93.88 114.955 88.312C113.995 86.2 113.515 84.856 113.515 84.28C113.515 83.128 113.995 82.36 114.955 81.976C118.027 81.016 121.963 80.536 126.763 80.536C145.387 80.536 154.699 88.216 154.699 103.576C154.699 108.376 152.683 119.32 148.651 136.408C144.811 153.496 142.891 165.688 142.891 172.984C142.891 180.088 144.427 185.56 147.499 189.4C150.763 193.24 155.179 195.16 160.747 195.16C166.507 195.16 171.019 193.144 174.283 189.112C177.547 185.08 179.467 181.048 180.043 177.016L180.907 170.968C181.675 164.248 182.059 152.44 182.059 135.544C182.059 118.648 181.483 107.992 180.331 103.576C179.371 98.968 178.891 96.088 178.891 94.936C178.891 90.136 182.731 86.392 190.411 83.704C198.091 80.824 205.003 79.384 211.147 79.384C214.027 79.384 215.467 80.536 215.467 82.84ZM225.07 98.68L225.934 87.16C226.126 85.432 227.47 84.568 229.966 84.568H240.046L238.894 61.528V60.376C238.894 55.96 242.254 51.736 248.974 47.704C255.694 43.672 261.838 41.656 267.406 41.656C269.134 41.656 269.998 42.424 269.998 43.96V44.248C269.23 49.432 268.462 62.776 267.694 84.28C276.142 84.28 281.518 84.088 283.822 83.704C286.126 83.32 287.374 83.128 287.566 83.128C288.91 83.128 289.582 84.28 289.582 86.584C289.582 88.888 288.526 91.864 286.414 95.512C284.302 98.968 281.998 100.792 279.502 100.984H267.406C267.214 107.512 267.118 118.552 267.118 134.104C267.118 149.464 267.214 162.136 267.406 172.12C267.79 182.104 268.174 189.688 268.558 194.872C268.942 199.864 269.326 203.896 269.71 206.968C270.286 210.04 270.67 212.248 270.862 213.592C271.246 214.936 271.438 215.8 271.438 216.184C271.438 218.104 270.19 219.16 267.694 219.352C260.206 219.352 252.718 218.296 245.23 216.184C237.934 214.072 234.286 210.424 234.286 205.24C238.318 172.984 240.334 138.328 240.334 101.272C235.15 101.272 231.214 101.464 228.526 101.848H228.238C226.51 101.848 225.454 100.792 225.07 98.68ZM322.02 102.424C317.028 102.616 313.38 102.808 311.076 103C308.964 103 307.908 102.424 307.908 101.272C307.908 100.12 308.484 98.968 309.636 97.816C321.924 86.488 342.66 80.824 371.844 80.824C381.828 80.824 389.7 81.688 395.46 83.416L398.34 84.28C400.644 85.24 401.796 86.296 401.796 87.448C401.796 88.408 401.124 89.176 399.78 89.752C394.596 91.288 389.604 93.784 384.804 97.24C380.004 100.504 377.604 102.808 377.604 104.152L379.332 106.168C385.476 109.624 390.18 115.096 393.444 122.584C396.9 130.072 398.82 136.696 399.204 142.456L399.78 151.384C399.78 170.392 394.5 186.04 383.94 198.328C373.38 210.616 358.98 216.76 340.74 216.76C331.524 216.76 323.556 215.128 316.836 211.864C310.116 208.6 305.124 204.952 301.86 200.92C298.788 196.696 296.292 191.992 294.372 186.808C292.068 179.704 290.916 172.408 290.916 164.92C290.916 157.24 292.164 149.56 294.66 141.88C297.348 134.2 300.324 128.536 303.588 124.888C307.044 121.24 310.884 118.264 315.108 115.96C320.484 113.08 324.804 111.64 328.068 111.64C331.332 111.64 332.964 112.312 332.964 113.656L331.236 116.536C327.012 121.528 323.94 128.056 322.02 136.12C320.292 144.184 319.428 151.384 319.428 157.72C319.428 163.864 320.196 170.008 321.732 176.152C323.268 182.296 324.996 186.904 326.916 189.976C328.836 192.856 331.044 195.064 333.54 196.6C337.188 198.904 341.028 200.056 345.06 200.056C349.092 200.056 353.028 198.52 356.868 195.448C360.708 192.184 363.492 187.96 365.22 182.776C368.676 173.176 370.404 163.288 370.404 153.112C370.404 136.984 366.276 124.504 358.02 115.672C349.956 106.84 337.956 102.424 322.02 102.424ZM499.761 133.816L500.913 143.896C500.913 147.544 497.457 149.368 490.545 149.368C476.529 149.368 469.521 144.088 469.521 133.528C469.521 131.032 470.193 127.576 471.537 123.16C472.881 118.744 473.553 114.904 473.553 111.64C473.553 108.376 472.593 105.592 470.673 103.288C468.753 100.792 465.969 99.544 462.321 99.544C458.673 99.544 455.505 100.888 452.817 103.576C450.321 106.072 448.785 108.664 448.209 111.352L447.057 115.384C445.905 121.336 445.329 131.32 445.329 145.336C445.329 159.16 445.521 170.104 445.905 178.168C446.289 186.04 446.673 191.512 447.057 194.584C447.441 197.464 447.633 199.192 447.633 199.768C447.633 204.568 444.657 208.408 438.705 211.288C432.753 214.36 426.801 215.896 420.849 215.896C414.897 215.896 411.921 214.648 411.921 212.152L413.361 203.224C416.049 186.52 417.393 164.728 417.393 137.848C417.393 110.968 416.433 92.728 414.513 83.128C414.513 80.824 416.529 79.672 420.561 79.672C430.929 79.672 437.841 83.224 441.297 90.328C441.489 91.096 441.777 91.48 442.161 91.48C442.737 91.48 444.081 90.616 446.193 88.888C452.529 83.704 460.017 81.112 468.657 81.112C474.033 81.112 479.409 82.168 484.785 84.28C495.729 88.696 501.201 97.912 501.201 111.928L499.761 133.816ZM603.738 124.6L603.162 161.464C603.162 187 605.946 202.36 611.514 207.544C612.282 208.312 612.666 209.176 612.666 210.136C612.666 213.016 606.426 214.456 593.946 214.456C581.658 214.456 575.13 210.808 574.362 203.512C574.17 201.784 574.074 198.232 574.074 192.856L575.226 146.776C575.226 145.432 574.458 144.76 572.922 144.76C563.706 144.76 555.066 147.352 547.002 152.536C538.938 157.72 534.906 164.344 534.906 172.408C534.906 176.632 536.058 180.184 538.362 183.064C540.666 185.944 543.45 187.384 546.714 187.384C550.17 187.384 552.954 186.712 555.066 185.368C557.37 184.024 558.714 183.256 559.098 183.064C562.362 183.448 563.994 186.904 563.994 193.432C563.994 199.768 561.018 204.952 555.066 208.984C549.114 212.824 542.874 214.744 536.346 214.744C529.818 214.744 524.154 213.592 519.354 211.288C514.746 208.984 511.386 206.392 509.274 203.512C507.162 200.632 505.434 197.368 504.09 193.72C502.746 189.304 502.074 185.464 502.074 182.2C502.074 168.76 506.298 158.008 514.746 149.944C523.194 141.88 534.042 136.12 547.29 132.664C564.762 129.208 573.882 126.04 574.65 123.16C575.226 121.048 575.514 117.496 575.514 112.504C575.514 102.328 570.33 97.24 559.962 97.24C555.546 97.24 551.61 98.68 548.154 101.56C544.698 104.248 542.97 107.704 542.97 111.928L544.698 118.84C544.314 122.104 540.858 124.024 534.33 124.6L531.162 124.888C525.402 124.888 520.794 123.448 517.338 120.568C514.074 117.688 512.442 113.848 512.442 109.048C512.442 105.976 513.402 102.616 515.322 98.968C517.434 95.128 520.026 92.056 523.098 89.752C526.17 87.448 530.874 85.432 537.21 83.704C543.738 81.784 549.978 80.824 555.93 80.824C561.882 80.824 566.49 81.016 569.754 81.4C573.018 81.784 577.434 82.744 583.002 84.28C588.762 85.624 593.466 88.312 597.114 92.344C600.954 96.376 602.97 100.696 603.162 105.304C603.546 109.72 603.738 116.152 603.738 124.6ZM678.771 81.688C682.227 81.688 685.299 82.168 687.987 83.128C690.867 83.896 692.403 84.28 692.595 84.28L694.323 82.84L693.171 51.448C692.787 46.072 691.635 41.464 689.715 37.624C687.795 33.784 686.067 31.288 684.531 30.136L681.939 28.696C680.787 27.928 680.211 27.064 680.211 26.104C680.211 23.224 684.627 19.864 693.459 16.024C702.483 12.184 709.491 10.264 714.483 10.264C719.475 10.264 722.163 11.32 722.547 13.432C723.507 19.96 723.987 32.44 723.987 50.872C723.987 69.112 723.507 87.064 722.547 104.728C721.779 122.392 721.395 142.456 721.395 164.92C721.395 187.192 722.835 201.208 725.715 206.968C726.483 208.312 726.867 209.56 726.867 210.712C726.867 213.592 722.739 215.032 714.483 215.032C698.739 215.032 690.867 211.288 690.867 203.8C690.483 200.728 690.291 196.024 690.291 189.688C690.291 183.16 690.867 171.16 692.019 153.688C693.363 136.024 694.035 122.488 694.035 113.08C694.035 103.48 689.235 98.68 679.635 98.68C670.227 98.68 663.027 104.248 658.035 115.384C653.043 126.52 650.547 137.656 650.547 148.792C650.547 172.408 656.499 184.216 668.403 184.216C670.131 184.216 671.763 183.928 673.299 183.352C675.027 182.584 676.083 182.2 676.467 182.2C678.003 182.2 679.155 183.16 679.923 185.08C680.883 187 681.363 188.92 681.363 190.84C681.363 197.368 678.771 202.936 673.587 207.544C668.403 211.96 662.067 214.168 654.579 214.168C643.059 214.168 634.323 209.176 628.371 199.192C622.611 189.016 619.731 176.44 619.731 161.464C619.731 142.456 624.243 124.792 633.267 108.472C637.875 100.408 644.115 93.976 651.987 89.176C659.859 84.184 668.787 81.688 678.771 81.688ZM836.051 124.6L835.475 161.464C835.475 187 838.259 202.36 843.827 207.544C844.595 208.312 844.979 209.176 844.979 210.136C844.979 213.016 838.739 214.456 826.259 214.456C813.971 214.456 807.443 210.808 806.675 203.512C806.483 201.784 806.387 198.232 806.387 192.856L807.539 146.776C807.539 145.432 806.771 144.76 805.235 144.76C796.019 144.76 787.379 147.352 779.315 152.536C771.251 157.72 767.219 164.344 767.219 172.408C767.219 176.632 768.371 180.184 770.675 183.064C772.979 185.944 775.763 187.384 779.027 187.384C782.483 187.384 785.267 186.712 787.379 185.368C789.683 184.024 791.027 183.256 791.411 183.064C794.675 183.448 796.307 186.904 796.307 193.432C796.307 199.768 793.331 204.952 787.379 208.984C781.427 212.824 775.187 214.744 768.659 214.744C762.131 214.744 756.467 213.592 751.667 211.288C747.059 208.984 743.699 206.392 741.587 203.512C739.475 200.632 737.747 197.368 736.403 193.72C735.059 189.304 734.387 185.464 734.387 182.2C734.387 168.76 738.611 158.008 747.059 149.944C755.507 141.88 766.355 136.12 779.603 132.664C797.075 129.208 806.195 126.04 806.963 123.16C807.539 121.048 807.827 117.496 807.827 112.504C807.827 102.328 802.643 97.24 792.275 97.24C787.859 97.24 783.923 98.68 780.467 101.56C777.011 104.248 775.283 107.704 775.283 111.928L777.011 118.84C776.627 122.104 773.171 124.024 766.643 124.6L763.475 124.888C757.715 124.888 753.107 123.448 749.651 120.568C746.387 117.688 744.755 113.848 744.755 109.048C744.755 105.976 745.715 102.616 747.635 98.968C749.747 95.128 752.339 92.056 755.411 89.752C758.483 87.448 763.187 85.432 769.523 83.704C776.051 81.784 782.291 80.824 788.243 80.824C794.195 80.824 798.803 81.016 802.067 81.4C805.331 81.784 809.747 82.744 815.315 84.28C821.075 85.624 825.779 88.312 829.427 92.344C833.267 96.376 835.283 100.696 835.475 105.304C835.859 109.72 836.051 116.152 836.051 124.6ZM941.324 133.816L942.476 143.896C942.476 147.544 939.02 149.368 932.108 149.368C918.092 149.368 911.084 144.088 911.084 133.528C911.084 131.032 911.756 127.576 913.1 123.16C914.444 118.744 915.116 114.904 915.116 111.64C915.116 108.376 914.156 105.592 912.236 103.288C910.316 100.792 907.532 99.544 903.884 99.544C900.236 99.544 897.068 100.888 894.38 103.576C891.884 106.072 890.348 108.664 889.772 111.352L888.62 115.384C887.468 121.336 886.892 131.32 886.892 145.336C886.892 159.16 887.084 170.104 887.468 178.168C887.852 186.04 888.236 191.512 888.62 194.584C889.004 197.464 889.196 199.192 889.196 199.768C889.196 204.568 886.22 208.408 880.268 211.288C874.316 214.36 868.364 215.896 862.412 215.896C856.46 215.896 853.484 214.648 853.484 212.152L854.924 203.224C857.612 186.52 858.956 164.728 858.956 137.848C858.956 110.968 857.996 92.728 856.076 83.128C856.076 80.824 858.092 79.672 862.124 79.672C872.492 79.672 879.404 83.224 882.86 90.328C883.052 91.096 883.34 91.48 883.724 91.48C884.3 91.48 885.644 90.616 887.756 88.888C894.092 83.704 901.58 81.112 910.22 81.112C915.596 81.112 920.972 82.168 926.348 84.28C937.292 88.696 942.764 97.912 942.764 111.928L941.324 133.816Z" fill="white"/>
<path d="M945.997 294.352C946.81 204.051 72.6311 288.747 73.0005 247.658" stroke="white" stroke-width="25"/>
</svg>
