<svg width="1151" height="354" viewBox="0 0 1151 354" fill="none" xmlns="http://www.w3.org/2000/svg">
<g filter="url(#filter0_i)">
<path d="M38.104 55.944L79.576 58.248C98.008 58.248 111.256 56.04 119.32 51.624C120.472 50.856 121.432 50.472 122.2 50.472C123.16 50.472 123.64 51.816 123.64 54.504C123.64 57.192 122.008 61.608 118.744 67.752C113.944 77.16 107.032 81.864 98.008 81.864L82.168 81.576C80.632 81.576 79.672 82.44 79.288 84.168C77.944 112.392 77.272 142.92 77.272 175.752C77.272 208.392 78.616 232.968 81.304 249.48V250.92C81.304 255.72 76.696 259.56 67.48 262.44C58.456 265.32 49.912 266.76 41.848 266.76C38.008 266.76 36.088 265.704 36.088 263.592C36.088 263.016 36.376 261.672 36.952 259.56C39.064 255.336 40.888 234.888 42.424 198.216C44.152 161.544 45.016 133.896 45.016 115.272L44.44 83.88C44.44 82.728 43.864 82.056 42.712 81.864C38.68 81.096 34.072 80.712 28.888 80.712C18.52 80.712 10.84 82.824 5.848 87.048C4.504 88.008 3.256 88.488 2.104 88.488C0.76 88.488 0.0879999 87.72 0.0879999 86.184C0.0879999 83.88 1.336 80.712 3.832 76.68C6.136 72.648 8.632 69.192 11.32 66.312C17.848 59.4 26.776 55.944 38.104 55.944ZM215.467 132.84C212.011 153.576 210.283 179.976 210.283 212.04C210.283 235.656 211.243 251.208 213.163 258.696L214.315 262.44C214.315 264.936 212.203 266.184 207.979 266.184C193.195 266.184 184.747 262.056 182.635 253.8C182.443 252.84 181.963 252.36 181.195 252.36C180.619 252.36 180.043 252.744 179.467 253.512C173.515 261.384 164.299 265.32 151.819 265.32C144.907 265.32 137.707 263.592 130.219 260.136C125.611 258.024 121.867 254.376 118.987 249.192C116.107 243.816 114.667 237.288 114.667 229.608L118.987 166.536C118.987 153.288 117.643 143.88 114.955 138.312C113.995 136.2 113.515 134.856 113.515 134.28C113.515 133.128 113.995 132.36 114.955 131.976C118.027 131.016 121.963 130.536 126.763 130.536C145.387 130.536 154.699 138.216 154.699 153.576C154.699 158.376 152.683 169.32 148.651 186.408C144.811 203.496 142.891 215.688 142.891 222.984C142.891 230.088 144.427 235.56 147.499 239.4C150.763 243.24 155.179 245.16 160.747 245.16C166.507 245.16 171.019 243.144 174.283 239.112C177.547 235.08 179.467 231.048 180.043 227.016L180.907 220.968C181.675 214.248 182.059 202.44 182.059 185.544C182.059 168.648 181.483 157.992 180.331 153.576C179.371 148.968 178.891 146.088 178.891 144.936C178.891 140.136 182.731 136.392 190.411 133.704C198.091 130.824 205.003 129.384 211.147 129.384C214.027 129.384 215.467 130.536 215.467 132.84ZM225.07 148.68L225.934 137.16C226.126 135.432 227.47 134.568 229.966 134.568H240.046L238.894 111.528V110.376C238.894 105.96 242.254 101.736 248.974 97.704C255.694 93.672 261.838 91.656 267.406 91.656C269.134 91.656 269.998 92.424 269.998 93.96V94.248C269.23 99.432 268.462 112.776 267.694 134.28C276.142 134.28 281.518 134.088 283.822 133.704C286.126 133.32 287.374 133.128 287.566 133.128C288.91 133.128 289.582 134.28 289.582 136.584C289.582 138.888 288.526 141.864 286.414 145.512C284.302 148.968 281.998 150.792 279.502 150.984H267.406C267.214 157.512 267.118 168.552 267.118 184.104C267.118 199.464 267.214 212.136 267.406 222.12C267.79 232.104 268.174 239.688 268.558 244.872C268.942 249.864 269.326 253.896 269.71 256.968C270.286 260.04 270.67 262.248 270.862 263.592C271.246 264.936 271.438 265.8 271.438 266.184C271.438 268.104 270.19 269.16 267.694 269.352C260.206 269.352 252.718 268.296 245.23 266.184C237.934 264.072 234.286 260.424 234.286 255.24C238.318 222.984 240.334 188.328 240.334 151.272C235.15 151.272 231.214 151.464 228.526 151.848H228.238C226.51 151.848 225.454 150.792 225.07 148.68ZM322.02 152.424C317.028 152.616 313.38 152.808 311.076 153C308.964 153 307.908 152.424 307.908 151.272C307.908 150.12 308.484 148.968 309.636 147.816C321.924 136.488 342.66 130.824 371.844 130.824C381.828 130.824 389.7 131.688 395.46 133.416L398.34 134.28C400.644 135.24 401.796 136.296 401.796 137.448C401.796 138.408 401.124 139.176 399.78 139.752C394.596 141.288 389.604 143.784 384.804 147.24C380.004 150.504 377.604 152.808 377.604 154.152L379.332 156.168C385.476 159.624 390.18 165.096 393.444 172.584C396.9 180.072 398.82 186.696 399.204 192.456L399.78 201.384C399.78 220.392 394.5 236.04 383.94 248.328C373.38 260.616 358.98 266.76 340.74 266.76C331.524 266.76 323.556 265.128 316.836 261.864C310.116 258.6 305.124 254.952 301.86 250.92C298.788 246.696 296.292 241.992 294.372 236.808C292.068 229.704 290.916 222.408 290.916 214.92C290.916 207.24 292.164 199.56 294.66 191.88C297.348 184.2 300.324 178.536 303.588 174.888C307.044 171.24 310.884 168.264 315.108 165.96C320.484 163.08 324.804 161.64 328.068 161.64C331.332 161.64 332.964 162.312 332.964 163.656L331.236 166.536C327.012 171.528 323.94 178.056 322.02 186.12C320.292 194.184 319.428 201.384 319.428 207.72C319.428 213.864 320.196 220.008 321.732 226.152C323.268 232.296 324.996 236.904 326.916 239.976C328.836 242.856 331.044 245.064 333.54 246.6C337.188 248.904 341.028 250.056 345.06 250.056C349.092 250.056 353.028 248.52 356.868 245.448C360.708 242.184 363.492 237.96 365.22 232.776C368.676 223.176 370.404 213.288 370.404 203.112C370.404 186.984 366.276 174.504 358.02 165.672C349.956 156.84 337.956 152.424 322.02 152.424ZM499.761 183.816L500.913 193.896C500.913 197.544 497.457 199.368 490.545 199.368C476.529 199.368 469.521 194.088 469.521 183.528C469.521 181.032 470.193 177.576 471.537 173.16C472.881 168.744 473.553 164.904 473.553 161.64C473.553 158.376 472.593 155.592 470.673 153.288C468.753 150.792 465.969 149.544 462.321 149.544C458.673 149.544 455.505 150.888 452.817 153.576C450.321 156.072 448.785 158.664 448.209 161.352L447.057 165.384C445.905 171.336 445.329 181.32 445.329 195.336C445.329 209.16 445.521 220.104 445.905 228.168C446.289 236.04 446.673 241.512 447.057 244.584C447.441 247.464 447.633 249.192 447.633 249.768C447.633 254.568 444.657 258.408 438.705 261.288C432.753 264.36 426.801 265.896 420.849 265.896C414.897 265.896 411.921 264.648 411.921 262.152L413.361 253.224C416.049 236.52 417.393 214.728 417.393 187.848C417.393 160.968 416.433 142.728 414.513 133.128C414.513 130.824 416.529 129.672 420.561 129.672C430.929 129.672 437.841 133.224 441.297 140.328C441.489 141.096 441.777 141.48 442.161 141.48C442.737 141.48 444.081 140.616 446.193 138.888C452.529 133.704 460.017 131.112 468.657 131.112C474.033 131.112 479.409 132.168 484.785 134.28C495.729 138.696 501.201 147.912 501.201 161.928L499.761 183.816ZM603.738 174.6L603.162 211.464C603.162 237 605.946 252.36 611.514 257.544C612.282 258.312 612.666 259.176 612.666 260.136C612.666 263.016 606.426 264.456 593.946 264.456C581.658 264.456 575.13 260.808 574.362 253.512C574.17 251.784 574.074 248.232 574.074 242.856L575.226 196.776C575.226 195.432 574.458 194.76 572.922 194.76C563.706 194.76 555.066 197.352 547.002 202.536C538.938 207.72 534.906 214.344 534.906 222.408C534.906 226.632 536.058 230.184 538.362 233.064C540.666 235.944 543.45 237.384 546.714 237.384C550.17 237.384 552.954 236.712 555.066 235.368C557.37 234.024 558.714 233.256 559.098 233.064C562.362 233.448 563.994 236.904 563.994 243.432C563.994 249.768 561.018 254.952 555.066 258.984C549.114 262.824 542.874 264.744 536.346 264.744C529.818 264.744 524.154 263.592 519.354 261.288C514.746 258.984 511.386 256.392 509.274 253.512C507.162 250.632 505.434 247.368 504.09 243.72C502.746 239.304 502.074 235.464 502.074 232.2C502.074 218.76 506.298 208.008 514.746 199.944C523.194 191.88 534.042 186.12 547.29 182.664C564.762 179.208 573.882 176.04 574.65 173.16C575.226 171.048 575.514 167.496 575.514 162.504C575.514 152.328 570.33 147.24 559.962 147.24C555.546 147.24 551.61 148.68 548.154 151.56C544.698 154.248 542.97 157.704 542.97 161.928L544.698 168.84C544.314 172.104 540.858 174.024 534.33 174.6L531.162 174.888C525.402 174.888 520.794 173.448 517.338 170.568C514.074 167.688 512.442 163.848 512.442 159.048C512.442 155.976 513.402 152.616 515.322 148.968C517.434 145.128 520.026 142.056 523.098 139.752C526.17 137.448 530.874 135.432 537.21 133.704C543.738 131.784 549.978 130.824 555.93 130.824C561.882 130.824 566.49 131.016 569.754 131.4C573.018 131.784 577.434 132.744 583.002 134.28C588.762 135.624 593.466 138.312 597.114 142.344C600.954 146.376 602.97 150.696 603.162 155.304C603.546 159.72 603.738 166.152 603.738 174.6ZM678.771 131.688C682.227 131.688 685.299 132.168 687.987 133.128C690.867 133.896 692.403 134.28 692.595 134.28L694.323 132.84L693.171 101.448C692.787 96.072 691.635 91.464 689.715 87.624C687.795 83.784 686.067 81.288 684.531 80.136L681.939 78.696C680.787 77.928 680.211 77.064 680.211 76.104C680.211 73.224 684.627 69.864 693.459 66.024C702.483 62.184 709.491 60.264 714.483 60.264C719.475 60.264 722.163 61.32 722.547 63.432C723.507 69.96 723.987 82.44 723.987 100.872C723.987 119.112 723.507 137.064 722.547 154.728C721.779 172.392 721.395 192.456 721.395 214.92C721.395 237.192 722.835 251.208 725.715 256.968C726.483 258.312 726.867 259.56 726.867 260.712C726.867 263.592 722.739 265.032 714.483 265.032C698.739 265.032 690.867 261.288 690.867 253.8C690.483 250.728 690.291 246.024 690.291 239.688C690.291 233.16 690.867 221.16 692.019 203.688C693.363 186.024 694.035 172.488 694.035 163.08C694.035 153.48 689.235 148.68 679.635 148.68C670.227 148.68 663.027 154.248 658.035 165.384C653.043 176.52 650.547 187.656 650.547 198.792C650.547 222.408 656.499 234.216 668.403 234.216C670.131 234.216 671.763 233.928 673.299 233.352C675.027 232.584 676.083 232.2 676.467 232.2C678.003 232.2 679.155 233.16 679.923 235.08C680.883 237 681.363 238.92 681.363 240.84C681.363 247.368 678.771 252.936 673.587 257.544C668.403 261.96 662.067 264.168 654.579 264.168C643.059 264.168 634.323 259.176 628.371 249.192C622.611 239.016 619.731 226.44 619.731 211.464C619.731 192.456 624.243 174.792 633.267 158.472C637.875 150.408 644.115 143.976 651.987 139.176C659.859 134.184 668.787 131.688 678.771 131.688ZM836.051 174.6L835.475 211.464C835.475 237 838.259 252.36 843.827 257.544C844.595 258.312 844.979 259.176 844.979 260.136C844.979 263.016 838.739 264.456 826.259 264.456C813.971 264.456 807.443 260.808 806.675 253.512C806.483 251.784 806.387 248.232 806.387 242.856L807.539 196.776C807.539 195.432 806.771 194.76 805.235 194.76C796.019 194.76 787.379 197.352 779.315 202.536C771.251 207.72 767.219 214.344 767.219 222.408C767.219 226.632 768.371 230.184 770.675 233.064C772.979 235.944 775.763 237.384 779.027 237.384C782.483 237.384 785.267 236.712 787.379 235.368C789.683 234.024 791.027 233.256 791.411 233.064C794.675 233.448 796.307 236.904 796.307 243.432C796.307 249.768 793.331 254.952 787.379 258.984C781.427 262.824 775.187 264.744 768.659 264.744C762.131 264.744 756.467 263.592 751.667 261.288C747.059 258.984 743.699 256.392 741.587 253.512C739.475 250.632 737.747 247.368 736.403 243.72C735.059 239.304 734.387 235.464 734.387 232.2C734.387 218.76 738.611 208.008 747.059 199.944C755.507 191.88 766.355 186.12 779.603 182.664C797.075 179.208 806.195 176.04 806.963 173.16C807.539 171.048 807.827 167.496 807.827 162.504C807.827 152.328 802.643 147.24 792.275 147.24C787.859 147.24 783.923 148.68 780.467 151.56C777.011 154.248 775.283 157.704 775.283 161.928L777.011 168.84C776.627 172.104 773.171 174.024 766.643 174.6L763.475 174.888C757.715 174.888 753.107 173.448 749.651 170.568C746.387 167.688 744.755 163.848 744.755 159.048C744.755 155.976 745.715 152.616 747.635 148.968C749.747 145.128 752.339 142.056 755.411 139.752C758.483 137.448 763.187 135.432 769.523 133.704C776.051 131.784 782.291 130.824 788.243 130.824C794.195 130.824 798.803 131.016 802.067 131.4C805.331 131.784 809.747 132.744 815.315 134.28C821.075 135.624 825.779 138.312 829.427 142.344C833.267 146.376 835.283 150.696 835.475 155.304C835.859 159.72 836.051 166.152 836.051 174.6ZM941.324 183.816L942.476 193.896C942.476 197.544 939.02 199.368 932.108 199.368C918.092 199.368 911.084 194.088 911.084 183.528C911.084 181.032 911.756 177.576 913.1 173.16C914.444 168.744 915.116 164.904 915.116 161.64C915.116 158.376 914.156 155.592 912.236 153.288C910.316 150.792 907.532 149.544 903.884 149.544C900.236 149.544 897.068 150.888 894.38 153.576C891.884 156.072 890.348 158.664 889.772 161.352L888.62 165.384C887.468 171.336 886.892 181.32 886.892 195.336C886.892 209.16 887.084 220.104 887.468 228.168C887.852 236.04 888.236 241.512 888.62 244.584C889.004 247.464 889.196 249.192 889.196 249.768C889.196 254.568 886.22 258.408 880.268 261.288C874.316 264.36 868.364 265.896 862.412 265.896C856.46 265.896 853.484 264.648 853.484 262.152L854.924 253.224C857.612 236.52 858.956 214.728 858.956 187.848C858.956 160.968 857.996 142.728 856.076 133.128C856.076 130.824 858.092 129.672 862.124 129.672C872.492 129.672 879.404 133.224 882.86 140.328C883.052 141.096 883.34 141.48 883.724 141.48C884.3 141.48 885.644 140.616 887.756 138.888C894.092 133.704 901.58 131.112 910.22 131.112C915.596 131.112 920.972 132.168 926.348 134.28C937.292 138.696 942.764 147.912 942.764 161.928L941.324 183.816Z" fill="white"/>
<path d="M945.997 344.352C946.81 254.051 72.6311 338.747 73.0005 297.658" stroke="white" stroke-width="25"/>
</g>
<defs>
<filter id="filter0_i" x="0.0880127" y="50.472" width="958.414" height="306.899" filterUnits="userSpaceOnUse" color-interpolation-filters="sRGB">
<feFlood flood-opacity="0" result="BackgroundImageFix"/>
<feBlend mode="normal" in="SourceGraphic" in2="BackgroundImageFix" result="shape"/>
<feColorMatrix in="SourceAlpha" type="matrix" values="0 0 0 0 0 0 0 0 0 0 0 0 0 0 0 0 0 0 127 0" result="hardAlpha"/>
<feOffset dy="4"/>
<feGaussianBlur stdDeviation="2"/>
<feComposite in2="hardAlpha" operator="arithmetic" k2="-1" k3="1"/>
<feColorMatrix type="matrix" values="0 0 0 0 0 0 0 0 0 0 0 0 0 0 0 0 0 0 0.25 0"/>
<feBlend mode="normal" in2="shape" result="effect1_innerShadow"/>
</filter>
</defs>
</svg>
