<svg width="1194" height="339" viewBox="0 0 1194 339" fill="none" xmlns="http://www.w3.org/2000/svg">
<g filter="url(#filter0_i)">
<path d="M38.104 55.944L79.576 58.248C98.008 58.248 111.256 56.04 119.32 51.624C120.472 50.856 121.432 50.472 122.2 50.472C123.16 50.472 123.64 51.816 123.64 54.504C123.64 57.192 122.008 61.608 118.744 67.752C113.944 77.16 107.032 81.864 98.008 81.864L82.168 81.576C80.632 81.576 79.672 82.44 79.288 84.168C77.944 112.392 77.272 142.92 77.272 175.752C77.272 208.392 78.616 232.968 81.304 249.48V250.92C81.304 255.72 76.696 259.56 67.48 262.44C58.456 265.32 49.912 266.76 41.848 266.76C38.008 266.76 36.088 265.704 36.088 263.592C36.088 263.016 36.376 261.672 36.952 259.56C39.064 255.336 40.888 234.888 42.424 198.216C44.152 161.544 45.016 133.896 45.016 115.272L44.44 83.88C44.44 82.728 43.864 82.056 42.712 81.864C38.68 81.096 34.072 80.712 28.888 80.712C18.52 80.712 10.84 82.824 5.848 87.048C4.504 88.008 3.256 88.488 2.104 88.488C0.76 88.488 0.0879999 87.72 0.0879999 86.184C0.0879999 83.88 1.336 80.712 3.832 76.68C6.136 72.648 8.632 69.192 11.32 66.312C17.848 59.4 26.776 55.944 38.104 55.944ZM238.507 132.84C235.051 153.576 233.323 179.976 233.323 212.04C233.323 235.656 234.283 251.208 236.203 258.696L237.355 262.44C237.355 264.936 235.243 266.184 231.019 266.184C216.235 266.184 207.787 262.056 205.675 253.8C205.483 252.84 205.003 252.36 204.235 252.36C203.659 252.36 203.083 252.744 202.507 253.512C196.555 261.384 187.339 265.32 174.859 265.32C167.947 265.32 160.747 263.592 153.259 260.136C148.651 258.024 144.907 254.376 142.027 249.192C139.147 243.816 137.707 237.288 137.707 229.608L142.027 166.536C142.027 153.288 140.683 143.88 137.995 138.312C137.035 136.2 136.555 134.856 136.555 134.28C136.555 133.128 137.035 132.36 137.995 131.976C141.067 131.016 145.003 130.536 149.803 130.536C168.427 130.536 177.739 138.216 177.739 153.576C177.739 158.376 175.723 169.32 171.691 186.408C167.851 203.496 165.931 215.688 165.931 222.984C165.931 230.088 167.467 235.56 170.539 239.4C173.803 243.24 178.219 245.16 183.787 245.16C189.547 245.16 194.059 243.144 197.323 239.112C200.587 235.08 202.507 231.048 203.083 227.016L203.947 220.968C204.715 214.248 205.099 202.44 205.099 185.544C205.099 168.648 204.523 157.992 203.371 153.576C202.411 148.968 201.931 146.088 201.931 144.936C201.931 140.136 205.771 136.392 213.451 133.704C221.131 130.824 228.043 129.384 234.187 129.384C237.067 129.384 238.507 130.536 238.507 132.84ZM271.15 148.68L272.014 137.16C272.206 135.432 273.55 134.568 276.046 134.568H286.126L284.974 111.528V110.376C284.974 105.96 288.334 101.736 295.054 97.704C301.774 93.672 307.918 91.656 313.486 91.656C315.214 91.656 316.078 92.424 316.078 93.96V94.248C315.31 99.432 314.542 112.776 313.774 134.28C322.222 134.28 327.598 134.088 329.902 133.704C332.206 133.32 333.454 133.128 333.646 133.128C334.99 133.128 335.662 134.28 335.662 136.584C335.662 138.888 334.606 141.864 332.494 145.512C330.382 148.968 328.078 150.792 325.582 150.984H313.486C313.294 157.512 313.198 168.552 313.198 184.104C313.198 199.464 313.294 212.136 313.486 222.12C313.87 232.104 314.254 239.688 314.638 244.872C315.022 249.864 315.406 253.896 315.79 256.968C316.366 260.04 316.75 262.248 316.942 263.592C317.326 264.936 317.518 265.8 317.518 266.184C317.518 268.104 316.27 269.16 313.774 269.352C306.286 269.352 298.798 268.296 291.31 266.184C284.014 264.072 280.366 260.424 280.366 255.24C284.398 222.984 286.414 188.328 286.414 151.272C281.23 151.272 277.294 151.464 274.606 151.848H274.318C272.59 151.848 271.534 150.792 271.15 148.68ZM391.14 152.424C386.148 152.616 382.5 152.808 380.196 153C378.084 153 377.028 152.424 377.028 151.272C377.028 150.12 377.604 148.968 378.756 147.816C391.044 136.488 411.78 130.824 440.964 130.824C450.948 130.824 458.82 131.688 464.58 133.416L467.46 134.28C469.764 135.24 470.916 136.296 470.916 137.448C470.916 138.408 470.244 139.176 468.9 139.752C463.716 141.288 458.724 143.784 453.924 147.24C449.124 150.504 446.724 152.808 446.724 154.152L448.452 156.168C454.596 159.624 459.3 165.096 462.564 172.584C466.02 180.072 467.94 186.696 468.324 192.456L468.9 201.384C468.9 220.392 463.62 236.04 453.06 248.328C442.5 260.616 428.1 266.76 409.86 266.76C400.644 266.76 392.676 265.128 385.956 261.864C379.236 258.6 374.244 254.952 370.98 250.92C367.908 246.696 365.412 241.992 363.492 236.808C361.188 229.704 360.036 222.408 360.036 214.92C360.036 207.24 361.284 199.56 363.78 191.88C366.468 184.2 369.444 178.536 372.708 174.888C376.164 171.24 380.004 168.264 384.228 165.96C389.604 163.08 393.924 161.64 397.188 161.64C400.452 161.64 402.084 162.312 402.084 163.656L400.356 166.536C396.132 171.528 393.06 178.056 391.14 186.12C389.412 194.184 388.548 201.384 388.548 207.72C388.548 213.864 389.316 220.008 390.852 226.152C392.388 232.296 394.116 236.904 396.036 239.976C397.956 242.856 400.164 245.064 402.66 246.6C406.308 248.904 410.148 250.056 414.18 250.056C418.212 250.056 422.148 248.52 425.988 245.448C429.828 242.184 432.612 237.96 434.34 232.776C437.796 223.176 439.524 213.288 439.524 203.112C439.524 186.984 435.396 174.504 427.14 165.672C419.076 156.84 407.076 152.424 391.14 152.424ZM591.921 183.816L593.073 193.896C593.073 197.544 589.617 199.368 582.705 199.368C568.689 199.368 561.681 194.088 561.681 183.528C561.681 181.032 562.353 177.576 563.697 173.16C565.041 168.744 565.713 164.904 565.713 161.64C565.713 158.376 564.753 155.592 562.833 153.288C560.913 150.792 558.129 149.544 554.481 149.544C550.833 149.544 547.665 150.888 544.977 153.576C542.481 156.072 540.945 158.664 540.369 161.352L539.217 165.384C538.065 171.336 537.489 181.32 537.489 195.336C537.489 209.16 537.681 220.104 538.065 228.168C538.449 236.04 538.833 241.512 539.217 244.584C539.601 247.464 539.793 249.192 539.793 249.768C539.793 254.568 536.817 258.408 530.865 261.288C524.913 264.36 518.961 265.896 513.009 265.896C507.057 265.896 504.081 264.648 504.081 262.152L505.521 253.224C508.209 236.52 509.553 214.728 509.553 187.848C509.553 160.968 508.593 142.728 506.673 133.128C506.673 130.824 508.689 129.672 512.721 129.672C523.089 129.672 530.001 133.224 533.457 140.328C533.649 141.096 533.937 141.48 534.321 141.48C534.897 141.48 536.241 140.616 538.353 138.888C544.689 133.704 552.177 131.112 560.817 131.112C566.193 131.112 571.569 132.168 576.945 134.28C587.889 138.696 593.361 147.912 593.361 161.928L591.921 183.816ZM718.938 174.6L718.362 211.464C718.362 237 721.146 252.36 726.714 257.544C727.482 258.312 727.866 259.176 727.866 260.136C727.866 263.016 721.626 264.456 709.146 264.456C696.858 264.456 690.33 260.808 689.562 253.512C689.37 251.784 689.274 248.232 689.274 242.856L690.426 196.776C690.426 195.432 689.658 194.76 688.122 194.76C678.906 194.76 670.266 197.352 662.202 202.536C654.138 207.72 650.106 214.344 650.106 222.408C650.106 226.632 651.258 230.184 653.562 233.064C655.866 235.944 658.65 237.384 661.914 237.384C665.37 237.384 668.154 236.712 670.266 235.368C672.57 234.024 673.914 233.256 674.298 233.064C677.562 233.448 679.194 236.904 679.194 243.432C679.194 249.768 676.218 254.952 670.266 258.984C664.314 262.824 658.074 264.744 651.546 264.744C645.018 264.744 639.354 263.592 634.554 261.288C629.946 258.984 626.586 256.392 624.474 253.512C622.362 250.632 620.634 247.368 619.29 243.72C617.946 239.304 617.274 235.464 617.274 232.2C617.274 218.76 621.498 208.008 629.946 199.944C638.394 191.88 649.242 186.12 662.49 182.664C679.962 179.208 689.082 176.04 689.85 173.16C690.426 171.048 690.714 167.496 690.714 162.504C690.714 152.328 685.53 147.24 675.162 147.24C670.746 147.24 666.81 148.68 663.354 151.56C659.898 154.248 658.17 157.704 658.17 161.928L659.898 168.84C659.514 172.104 656.058 174.024 649.53 174.6L646.362 174.888C640.602 174.888 635.994 173.448 632.538 170.568C629.274 167.688 627.642 163.848 627.642 159.048C627.642 155.976 628.602 152.616 630.522 148.968C632.634 145.128 635.226 142.056 638.298 139.752C641.37 137.448 646.074 135.432 652.41 133.704C658.938 131.784 665.178 130.824 671.13 130.824C677.082 130.824 681.69 131.016 684.954 131.4C688.218 131.784 692.634 132.744 698.202 134.28C703.962 135.624 708.666 138.312 712.314 142.344C716.154 146.376 718.17 150.696 718.362 155.304C718.746 159.72 718.938 166.152 718.938 174.6ZM817.011 131.688C820.467 131.688 823.539 132.168 826.227 133.128C829.107 133.896 830.643 134.28 830.835 134.28L832.563 132.84L831.411 101.448C831.027 96.072 829.875 91.464 827.955 87.624C826.035 83.784 824.307 81.288 822.771 80.136L820.179 78.696C819.027 77.928 818.451 77.064 818.451 76.104C818.451 73.224 822.867 69.864 831.699 66.024C840.723 62.184 847.731 60.264 852.723 60.264C857.715 60.264 860.403 61.32 860.787 63.432C861.747 69.96 862.227 82.44 862.227 100.872C862.227 119.112 861.747 137.064 860.787 154.728C860.019 172.392 859.635 192.456 859.635 214.92C859.635 237.192 861.075 251.208 863.955 256.968C864.723 258.312 865.107 259.56 865.107 260.712C865.107 263.592 860.979 265.032 852.723 265.032C836.979 265.032 829.107 261.288 829.107 253.8C828.723 250.728 828.531 246.024 828.531 239.688C828.531 233.16 829.107 221.16 830.259 203.688C831.603 186.024 832.275 172.488 832.275 163.08C832.275 153.48 827.475 148.68 817.875 148.68C808.467 148.68 801.267 154.248 796.275 165.384C791.283 176.52 788.787 187.656 788.787 198.792C788.787 222.408 794.739 234.216 806.643 234.216C808.371 234.216 810.003 233.928 811.539 233.352C813.267 232.584 814.323 232.2 814.707 232.2C816.243 232.2 817.395 233.16 818.163 235.08C819.123 237 819.603 238.92 819.603 240.84C819.603 247.368 817.011 252.936 811.827 257.544C806.643 261.96 800.307 264.168 792.819 264.168C781.299 264.168 772.563 259.176 766.611 249.192C760.851 239.016 757.971 226.44 757.971 211.464C757.971 192.456 762.483 174.792 771.507 158.472C776.115 150.408 782.355 143.976 790.227 139.176C798.099 134.184 807.027 131.688 817.011 131.688ZM997.331 174.6L996.755 211.464C996.755 237 999.539 252.36 1005.11 257.544C1005.87 258.312 1006.26 259.176 1006.26 260.136C1006.26 263.016 1000.02 264.456 987.539 264.456C975.251 264.456 968.723 260.808 967.955 253.512C967.763 251.784 967.667 248.232 967.667 242.856L968.819 196.776C968.819 195.432 968.051 194.76 966.515 194.76C957.299 194.76 948.659 197.352 940.595 202.536C932.531 207.72 928.499 214.344 928.499 222.408C928.499 226.632 929.651 230.184 931.955 233.064C934.259 235.944 937.043 237.384 940.307 237.384C943.763 237.384 946.547 236.712 948.659 235.368C950.963 234.024 952.307 233.256 952.691 233.064C955.955 233.448 957.587 236.904 957.587 243.432C957.587 249.768 954.611 254.952 948.659 258.984C942.707 262.824 936.467 264.744 929.939 264.744C923.411 264.744 917.747 263.592 912.947 261.288C908.339 258.984 904.979 256.392 902.867 253.512C900.755 250.632 899.027 247.368 897.683 243.72C896.339 239.304 895.667 235.464 895.667 232.2C895.667 218.76 899.891 208.008 908.339 199.944C916.787 191.88 927.635 186.12 940.883 182.664C958.355 179.208 967.475 176.04 968.243 173.16C968.819 171.048 969.107 167.496 969.107 162.504C969.107 152.328 963.923 147.24 953.555 147.24C949.139 147.24 945.203 148.68 941.747 151.56C938.291 154.248 936.563 157.704 936.563 161.928L938.291 168.84C937.907 172.104 934.451 174.024 927.923 174.6L924.755 174.888C918.995 174.888 914.387 173.448 910.931 170.568C907.667 167.688 906.035 163.848 906.035 159.048C906.035 155.976 906.995 152.616 908.915 148.968C911.027 145.128 913.619 142.056 916.691 139.752C919.763 137.448 924.467 135.432 930.803 133.704C937.331 131.784 943.571 130.824 949.523 130.824C955.475 130.824 960.083 131.016 963.347 131.4C966.611 131.784 971.027 132.744 976.595 134.28C982.355 135.624 987.059 138.312 990.707 142.344C994.547 146.376 996.563 150.696 996.755 155.304C997.139 159.72 997.331 166.152 997.331 174.6ZM1125.64 183.816L1126.8 193.896C1126.8 197.544 1123.34 199.368 1116.43 199.368C1102.41 199.368 1095.4 194.088 1095.4 183.528C1095.4 181.032 1096.08 177.576 1097.42 173.16C1098.76 168.744 1099.44 164.904 1099.44 161.64C1099.44 158.376 1098.48 155.592 1096.56 153.288C1094.64 150.792 1091.85 149.544 1088.2 149.544C1084.56 149.544 1081.39 150.888 1078.7 153.576C1076.2 156.072 1074.67 158.664 1074.09 161.352L1072.94 165.384C1071.79 171.336 1071.21 181.32 1071.21 195.336C1071.21 209.16 1071.4 220.104 1071.79 228.168C1072.17 236.04 1072.56 241.512 1072.94 244.584C1073.32 247.464 1073.52 249.192 1073.52 249.768C1073.52 254.568 1070.54 258.408 1064.59 261.288C1058.64 264.36 1052.68 265.896 1046.73 265.896C1040.78 265.896 1037.8 264.648 1037.8 262.152L1039.24 253.224C1041.93 236.52 1043.28 214.728 1043.28 187.848C1043.28 160.968 1042.32 142.728 1040.4 133.128C1040.4 130.824 1042.41 129.672 1046.44 129.672C1056.81 129.672 1063.72 133.224 1067.18 140.328C1067.37 141.096 1067.66 141.48 1068.04 141.48C1068.62 141.48 1069.96 140.616 1072.08 138.888C1078.41 133.704 1085.9 131.112 1094.54 131.112C1099.92 131.112 1105.29 132.168 1110.67 134.28C1121.61 138.696 1127.08 147.912 1127.08 161.928L1125.64 183.816Z" fill="white"/>
</g>
<defs>
<filter id="filter0_i" x="0.0880127" y="50.472" width="1127" height="222.88" filterUnits="userSpaceOnUse" color-interpolation-filters="sRGB">
<feFlood flood-opacity="0" result="BackgroundImageFix"/>
<feBlend mode="normal" in="SourceGraphic" in2="BackgroundImageFix" result="shape"/>
<feColorMatrix in="SourceAlpha" type="matrix" values="0 0 0 0 0 0 0 0 0 0 0 0 0 0 0 0 0 0 127 0" result="hardAlpha"/>
<feOffset dy="4"/>
<feGaussianBlur stdDeviation="2"/>
<feComposite in2="hardAlpha" operator="arithmetic" k2="-1" k3="1"/>
<feColorMatrix type="matrix" values="0 0 0 0 0 0 0 0 0 0 0 0 0 0 0 0 0 0 0.25 0"/>
<feBlend mode="normal" in2="shape" result="effect1_innerShadow"/>
</filter>
</defs>
</svg>
