<svg xmlns="http://www.w3.org/2000/svg" viewBox="0 0 1575.09 298.08"><title>background</title><g style="opacity:0.5"><g style="opacity:0.07"><line x1="1000.37" y1="109.44" x2="1000.37" y2="115.8" style="fill:none;stroke:#000;stroke-linecap:round;stroke-miterlimit:10;stroke-width:2px"/><line x1="984.47" y1="111.03" x2="984.47" y2="114.21" style="fill:none;stroke:#000;stroke-linecap:round;stroke-miterlimit:10;stroke-width:2px"/><line x1="1008.32" y1="111.03" x2="1008.32" y2="114.21" style="fill:none;stroke:#000;stroke-linecap:round;stroke-miterlimit:10;stroke-width:2px"/><line x1="988.44" y1="103.87" x2="988.44" y2="121.36" style="fill:none;stroke:#000;stroke-linecap:round;stroke-miterlimit:10;stroke-width:2px"/><line x1="992.42" y1="107.05" x2="992.42" y2="118.18" style="fill:none;stroke:#000;stroke-linecap:round;stroke-miterlimit:10;stroke-width:2px"/><line x1="1004.34" y1="106.26" x2="1004.34" y2="118.98" style="fill:none;stroke:#000;stroke-linecap:round;stroke-miterlimit:10;stroke-width:2px"/><line x1="996.39" y1="100.69" x2="996.39" y2="124.54" style="fill:none;stroke:#000;stroke-linecap:round;stroke-miterlimit:10;stroke-width:2px"/><polygon points="1038.53 101.25 1021.83 104.43 1021.83 96.48 1038.53 93.3 1038.53 101.25" style="fill:none;stroke:#000;stroke-linejoin:round;stroke-width:2px"/><line x1="1021.83" y1="104.43" x2="1021.83" y2="124.22" style="fill:none;stroke:#000;stroke-miterlimit:10;stroke-width:2px"/><path d="M1062.66,130.06h-1.59a3.94,3.94,0,0,1-4-4h0a3.94,3.94,0,0,1,4-4h5.56v4A3.93,3.93,0,0,1,1062.66,130.06Z" transform="translate(-28.11 -6.55)" style="fill:none;stroke:#000;stroke-miterlimit:10;stroke-width:2px"/><path d="M1046,134.83h-1.59a3.94,3.94,0,0,1-4-4h0a3.94,3.94,0,0,1,4-4h5.57v4A3.94,3.94,0,0,1,1046,134.83Z" transform="translate(-28.11 -6.55)" style="fill:none;stroke:#000;stroke-miterlimit:10;stroke-width:2px"/><line x1="1038.53" y1="101.25" x2="1038.53" y2="119.45" style="fill:none;stroke:#000;stroke-miterlimit:10;stroke-width:2px"/><path d="M1038.25,107.8h-1.19a3,3,0,0,1-3-3h0a3,3,0,0,1,3-3h4.21v3A3,3,0,0,1,1038.25,107.8Z" transform="translate(-28.11 -6.55)" style="fill:none;stroke:#000;stroke-miterlimit:10;stroke-width:2px"/><path d="M1046.76,94.68a7.67,7.67,0,0,0-1.83-4.85c-1.51-1.51-3.66-3-3.66-5V104.7" transform="translate(-28.11 -6.55)" style="fill:none;stroke:#000;stroke-linecap:round;stroke-miterlimit:10;stroke-width:2px"/></g><g style="opacity:0.07"><line x1="316.66" y1="205.12" x2="319.05" y2="211" style="fill:none;stroke:#000;stroke-linecap:round;stroke-miterlimit:10;stroke-width:2px"/><line x1="302.51" y1="212.51" x2="303.7" y2="215.45" style="fill:none;stroke:#000;stroke-linecap:round;stroke-miterlimit:10;stroke-width:2px"/><line x1="324.69" y1="203.69" x2="325.81" y2="206.63" style="fill:none;stroke:#000;stroke-linecap:round;stroke-miterlimit:10;stroke-width:2px"/><line x1="303.55" y1="204.4" x2="310.06" y2="220.62" style="fill:none;stroke:#000;stroke-linecap:round;stroke-miterlimit:10;stroke-width:2px"/><line x1="308.39" y1="205.83" x2="312.53" y2="216.17" style="fill:none;stroke:#000;stroke-linecap:round;stroke-miterlimit:10;stroke-width:2px"/><line x1="319.21" y1="200.66" x2="323.9" y2="212.51" style="fill:none;stroke:#000;stroke-linecap:round;stroke-miterlimit:10;stroke-width:2px"/><line x1="309.75" y1="198.44" x2="318.57" y2="220.62" style="fill:none;stroke:#000;stroke-linecap:round;stroke-miterlimit:10;stroke-width:2px"/><polygon points="349.1 183.41 334.79 192.56 331.85 185.16 346.16 176.02 349.1 183.41" style="fill:none;stroke:#000;stroke-linejoin:round;stroke-width:2px"/><line x1="334.79" y1="192.56" x2="342.1" y2="210.84" style="fill:none;stroke:#000;stroke-miterlimit:10;stroke-width:2px"/><path d="M381.74,212.07l-1.51.55a4,4,0,0,1-5.17-2.22h0a4,4,0,0,1,2.23-5.17l5.16-2.07,1.51,3.66A4,4,0,0,1,381.74,212.07Z" transform="translate(-28.11 -6.55)" style="fill:none;stroke:#000;stroke-miterlimit:10;stroke-width:2px"/><path d="M368.06,222.72l-1.51.56a4,4,0,0,1-5.16-2.23h0a4,4,0,0,1,2.22-5.17l5.17-2.06,1.51,3.65A4.15,4.15,0,0,1,368.06,222.72Z" transform="translate(-28.11 -6.55)" style="fill:none;stroke:#000;stroke-miterlimit:10;stroke-width:2px"/><line x1="349.1" y1="183.41" x2="355.86" y2="200.27" style="fill:none;stroke:#000;stroke-miterlimit:10;stroke-width:2px"/><path d="M350.89,200.46l-1.11.48a3.09,3.09,0,0,1-4-1.67h0a3.09,3.09,0,0,1,1.67-4l4-1.59,1.11,2.78A3.08,3.08,0,0,1,350.89,200.46Z" transform="translate(-28.11 -6.55)" style="fill:none;stroke:#000;stroke-miterlimit:10;stroke-width:2px"/><path d="M353.91,185.12a7.65,7.65,0,0,0-3.5-3.82c-2-.87-4.53-1.43-5.24-3.34l7.39,18.44" transform="translate(-28.11 -6.55)" style="fill:none;stroke:#000;stroke-linecap:round;stroke-miterlimit:10;stroke-width:2px"/></g><g style="opacity:0.07"><line x1="15.87" y1="174.59" x2="17.62" y2="180.63" style="fill:none;stroke:#000;stroke-linecap:round;stroke-miterlimit:10;stroke-width:2px"/><line x1="1" y1="180.47" x2="1.87" y2="183.57" style="fill:none;stroke:#000;stroke-linecap:round;stroke-miterlimit:10;stroke-width:2px"/><line x1="23.9" y1="173.87" x2="24.85" y2="176.97" style="fill:none;stroke:#000;stroke-linecap:round;stroke-miterlimit:10;stroke-width:2px"/><line x1="2.83" y1="172.52" x2="7.68" y2="189.3" style="fill:none;stroke:#000;stroke-linecap:round;stroke-miterlimit:10;stroke-width:2px"/><line x1="7.52" y1="174.51" x2="10.62" y2="185.16" style="fill:none;stroke:#000;stroke-linecap:round;stroke-miterlimit:10;stroke-width:2px"/><line x1="18.81" y1="170.37" x2="22.31" y2="182.62" style="fill:none;stroke:#000;stroke-linecap:round;stroke-miterlimit:10;stroke-width:2px"/><line x1="9.59" y1="167.27" x2="16.26" y2="190.17" style="fill:none;stroke:#000;stroke-linecap:round;stroke-miterlimit:10;stroke-width:2px"/><polygon points="50.21 156.14 35.11 163.78 32.88 156.14 48.06 148.43 50.21 156.14" style="fill:none;stroke:#000;stroke-linejoin:round;stroke-width:2px"/><line x1="35.11" y1="163.78" x2="40.59" y2="182.78" style="fill:none;stroke:#000;stroke-miterlimit:10;stroke-width:2px"/><path d="M80.7,185.12l-1.51.47a4,4,0,0,1-4.93-2.7h0A4,4,0,0,1,77,178l5.32-1.51,1.12,3.82A3.85,3.85,0,0,1,80.7,185.12Z" transform="translate(-28.11 -6.55)" style="fill:none;stroke:#000;stroke-miterlimit:10;stroke-width:2px"/><path d="M66,194.34l-1.52.47a4,4,0,0,1-4.92-2.7h0a4,4,0,0,1,2.7-4.93l5.33-1.51,1.11,3.82A3.85,3.85,0,0,1,66,194.34Z" transform="translate(-28.11 -6.55)" style="fill:none;stroke:#000;stroke-miterlimit:10;stroke-width:2px"/><line x1="50.21" y1="156.14" x2="55.3" y2="173.55" style="fill:none;stroke:#000;stroke-miterlimit:10;stroke-width:2px"/><path d="M51.13,170.49l-1.19.32a3,3,0,0,1-3.74-2.07h0A3,3,0,0,1,48.27,165l4-1.19.88,2.94A3,3,0,0,1,51.13,170.49Z" transform="translate(-28.11 -6.55)" style="fill:none;stroke:#000;stroke-miterlimit:10;stroke-width:2px"/><path d="M55.58,155.54a7.64,7.64,0,0,0-3.1-4.13c-1.91-1-4.29-1.91-4.85-3.82l5.49,19.08" transform="translate(-28.11 -6.55)" style="fill:none;stroke:#000;stroke-linecap:round;stroke-miterlimit:10;stroke-width:2px"/></g><g style="opacity:0.07"><path d="M1046.23,235.2c-.24.63.4,1.27,1,1l38.24-16a1.49,1.49,0,0,0,1-1.59c-.24-2.62-4-8-9.31-13.35s-10.73-9.07-13.35-9.3a1.61,1.61,0,0,0-1.59.95Z" transform="translate(-28.11 -6.55)" style="fill:none;stroke:#000;stroke-linecap:round;stroke-miterlimit:10;stroke-width:2px"/><path d="M1086,219.86c-1.59,1.59-8-2.47-14.55-8.91s-10.41-13-8.9-14.55" transform="translate(-28.11 -6.55)" style="fill:none;stroke:#000;stroke-linecap:round;stroke-miterlimit:10;stroke-width:2px"/><polygon points="1023.45 227.85 1030.29 224.99 1027.34 206.62 1022.1 219.19 1023.45 227.85" style="fill:none;stroke:#000;stroke-linecap:round;stroke-miterlimit:10;stroke-width:2px"/><path d="M1062.61,196.4a1.43,1.43,0,0,0-.4.56l-1.27,3,4.61,28.54,5.56-2.3,1.27-.56-2.7-16.62C1064.35,203.24,1061.25,197.83,1062.61,196.4Z" transform="translate(-28.11 -6.55)" style="fill:none;stroke:#000;stroke-linecap:round;stroke-miterlimit:10;stroke-width:2px"/><rect x="1085.19" y="181.61" width="3.66" height="3.66" transform="translate(160.56 815.81) rotate(-45)" style="fill:none;stroke:#000;stroke-linecap:round;stroke-linejoin:round;stroke-width:2px"/><rect x="1092.97" y="210.16" width="3.66" height="3.66" transform="translate(142.65 829.67) rotate(-45)" style="fill:none;stroke:#000;stroke-linecap:round;stroke-linejoin:round;stroke-width:2px"/><circle cx="1081.25" cy="184.28" r="2.23" style="fill:none;stroke:#000;stroke-linecap:round;stroke-linejoin:round;stroke-width:2px"/><circle cx="1044.04" cy="181.66" r="2.23" style="fill:none;stroke:#000;stroke-linecap:round;stroke-linejoin:round;stroke-width:2px"/><path d="M1084.55,206.82a21.75,21.75,0,0,1,16.45-3" transform="translate(-28.11 -6.55)" style="fill:none;stroke:#000;stroke-linecap:round;stroke-linejoin:round;stroke-width:2px"/><path d="M1075.48,197.67a21.78,21.78,0,0,0,3-16.45" transform="translate(-28.11 -6.55)" style="fill:none;stroke:#000;stroke-linecap:round;stroke-linejoin:round;stroke-width:2px"/><line x1="1053.42" y1="193.9" x2="1066.46" y2="180.87" style="fill:none;stroke:#000;stroke-linecap:round;stroke-linejoin:round;stroke-width:2px"/><polygon points="1076.55 171.17 1074.73 174.9 1077.67 177.84 1073.53 177.21 1071.63 180.87 1070.99 176.81 1066.86 176.18 1070.59 174.27 1069.96 170.13 1072.9 173.07 1076.55 171.17" style="fill:none;stroke:#000;stroke-linecap:round;stroke-linejoin:round;stroke-width:2px"/><polygon points="1054.61 164.25 1053.42 166.72 1055.33 168.7 1052.63 168.23 1051.35 170.77 1050.88 167.99 1048.09 167.51 1050.64 166.24 1050.16 163.53 1052.15 165.52 1054.61 164.25" style="fill:none;stroke:#000;stroke-linecap:round;stroke-linejoin:round;stroke-width:2px"/><polygon points="1083.79 196.53 1081.16 195.65 1081.16 192.87 1079.5 195.1 1076.79 194.3 1078.46 196.53 1076.79 198.75 1079.5 197.96 1081.16 200.19 1081.16 197.4 1083.79 196.53" style="fill:none;stroke:#000;stroke-linecap:round;stroke-linejoin:round;stroke-width:2px"/></g><g style="opacity:0.07"><line x1="126.66" y1="102.24" x2="140.81" y2="104.31" style="fill:none;stroke:#000;stroke-linecap:round;stroke-miterlimit:10;stroke-width:2px"/><line x1="136.91" y1="82.05" x2="133.73" y2="103.28" style="fill:none;stroke:#000;stroke-linecap:round;stroke-miterlimit:10;stroke-width:2px"/><path d="M176.15,57l-6.36-1-6.36-1a53.1,53.1,0,0,0-3.5,13.2c-1.59,10.57.72,19.64,5,20.27h.16c4.29.64,9.06-7.39,10.57-18A45.58,45.58,0,0,0,176.15,57Z" transform="translate(-28.11 -6.55)" style="fill:none;stroke:#000;stroke-linecap:round;stroke-linejoin:round;stroke-width:2px"/><path d="M161,64.2c2.47.39,2.31,1.74,4.77,2.06s2.71-1,5.25-.63,2.31,1.75,4.85,2.06" transform="translate(-28.11 -6.55)" style="fill:none;stroke:#000;stroke-linecap:round;stroke-miterlimit:10;stroke-width:2px"/><line x1="161.64" y1="103.75" x2="175.63" y2="100.73" style="fill:none;stroke:#000;stroke-linecap:round;stroke-miterlimit:10;stroke-width:2px"/><line x1="164.1" y1="81.25" x2="168.63" y2="102.24" style="fill:none;stroke:#000;stroke-linecap:round;stroke-miterlimit:10;stroke-width:2px"/><path d="M191.57,54.26l-6.28,1.35L179,57a52.45,52.45,0,0,0,1.35,13.6c2.23,10.41,7.56,18.12,11.77,17.25h.16c4.21-1,5.88-10.1,3.58-20.59A42.91,42.91,0,0,0,191.57,54.26Z" transform="translate(-28.11 -6.55)" style="fill:none;stroke:#000;stroke-linecap:round;stroke-linejoin:round;stroke-width:2px"/><path d="M179.89,66.34c2.46-.55,2.78.8,5.24.32s2.15-1.91,4.69-2.38,2.79.79,5.25.23" transform="translate(-28.11 -6.55)" style="fill:none;stroke:#000;stroke-linecap:round;stroke-miterlimit:10;stroke-width:2px"/><line x1="149.23" y1="39.28" x2="149.23" y2="44.05" style="fill:none;stroke:#000;stroke-linecap:round;stroke-linejoin:round;stroke-width:2px"/><line x1="142.48" y1="42.06" x2="145.9" y2="45.48" style="fill:none;stroke:#000;stroke-linecap:round;stroke-linejoin:round;stroke-width:2px"/><line x1="155.99" y1="42.06" x2="152.65" y2="45.48" style="fill:none;stroke:#000;stroke-linecap:round;stroke-linejoin:round;stroke-width:2px"/></g><g style="opacity:0.07"><line x1="910.09" y1="66.86" x2="921.54" y2="75.52" style="fill:none;stroke:#000;stroke-linecap:round;stroke-miterlimit:10;stroke-width:2px"/><line x1="928.78" y1="54.14" x2="915.82" y2="71.23" style="fill:none;stroke:#000;stroke-linecap:round;stroke-miterlimit:10;stroke-width:2px"/><path d="M982,38.43l-5.09-3.9-5.09-3.89a50.54,50.54,0,0,0-9.46,9.86c-6.44,8.5-8.9,17.57-5.41,20.19a142166331906.3,142166331906.3,0,0,0,.16.16c3.5,2.62,11.53-2.15,18-10.65A59,59,0,0,0,982,38.43Z" transform="translate(-28.11 -6.55)" style="fill:none;stroke:#000;stroke-linecap:round;stroke-linejoin:round;stroke-width:2px"/><path d="M965.23,37.4c2,1.51,1.19,2.62,3.18,4.13s2.86.4,4.85,2,1.19,2.62,3.18,4.13" transform="translate(-28.11 -6.55)" style="fill:none;stroke:#000;stroke-linecap:round;stroke-miterlimit:10;stroke-width:2px"/><line x1="940.07" y1="85.06" x2="953.74" y2="89.2" style="fill:none;stroke:#000;stroke-linecap:round;stroke-miterlimit:10;stroke-width:2px"/><line x1="953.02" y1="66.62" x2="946.9" y2="87.13" style="fill:none;stroke:#000;stroke-linecap:round;stroke-miterlimit:10;stroke-width:2px"/><path d="M996.79,43.44l-6.12-1.83-6.12-1.83a50.47,50.47,0,0,0-5.41,12.56c-3.1,10.26-2.14,19.56,2,20.83h.16c4.13,1.27,10-6,13.12-16.3A51,51,0,0,0,996.79,43.44Z" transform="translate(-28.11 -6.55)" style="fill:none;stroke:#000;stroke-linecap:round;stroke-linejoin:round;stroke-width:2px"/><path d="M980.73,48.37c2.39.71,2,2.06,4.46,2.78s2.78-.56,5.24.16,2.07,2.07,4.46,2.78" transform="translate(-28.11 -6.55)" style="fill:none;stroke:#000;stroke-linecap:round;stroke-miterlimit:10;stroke-width:2px"/><line x1="960.34" y1="22.65" x2="958.03" y2="26.87" style="fill:none;stroke:#000;stroke-linecap:round;stroke-linejoin:round;stroke-width:2px"/><line x1="953.02" y1="21.86" x2="954.38" y2="26.47" style="fill:none;stroke:#000;stroke-linecap:round;stroke-linejoin:round;stroke-width:2px"/><line x1="964.87" y1="28.38" x2="960.26" y2="29.73" style="fill:none;stroke:#000;stroke-linecap:round;stroke-linejoin:round;stroke-width:2px"/></g><g style="opacity:0.07"><circle cx="1088.69" cy="52.4" r="4.77" style="fill:none;stroke:#000;stroke-linecap:round;stroke-miterlimit:10;stroke-width:2px"/><path d="M1120.06,63.08a.76.76,0,0,0-1.19.72l4.61,28.62,20,6.68c6-3.9,9.07-7,10.58-8.91a2.32,2.32,0,0,0-.48-3.26Z" transform="translate(-28.11 -6.55)" style="fill:none;stroke:#000;stroke-linecap:round;stroke-miterlimit:10;stroke-width:2px"/><path d="M1150.51,101.48a2.27,2.27,0,0,1,1.43,2.94c-1,2.39-3.26,6.76-8.51,12.8s-9.3,8.91-11.53,10.18a2.26,2.26,0,0,1-3.1-1l-18.12-37a.75.75,0,0,1,1-1Z" transform="translate(-28.11 -6.55)" style="fill:none;stroke:#000;stroke-linecap:round;stroke-miterlimit:10;stroke-width:2px"/><polygon points="1075.58 75.85 1079.47 76.96 1082.65 74.26 1082.81 78.39 1086.31 80.46 1082.49 81.97 1081.54 85.94 1078.99 82.77 1074.94 83.08 1077.09 79.67 1075.58 75.85" style="fill:none;stroke:#000;stroke-linecap:round;stroke-linejoin:round;stroke-width:2px"/><polyline points="1113.18 91.83 1112.86 97.31 1107.53 98.27 1107.22 103.67 1101.89 104.71 1101.65 110.11 1096.24 111.15" style="fill:none;stroke:#000;stroke-linejoin:round;stroke-width:2px"/><polyline points="1100.3 87.53 1100.06 92.39 1095.29 93.26 1095.05 98.11 1090.28 98.98" style="fill:none;stroke:#000;stroke-linejoin:round;stroke-width:2px"/><circle cx="1112.22" cy="77.52" r="2.62" style="fill:none;stroke:#000;stroke-linecap:round;stroke-linejoin:round;stroke-width:2px"/><circle cx="1099.11" cy="75.21" r="2.62" style="fill:none;stroke:#000;stroke-linecap:round;stroke-linejoin:round;stroke-width:2px"/><path d="M1138,97.27a2.59,2.59,0,0,0-.72-2.94,2.64,2.64,0,0,0-3.74.23,3.5,3.5,0,0,0-.55,1Z" transform="translate(-28.11 -6.55)" style="fill:none;stroke:#000;stroke-linecap:round;stroke-linejoin:round;stroke-width:2px"/><path d="M1126.5,67.69a2.12,2.12,0,0,0-.48.4,2.65,2.65,0,0,0,4,3.5,7.23,7.23,0,0,0,.55-1Z" transform="translate(-28.11 -6.55)" style="fill:none;stroke:#000;stroke-linecap:round;stroke-miterlimit:10;stroke-width:2px"/></g><g style="opacity:0.07"><path d="M259.7,78.51s-.63-2.47.72-3.26,3.18,1,3.18,1Z" transform="translate(-28.11 -6.55)" style="fill:none;stroke:#000;stroke-linecap:round;stroke-linejoin:round;stroke-width:2px"/><path d="M262,78c1.27,2.15.08,2.78,1.35,4.93s2.94,1.19,4.14,3.34.07,2.78,1.35,5" transform="translate(-28.11 -6.55)" style="fill:none;stroke:#000;stroke-linecap:round;stroke-miterlimit:10;stroke-width:2px"/><path d="M255.65,52.51a19.84,19.84,0,0,1-.16-5.33,11.63,11.63,0,0,0-10.49,1c-7.56,4.37-7.56,12.56-4.06,18.68s12.4,12.32,19.48,8.27a10.8,10.8,0,0,0,5-7.16C260.18,64.75,256.52,58.15,255.65,52.51Z" transform="translate(-28.11 -6.55)" style="fill:none;stroke:#000;stroke-linecap:round;stroke-miterlimit:10;stroke-width:2px"/><path d="M285.7,47.66c1.35,8.27-2.3,20.59-11.84,22.18S257,60.78,255.65,52.51,257.72,35,268,33.35,284.35,39.39,285.7,47.66Z" transform="translate(-28.11 -6.55)" style="fill:none;stroke:#000;stroke-linecap:round;stroke-miterlimit:10;stroke-width:2px"/><path d="M281.09,46.07a10.44,10.44,0,0,1,.64,2.62" transform="translate(-28.11 -6.55)" style="fill:none;stroke:#000;stroke-linecap:round;stroke-miterlimit:10;stroke-width:2px"/><path d="M268.77,38.2a10.45,10.45,0,0,1,11.29,5.48" transform="translate(-28.11 -6.55)" style="fill:none;stroke:#000;stroke-linecap:round;stroke-miterlimit:10;stroke-width:2px"/><path d="M271.71,73.34s.32-3,2.15-3.34,3.1,2.46,3.1,2.46Z" transform="translate(-28.11 -6.55)" style="fill:none;stroke:#000;stroke-linecap:round;stroke-linejoin:round;stroke-width:2px"/><path d="M274.49,73.66c.48,2.94-1,3.18-.56,6.12s2.79,2.54,3.26,5.48-1,3.18-.55,6.12" transform="translate(-28.11 -6.55)" style="fill:none;stroke:#000;stroke-linecap:round;stroke-miterlimit:10;stroke-width:2px"/></g><g style="opacity:0.07"><path d="M705.54,67.69l-.87.16a2.26,2.26,0,0,1-2.55-1.91h0A2.26,2.26,0,0,1,704,63.4l3.18-.4.32,2.23A2.22,2.22,0,0,1,705.54,67.69Z" transform="translate(-28.11 -6.55)" style="fill:none;stroke:#000;stroke-miterlimit:10;stroke-width:2px"/><path d="M710.55,57a5.94,5.94,0,0,0-1.83-3.42c-1.27-.95-3-1.91-3.26-3.34l2.07,14.79" transform="translate(-28.11 -6.55)" style="fill:none;stroke:#000;stroke-linecap:round;stroke-miterlimit:10;stroke-width:2px"/><path d="M721.6,58.71l-1,.64a3.09,3.09,0,0,1-4.21-1h0a3.07,3.07,0,0,1,.95-4.21l3.58-2.31,1.59,2.55A3.07,3.07,0,0,1,721.6,58.71Z" transform="translate(-28.11 -6.55)" style="fill:none;stroke:#000;stroke-miterlimit:10;stroke-width:2px"/><path d="M721.68,43.05a7.49,7.49,0,0,0-4.13-3.1c-2.15-.48-4.69-.64-5.73-2.31l10.66,16.78" transform="translate(-28.11 -6.55)" style="fill:none;stroke:#000;stroke-linecap:round;stroke-miterlimit:10;stroke-width:2px"/><path d="M678.75,36.93a11.91,11.91,0,0,0-8.27,14.7,12,12,0,0,0,6,7.4l15.58-4.37a12.2,12.2,0,0,0,1.35-9.47A11.92,11.92,0,0,0,678.75,36.93Z" transform="translate(-28.11 -6.55)" style="fill:none;stroke:#000;stroke-miterlimit:10;stroke-width:2px"/><line x1="643.25" y1="47.31" x2="665.75" y2="41.03" style="fill:none;stroke:#000;stroke-miterlimit:10;stroke-width:2px"/><path d="M695.21,88.44l-4.29,1.2a2.45,2.45,0,0,1-2.87-1.44L676.6,59l15.59-4.37L697,85.74A2.39,2.39,0,0,1,695.21,88.44Z" transform="translate(-28.11 -6.55)" style="fill:none;stroke:#000;stroke-miterlimit:10;stroke-width:2px"/><path d="M692.82,89.16l.24,1a8.65,8.65,0,0,0,10.65,6l.16-.08a8.67,8.67,0,0,0,6-10.66h0a8.94,8.94,0,0,1,6.2-11l15.5-4.37" transform="translate(-28.11 -6.55)" style="fill:none;stroke:#000;stroke-linecap:round;stroke-miterlimit:10;stroke-width:2px"/><path d="M687.42,67.53h0a1.58,1.58,0,0,1-2-1.11l-.64-2.3a1.6,1.6,0,0,1,1.12-2h0a1.58,1.58,0,0,1,2,1.11l.64,2.31A1.72,1.72,0,0,1,687.42,67.53Z" transform="translate(-28.11 -6.55)" style="fill:none;stroke:#000;stroke-miterlimit:10;stroke-width:2px"/></g><g style="opacity:0.07"><path d="M324.1,139.64h0a3.56,3.56,0,0,0,3.58-3.58h0a3.56,3.56,0,0,0,3.57,3.58h0a3.56,3.56,0,0,0-3.57,3.58h0A3.56,3.56,0,0,0,324.1,139.64Z" transform="translate(-28.11 -6.55)" style="fill:none;stroke:#000;stroke-linecap:round;stroke-linejoin:round;stroke-width:2px"/><path d="M317.74,130.42h0a5,5,0,0,0,5-5h0a5,5,0,0,0,5,5h0a5,5,0,0,0-5,5h0A5.1,5.1,0,0,0,317.74,130.42Z" transform="translate(-28.11 -6.55)" style="fill:none;stroke:#000;stroke-linecap:round;stroke-linejoin:round;stroke-width:2px"/><path d="M275.13,169.45h0a3.56,3.56,0,0,0,3.57-3.57h0a3.56,3.56,0,0,0,3.58,3.57h0A3.56,3.56,0,0,0,278.7,173h0A3.56,3.56,0,0,0,275.13,169.45Z" transform="translate(-28.11 -6.55)" style="fill:none;stroke:#000;stroke-linecap:round;stroke-linejoin:round;stroke-width:2px"/><circle cx="274.69" cy="147.64" r="22.74" style="fill:none;stroke:#000;stroke-linecap:round;stroke-linejoin:round;stroke-width:2px"/><line x1="274.69" y1="129.91" x2="274.69" y2="165.45" style="fill:none;stroke:#000;stroke-linecap:round;stroke-linejoin:round;stroke-width:2px"/><path d="M294.76,136.46a49.84,49.84,0,0,0,0,35.46" transform="translate(-28.11 -6.55)" style="fill:none;stroke:#000;stroke-linecap:round;stroke-linejoin:round;stroke-width:2px"/><path d="M310.9,172a49.84,49.84,0,0,0,0-35.46" transform="translate(-28.11 -6.55)" style="fill:none;stroke:#000;stroke-linecap:round;stroke-linejoin:round;stroke-width:2px"/><line x1="292.42" y1="147.64" x2="256.96" y2="147.64" style="fill:none;stroke:#000;stroke-linecap:round;stroke-linejoin:round;stroke-width:2px"/><line x1="292.42" y1="147.64" x2="256.96" y2="147.64" style="fill:none;stroke:#000;stroke-linecap:round;stroke-linejoin:round;stroke-width:2px"/><line x1="293.85" y1="147.64" x2="255.53" y2="147.64" style="fill:none;stroke:#000;stroke-linecap:round;stroke-linejoin:round;stroke-width:2px"/><path d="M320.52,146.16a49.84,49.84,0,0,0-35.46,0" transform="translate(-28.11 -6.55)" style="fill:none;stroke:#000;stroke-linecap:round;stroke-linejoin:round;stroke-width:2px"/><path d="M285.06,162.3a49.84,49.84,0,0,0,35.46,0" transform="translate(-28.11 -6.55)" style="fill:none;stroke:#000;stroke-linecap:round;stroke-linejoin:round;stroke-width:2px"/><line x1="274.69" y1="166.8" x2="274.69" y2="128.48" style="fill:none;stroke:#000;stroke-linecap:round;stroke-linejoin:round;stroke-width:2px"/><line x1="274.69" y1="121.72" x2="274.69" y2="111.78" style="fill:none;stroke:#000;stroke-linecap:round;stroke-linejoin:round;stroke-width:2px"/><path d="M302.79,131.53c1,0,1.91.08,2.79.16,0-.16.08-.32.08-.55a2.87,2.87,0,1,0-5.73,0,1.34,1.34,0,0,0,.08.55A16.21,16.21,0,0,1,302.79,131.53Z" transform="translate(-28.11 -6.55)" style="fill:none;stroke:#000;stroke-linecap:round;stroke-linejoin:round;stroke-width:2px"/></g><g style="opacity:0.07"><path d="M766.46,259h0a3.56,3.56,0,0,0,3.58-3.57h0a3.56,3.56,0,0,0,3.58,3.57h0a3.56,3.56,0,0,0-3.58,3.58h0A3.56,3.56,0,0,0,766.46,259Z" transform="translate(-28.11 -6.55)" style="fill:none;stroke:#000;stroke-linecap:round;stroke-linejoin:round;stroke-width:2px"/><path d="M760.1,249.79h0a5,5,0,0,0,5-5h0a5,5,0,0,0,5,5h0a5,5,0,0,0-5,5h0A5.1,5.1,0,0,0,760.1,249.79Z" transform="translate(-28.11 -6.55)" style="fill:none;stroke:#000;stroke-linecap:round;stroke-linejoin:round;stroke-width:2px"/><path d="M717.49,288.83h0a3.56,3.56,0,0,0,3.58-3.58h0a3.56,3.56,0,0,0,3.57,3.58h0a3.56,3.56,0,0,0-3.57,3.57h0A3.56,3.56,0,0,0,717.49,288.83Z" transform="translate(-28.11 -6.55)" style="fill:none;stroke:#000;stroke-linecap:round;stroke-linejoin:round;stroke-width:2px"/><circle cx="717.05" cy="267.01" r="22.74" style="fill:none;stroke:#000;stroke-linecap:round;stroke-linejoin:round;stroke-width:2px"/><line x1="717.05" y1="249.28" x2="717.05" y2="284.82" style="fill:none;stroke:#000;stroke-linecap:round;stroke-linejoin:round;stroke-width:2px"/><path d="M737.13,255.83a49.84,49.84,0,0,0,0,35.46" transform="translate(-28.11 -6.55)" style="fill:none;stroke:#000;stroke-linecap:round;stroke-linejoin:round;stroke-width:2px"/><path d="M753.26,291.37a49.84,49.84,0,0,0,0-35.46" transform="translate(-28.11 -6.55)" style="fill:none;stroke:#000;stroke-linecap:round;stroke-linejoin:round;stroke-width:2px"/><line x1="734.78" y1="267.01" x2="699.32" y2="267.01" style="fill:none;stroke:#000;stroke-linecap:round;stroke-linejoin:round;stroke-width:2px"/><line x1="734.78" y1="267.01" x2="699.32" y2="267.01" style="fill:none;stroke:#000;stroke-linecap:round;stroke-linejoin:round;stroke-width:2px"/><line x1="736.21" y1="267.01" x2="697.89" y2="267.01" style="fill:none;stroke:#000;stroke-linecap:round;stroke-linejoin:round;stroke-width:2px"/><path d="M762.88,265.53a49.82,49.82,0,0,0-35.45,0" transform="translate(-28.11 -6.55)" style="fill:none;stroke:#000;stroke-linecap:round;stroke-linejoin:round;stroke-width:2px"/><path d="M727.43,281.67a49.82,49.82,0,0,0,35.45,0" transform="translate(-28.11 -6.55)" style="fill:none;stroke:#000;stroke-linecap:round;stroke-linejoin:round;stroke-width:2px"/><line x1="717.05" y1="286.17" x2="717.05" y2="247.85" style="fill:none;stroke:#000;stroke-linecap:round;stroke-linejoin:round;stroke-width:2px"/><line x1="717.05" y1="241.09" x2="717.05" y2="231.16" style="fill:none;stroke:#000;stroke-linecap:round;stroke-linejoin:round;stroke-width:2px"/><path d="M745.16,250.91c1,0,1.9.07,2.78.15,0-.15.08-.31.08-.55a2.87,2.87,0,0,0-5.73,0,1.29,1.29,0,0,0,.08.55A17.4,17.4,0,0,1,745.16,250.91Z" transform="translate(-28.11 -6.55)" style="fill:none;stroke:#000;stroke-linecap:round;stroke-linejoin:round;stroke-width:2px"/></g><g style="opacity:0.07"><path d="M1238.67,176.37h0a3.56,3.56,0,0,0,3.58-3.58h0a3.56,3.56,0,0,0,3.58,3.58h0a3.56,3.56,0,0,0-3.58,3.58h0A3.67,3.67,0,0,0,1238.67,176.37Z" transform="translate(-28.11 -6.55)" style="fill:none;stroke:#000;stroke-linecap:round;stroke-linejoin:round;stroke-width:2px"/><path d="M1232.23,167.15h0a5,5,0,0,0,5-5h0a5,5,0,0,0,5,5h0a5,5,0,0,0-5,5h0A5,5,0,0,0,1232.23,167.15Z" transform="translate(-28.11 -6.55)" style="fill:none;stroke:#000;stroke-linecap:round;stroke-linejoin:round;stroke-width:2px"/><path d="M1189.62,206.18h0a3.56,3.56,0,0,0,3.58-3.57h0a3.56,3.56,0,0,0,3.58,3.57h0a3.56,3.56,0,0,0-3.58,3.58h0A3.56,3.56,0,0,0,1189.62,206.18Z" transform="translate(-28.11 -6.55)" style="fill:none;stroke:#000;stroke-linecap:round;stroke-linejoin:round;stroke-width:2px"/><circle cx="1189.26" cy="184.37" r="22.74" style="fill:none;stroke:#000;stroke-linecap:round;stroke-linejoin:round;stroke-width:2px"/><line x1="1189.26" y1="166.64" x2="1189.26" y2="202.17" style="fill:none;stroke:#000;stroke-linecap:round;stroke-linejoin:round;stroke-width:2px"/><path d="M1209.26,173.19a49.84,49.84,0,0,0,0,35.46" transform="translate(-28.11 -6.55)" style="fill:none;stroke:#000;stroke-linecap:round;stroke-linejoin:round;stroke-width:2px"/><path d="M1225.4,208.73a49.84,49.84,0,0,0,0-35.46" transform="translate(-28.11 -6.55)" style="fill:none;stroke:#000;stroke-linecap:round;stroke-linejoin:round;stroke-width:2px"/><line x1="1206.99" y1="184.37" x2="1171.45" y2="184.37" style="fill:none;stroke:#000;stroke-linecap:round;stroke-linejoin:round;stroke-width:2px"/><line x1="1206.99" y1="184.37" x2="1171.45" y2="184.37" style="fill:none;stroke:#000;stroke-linecap:round;stroke-linejoin:round;stroke-width:2px"/><line x1="1208.42" y1="184.37" x2="1170.1" y2="184.37" style="fill:none;stroke:#000;stroke-linecap:round;stroke-linejoin:round;stroke-width:2px"/><path d="M1235.1,182.89a49.84,49.84,0,0,0-35.46,0" transform="translate(-28.11 -6.55)" style="fill:none;stroke:#000;stroke-linecap:round;stroke-linejoin:round;stroke-width:2px"/><path d="M1199.56,199a49.84,49.84,0,0,0,35.46,0" transform="translate(-28.11 -6.55)" style="fill:none;stroke:#000;stroke-linecap:round;stroke-linejoin:round;stroke-width:2px"/><line x1="1189.26" y1="203.61" x2="1189.26" y2="165.21" style="fill:none;stroke:#000;stroke-linecap:round;stroke-linejoin:round;stroke-width:2px"/><line x1="1189.26" y1="158.45" x2="1189.26" y2="148.51" style="fill:none;stroke:#000;stroke-linecap:round;stroke-linejoin:round;stroke-width:2px"/><path d="M1217.37,168.26c1,0,1.91.08,2.78.16,0-.16.08-.32.08-.56a2.86,2.86,0,0,0-5.72,0,1.54,1.54,0,0,0,.07.56A15.87,15.87,0,0,1,1217.37,168.26Z" transform="translate(-28.11 -6.55)" style="fill:none;stroke:#000;stroke-linecap:round;stroke-linejoin:round;stroke-width:2px"/></g><g style="opacity:0.07"><path d="M428.29,168.09c.08,0,.16.16.32.16s.24.08.32,0c.24,0,6-.48,8.35-4.38a4.54,4.54,0,0,0-.8-5.88,3.73,3.73,0,0,0-4.37-.4,3.81,3.81,0,0,0-3.82-2.22,4.45,4.45,0,0,0-4.05,4.29C423.68,164.19,428.05,167.93,428.29,168.09ZM428.21,157a3.59,3.59,0,0,1,.88.08,2.73,2.73,0,0,1,1.67,1.9.79.79,0,0,0,.55.56.93.93,0,0,0,.8-.16,2.38,2.38,0,0,1,3.26-.24,3,3,0,0,1,.47,3.82c-1.59,2.62-5.56,3.42-6.75,3.5-.88-.8-3.66-3.66-3.42-6.76A2.82,2.82,0,0,1,428.21,157Z" transform="translate(-28.11 -6.55)"/><path d="M409,166.89a.8.8,0,0,0,.48,1l11.37,3.66a.81.81,0,0,0,.56-1.52l-4.93-1.59h0l5.72-17.88c4.13.32,9.62-6.68,12.8-16.7a122.82,122.82,0,0,0,3.5-13.83.78.78,0,0,0-.56-.88l-12-3.81a.73.73,0,0,0-1,.4,111.09,111.09,0,0,0-5.16,13.27c-3.18,10-2.79,18.92.79,21.07L414.86,168h0l-4.93-1.59A.75.75,0,0,0,409,166.89Zm17.18-49.76,10.57,3.42c-.48,2.86-2,8.26-2.94,11.52a3.69,3.69,0,0,1-2.23-.16,5.11,5.11,0,0,1-2.62-2.14,6.19,6.19,0,0,0-3.42-2.78,5.42,5.42,0,0,0-3.18-.08A76.66,76.66,0,0,1,426.15,117.13Zm-4.77,12.4c.08-.24.15-.56.23-.8a4.53,4.53,0,0,1,3.42-.23,5.17,5.17,0,0,1,2.63,2.14,6.16,6.16,0,0,0,3.41,2.78,5.36,5.36,0,0,0,2.15.24c-3.26,10-8.58,16.06-11.53,15.11C419,148,418,139.86,421.38,129.53Z" transform="translate(-28.11 -6.55)"/><path d="M445.46,158c4.14.32,9.62-6.68,12.8-16.69a121.4,121.4,0,0,0,3.5-13.84.77.77,0,0,0-.55-.87l-12-3.82a.72.72,0,0,0-.95.4c-1.51,2.78-4.14,10.18-5.17,13.28-3.18,10-2.78,18.92.79,21.06l-5.72,17.89h0l-4.93-1.59a.81.81,0,0,0-.56,1.51L444,179a.8.8,0,0,0,1-.48.79.79,0,0,0-.48-1L439.74,176h0l5.72-18Zm3.9-33.39L460,128c-.47,2.86-2,8.27-2.94,11.53a3.66,3.66,0,0,1-2.22-.16,5.15,5.15,0,0,1-2.63-2.15,6.19,6.19,0,0,0-3.42-2.78,5.43,5.43,0,0,0-3.18-.08C446.74,131.12,448.33,126.91,449.36,124.6ZM444.67,137c.08-.24.16-.55.24-.79a4.47,4.47,0,0,1,3.42-.24,5.16,5.16,0,0,1,2.62,2.15,6.27,6.27,0,0,0,3.42,2.78,5.31,5.31,0,0,0,2.14.24c-3.25,10-8.58,16.06-11.52,15.1C442.28,155.45,441.41,147.26,444.67,137Z" transform="translate(-28.11 -6.55)"/></g><g style="opacity:0.07"><path d="M508.2,181.39a2.51,2.51,0,0,0-1,2.62,2.67,2.67,0,0,0-2.07,2,2.78,2.78,0,0,0,1.83,3.18,5.78,5.78,0,0,0,4.53-.48c.72-.31,1.19-.63,1.27-.63a1.1,1.1,0,0,0,.24-.32c0-.16.8-3.74-1.11-5.8A2.78,2.78,0,0,0,508.2,181.39Zm3.82,5.88c-.64.4-2.86,1.59-4.69.88a1.73,1.73,0,0,1-1.2-2,1.44,1.44,0,0,1,.8-1,2.87,2.87,0,0,1,.87-.16.69.69,0,0,0,.48-.24,1,1,0,0,0,.08-.48,1.56,1.56,0,0,1,.48-2,1.79,1.79,0,0,1,2.3.4C512.41,184,512.1,186.56,512,187.27Z" transform="translate(-28.11 -6.55)"/><path d="M509.16,198.88a3,3,0,0,0-.88,4c1.35,2.78,5.41,3.41,5.57,3.49h.31a.08.08,0,0,0,.08-.08c.16-.08,3.5-2.46,3.5-5.56a3.08,3.08,0,0,0-2.54-3.18,2.66,2.66,0,0,0-2.86,1.35A2.61,2.61,0,0,0,509.16,198.88ZM512.1,200a.57.57,0,0,0,.47.16.8.8,0,0,0,.4-.32,1.77,1.77,0,0,1,2-1.35,2.12,2.12,0,0,1,1.67,2.15c0,2.23-2.23,4.05-2.86,4.53-.8-.16-3.58-.87-4.54-2.86a2.1,2.1,0,0,1,.56-2.7.42.42,0,0,1,.32-.16A1.9,1.9,0,0,1,512.1,200Z" transform="translate(-28.11 -6.55)"/><path d="M488.17,227.58a2.89,2.89,0,0,0,1.67,3.42c2,.95,4.45.08,5.56-.4a2.08,2.08,0,0,1,.56-.24c.08-.08.24-.16.24-.32s1.11-3.81-.64-6a2.9,2.9,0,0,0-3.74-.87,2.82,2.82,0,0,0-1.35,2.62A2.82,2.82,0,0,0,488.17,227.58Zm2.86-.8a1.12,1.12,0,0,0,.48-.15.53.53,0,0,0,.08-.48,1.59,1.59,0,0,1,.63-2.07,1.8,1.8,0,0,1,2.39.64c1.27,1.59.71,4.21.55,4.93-.71.31-3.1,1.43-4.93.55a1.87,1.87,0,0,1-1.11-2.22,1.38,1.38,0,0,1,.8-1A1.46,1.46,0,0,1,491,226.78Z" transform="translate(-28.11 -6.55)"/><path d="M506.93,193.32c-1.75-.48-4,1-4.06,1a9.13,9.13,0,0,0-4.05,5.25,8.84,8.84,0,0,1-5.17-4,10,10,0,0,0-5.88-4.53,9.52,9.52,0,0,0-7.23,1,.52.52,0,0,0-.16.72.51.51,0,0,0,.71.16,8.76,8.76,0,0,1,6.44-.88,8.94,8.94,0,0,1,5.25,4.06,9.52,9.52,0,0,0,5.8,4.45,9.63,9.63,0,0,0,1.27,7c2.71,4.61,8.75,6.36,13.2,3.81h.08l.72-.4a8.7,8.7,0,0,1,6.44-.87,9,9,0,0,1,5.24,4.05.54.54,0,0,0,.64.24h.08a.51.51,0,0,0,.16-.71,9.9,9.9,0,0,0-5.89-4.53,9.53,9.53,0,0,0-7.23.95l-.72.4A8.93,8.93,0,0,1,500.65,207a8.6,8.6,0,0,1-1.11-6.2,9.16,9.16,0,0,0,6.28-1.11c.08-.08,2.38-1.28,2.86-3.11a2.18,2.18,0,0,0-.24-2A2.59,2.59,0,0,0,506.93,193.32Zm.79,3c-.39,1.35-2.38,2.46-2.38,2.46a8.14,8.14,0,0,1-5.57,1,8.94,8.94,0,0,1,3.58-4.61,5.72,5.72,0,0,1,3.26-.87,1.44,1.44,0,0,1,1,.71A1.47,1.47,0,0,1,507.72,196.34Z" transform="translate(-28.11 -6.55)"/><path d="M486.34,206.19h0l.71-.31a6.84,6.84,0,0,1,5.33-.08,7.6,7.6,0,0,1,4,3.73,7.09,7.09,0,0,1,.39,4.93,7.49,7.49,0,0,0-5.24.48h0a5.17,5.17,0,0,0-2.71,2.3,2,2,0,0,0,0,1.67,2.21,2.21,0,0,0,1.2,1.2,4.93,4.93,0,0,0,3.49-.48,7.64,7.64,0,0,0,3.82-3.9,6.89,6.89,0,0,1,3.74,3.58,8,8,0,0,0,10.57,3.9.54.54,0,0,0-.48-1h0a7,7,0,0,1-9.22-3.42,7.68,7.68,0,0,0-4.29-4.05,8.35,8.35,0,0,0-.4-5.72,8.12,8.12,0,0,0-4.53-4.22,7.82,7.82,0,0,0-6.12.08h0l-.64.32h0a7,7,0,0,1-9.22-3.42.5.5,0,0,0-.72-.24h0a.51.51,0,0,0-.23.72,7.79,7.79,0,0,0,4.45,4.13A8.09,8.09,0,0,0,486.34,206.19Zm6.76,12.57a4.24,4.24,0,0,1-2.71.39c-.31-.08-.47-.32-.63-.63a.86.86,0,0,1,0-.88,4.38,4.38,0,0,1,2.06-1.75c.08,0,.08,0,.08-.08h0a7.21,7.21,0,0,1,4.46-.47A6.88,6.88,0,0,1,493.1,218.76Z" transform="translate(-28.11 -6.55)"/><path d="M487.77,213.91a2.65,2.65,0,1,0-3.5-1.36A2.6,2.6,0,0,0,487.77,213.91Zm-1.83-3.9a1.62,1.62,0,1,1-.79,2.15A1.63,1.63,0,0,1,485.94,210Z" transform="translate(-28.11 -6.55)"/><path d="M482,199a2.7,2.7,0,0,0,3.49,1.35,2.76,2.76,0,0,0,1.36-3.5,2.72,2.72,0,0,0-3.5-1.35A2.53,2.53,0,0,0,482,199Zm3.89-1.75a1.62,1.62,0,1,1-2.14-.79A1.62,1.62,0,0,1,485.86,197.21Z" transform="translate(-28.11 -6.55)"/><path d="M498.74,192a2.7,2.7,0,0,0,1.35-3.49,2.75,2.75,0,0,0-3.5-1.36,2.65,2.65,0,1,0,2.15,4.85Zm-1.83-4a1.62,1.62,0,1,1,1.35,2.94,1.67,1.67,0,0,1-2.14-.79A1.63,1.63,0,0,1,496.91,188Z" transform="translate(-28.11 -6.55)"/><path d="M519.49,213.83a2.65,2.65,0,1,0,3.5,1.35A2.59,2.59,0,0,0,519.49,213.83Zm1.83,3.89a1.62,1.62,0,1,1,.79-2.14A1.6,1.6,0,0,1,521.32,217.72Z" transform="translate(-28.11 -6.55)"/><path d="M508,218a2.65,2.65,0,1,0,1.35-3.5A2.67,2.67,0,0,0,508,218Zm3.9-1.83a1.62,1.62,0,1,1-2.15-.79A1.63,1.63,0,0,1,511.86,216.21Z" transform="translate(-28.11 -6.55)"/></g><g style="opacity:0.07"><path d="M885.47,227.32a2.53,2.53,0,0,0-2.57,1.17,2.64,2.64,0,0,0-2.86,0,2.79,2.79,0,0,0-.9,3.56,5.79,5.79,0,0,0,3.59,2.8c.74.27,1.3.38,1.36.43a1,1,0,0,0,.39-.06c.11-.12,3.17-2.14,3.23-5A2.79,2.79,0,0,0,885.47,227.32Zm-1.34,6.88c-.74-.15-3.17-.84-4-2.63a1.72,1.72,0,0,1,.52-2.26,1.45,1.45,0,0,1,1.29-.19,2.93,2.93,0,0,1,.74.5.69.69,0,0,0,.51.16,1.05,1.05,0,0,0,.39-.29,1.56,1.56,0,0,1,1.72-1.1,1.78,1.78,0,0,1,1.38,1.89C886.68,232.14,884.68,233.74,884.13,234.2Z" transform="translate(-28.11 -6.55)"/><path d="M874,240.56a3,3,0,0,0-3.39,2.25c-1,2.94,1.51,6.21,1.57,6.38l.23.22a.07.07,0,0,0,.11,0c.17.05,4.23.66,6.38-1.57a3.07,3.07,0,0,0,.38-4.05,7.28,7.28,0,0,1-5.28-3.23Zm1.34,2.84a.62.62,0,0,0,.23.45.82.82,0,0,0,.51.05,1.77,1.77,0,0,1,2.37.41,2.11,2.11,0,0,1-.29,2.7c-1.55,1.6-4.42,1.37-5.21,1.27-.46-.67-2-3.12-1.27-5.21a2.09,2.09,0,0,1,2.28-1.55.38.38,0,0,1,.34.1A1.88,1.88,0,0,1,875.34,243.4Z" transform="translate(-28.11 -6.55)"/><path d="M839,246.61a2.88,2.88,0,0,0-1.17,3.61c.76,2.07,3.14,3.16,4.28,3.59a2.21,2.21,0,0,1,.56.21c.11,0,.28,0,.39-.06s3.46-2,3.75-4.79a2.9,2.9,0,0,0-2.08-3.22,7.09,7.09,0,0,1-5.73.66Zm2.61,1.41a1.16,1.16,0,0,0,.46.22c.17-.06.33-.12.39-.29a1.57,1.57,0,0,1,1.89-1,1.8,1.8,0,0,1,1.27,2.11c-.19,2-2.41,3.53-3,3.94-.74-.27-3.23-1.13-3.93-3a1.87,1.87,0,0,1,.74-2.37,1.36,1.36,0,0,1,1.24-.14A1.46,1.46,0,0,1,841.57,248Z" transform="translate(-28.11 -6.55)"/><path d="M876.27,235c-.93-1.56-3.52-2.08-3.58-2.13a9.11,9.11,0,0,0-6.56,1,8.77,8.77,0,0,1-1-6.45,9.88,9.88,0,0,0-1.09-7.34,9.52,9.52,0,0,0-5.86-4.35.52.52,0,0,0-.61.41.52.52,0,0,0,.4.61,8.68,8.68,0,0,1,5.24,3.85,8.94,8.94,0,0,1,1,6.56,9.44,9.44,0,0,0,1.07,7.23,9.64,9.64,0,0,0-3.94,5.92,9.91,9.91,0,0,0,6.83,11.91h0l.06.06h0l.79.21a8.71,8.71,0,0,1,5.24,3.85,8.89,8.89,0,0,1,1,6.56.54.54,0,0,0,.29.61l.06.06a.52.52,0,0,0,.61-.41,9.83,9.83,0,0,0-1.08-7.34,9.58,9.58,0,0,0-5.86-4.35l-.79-.21a8.92,8.92,0,0,1-6.2-10.74,8.64,8.64,0,0,1,3.51-5.24,9.17,9.17,0,0,0,5.29,3.57c.11,0,2.6.74,4.21-.24a2.21,2.21,0,0,0,1.21-1.6A2.66,2.66,0,0,0,876.27,235Zm-1.53,2.73c-1.22.69-3.43.11-3.43.11a8.11,8.11,0,0,1-4.72-3.13,8.86,8.86,0,0,1,5.78-.82,5.6,5.6,0,0,1,3,1.63,1.45,1.45,0,0,1,.19,1.18A1.43,1.43,0,0,1,874.74,237.74Z" transform="translate(-28.11 -6.55)"/><path d="M852.51,230h0l.74.27a6.83,6.83,0,0,1,3.88,3.64,7.61,7.61,0,0,1,.26,5.45,7.06,7.06,0,0,1-3.14,3.82,7.47,7.47,0,0,0-4.1-3.3h0a5.16,5.16,0,0,0-3.55-.22,2,2,0,0,0-1.16,1.2,2.22,2.22,0,0,0,0,1.68,4.92,4.92,0,0,0,2.85,2.09,7.52,7.52,0,0,0,5.45-.15,6.84,6.84,0,0,1,.2,5.17,8,8,0,0,0,4.9,10.15.53.53,0,0,0,.32-1h0a7,7,0,0,1-4.26-8.87,7.63,7.63,0,0,0-.27-5.9,8.34,8.34,0,0,0,3.69-4.39,8.08,8.08,0,0,0-.33-6.18,7.77,7.77,0,0,0-4.45-4.2h0l-.68-.21h0a7,7,0,0,1-4.25-8.87.51.51,0,0,0-.35-.67h0a.5.5,0,0,0-.67.35,7.81,7.81,0,0,0,.33,6.07A8.11,8.11,0,0,0,852.51,230Zm-3.87,13.73a4.18,4.18,0,0,1-2.22-1.6,1,1,0,0,1,0-.89.84.84,0,0,1,.6-.63,4.32,4.32,0,0,1,2.71.18c0,.05,0,.05.11,0h0a7.16,7.16,0,0,1,3.53,2.76A6.87,6.87,0,0,1,848.64,243.69Z" transform="translate(-28.11 -6.55)"/><path d="M848.18,236.5a2.65,2.65,0,1,0-1.57-3.4A2.59,2.59,0,0,0,848.18,236.5Zm1.39-4.07a1.62,1.62,0,1,1-2.06,1A1.62,1.62,0,0,1,849.57,232.43Z" transform="translate(-28.11 -6.55)"/><path d="M854.4,221.72a2.7,2.7,0,0,0,1.57,3.4,2.76,2.76,0,0,0,3.41-1.57,2.72,2.72,0,0,0-1.58-3.41A2.53,2.53,0,0,0,854.4,221.72Zm4,1.45a1.62,1.62,0,1,1-1-2.06A1.61,1.61,0,0,1,858.41,223.17Z" transform="translate(-28.11 -6.55)"/><path d="M871.32,228.35a2.71,2.71,0,0,0,3.4-1.58,2.65,2.65,0,1,0-3.4,1.58Zm1.45-4.13a1.62,1.62,0,0,1-1.07,3.05,1.67,1.67,0,0,1-1-2.06A1.63,1.63,0,0,1,872.77,224.22Z" transform="translate(-28.11 -6.55)"/><path d="M871,258.49a2.65,2.65,0,1,0,1.58,3.4A2.58,2.58,0,0,0,871,258.49Zm-1.39,4.07a1.62,1.62,0,1,1,2.06-1A1.6,1.6,0,0,1,869.65,262.56Z" transform="translate(-28.11 -6.55)"/><path d="M859.83,253.51a2.65,2.65,0,1,0,3.4-1.58A2.65,2.65,0,0,0,859.83,253.51Zm4.07,1.39a1.62,1.62,0,1,1-1-2.06A1.6,1.6,0,0,1,863.9,254.9Z" transform="translate(-28.11 -6.55)"/></g><g style="opacity:0.07"><circle cx="538.92" cy="59.23" r="0.32"/><path d="M551.29,85.66h.16a2.23,2.23,0,0,0,2.07-2.38c-.08-2-.16-3.74-.16-5.33a39.54,39.54,0,0,1,1.11-10.65V110a3.42,3.42,0,1,0,6.84,0V85.82h1.27v24.33a3.42,3.42,0,1,0,6.84,0V67.38A40,40,0,0,1,570.53,78c0,1.59-.08,3.42-.16,5.33a2.29,2.29,0,0,0,2.15,2.38h.16a2.25,2.25,0,0,0,2.22-2.15c.08-2.06.16-3.89.16-5.56,0-8.27-1.19-12.8-2.78-15.58a7.58,7.58,0,0,0-2.62-2.79,5.84,5.84,0,0,0-1.83-.63c-.16,0-.32-.08-.48-.08h-1.83a10.39,10.39,0,0,1-.24,1.19c-.08.4-.16.88-.24,1.35-.63,3.18-1.67,7.71-3.1,9.15-1.43-1.44-2.46-6-3.1-9.15-.08-.47-.16-1-.24-1.27a8.67,8.67,0,0,0-.23-1.19h-1.83a1,1,0,0,0-.48.08,5.76,5.76,0,0,0-1.83.63c-1.43.8-2.78,2.39-3.73,5.25s-1.67,6.92-1.67,13.12c0,1.67.08,3.58.16,5.56A2.3,2.3,0,0,0,551.29,85.66ZM567,65.15c0-1.27.72-1.19,1.27-.8a1.11,1.11,0,0,1,.4.72c0,.32-.24.64-1,.64,2.7,0-.64,3.34-.64.63,0,2.71-3.34-.63-.63-.63C563.69,65.79,567,62.45,567,65.15Z" transform="translate(-28.11 -6.55)"/><circle cx="533.92" cy="44.45" r="6.28"/><polygon points="533.6 53.83 533.6 53.51 531.69 52.4 531.69 52.4 531.69 52.4 531.69 54.94 533.6 53.83"/><polygon points="534.15 53.83 536.14 54.94 536.14 52.4 536.14 52.4 536.06 52.4 534.15 53.51 534.15 53.83"/><circle cx="533.92" cy="55.89" r="0.56"/><circle cx="533.92" cy="57.8" r="0.56"/><circle cx="533.92" cy="60.03" r="0.56"/><path d="M518.85,64.51h.08a.75.75,0,0,0,.72-.63,2.59,2.59,0,0,1,.16-.72,37.69,37.69,0,0,1,3-9.3,15,15,0,0,1,3.5-4.69,8,8,0,0,1,4.93-2,7.71,7.71,0,0,1,5.56,2.47c2.31,2.3,3.82,5.88,4.77,8.82.48,1.51.8,2.86,1,3.82a7.43,7.43,0,0,0,.23,1.11,1.4,1.4,0,0,1,.08.4.65.65,0,0,0,.8.55.64.64,0,0,0,.55-.79h0a39.48,39.48,0,0,0-2.54-8.82,19.7,19.7,0,0,0-3.89-6.13,8.7,8.7,0,0,0-13,0c-5.09,5.17-6.36,15-6.44,15C518.22,64.12,518.46,64.43,518.85,64.51Z" transform="translate(-28.11 -6.55)"/><circle cx="503.07" cy="48.5" r="6.28"/><path d="M518.7,111.18a2.23,2.23,0,0,0,1.59-.64,2.19,2.19,0,0,0,1.59.64,2.23,2.23,0,0,0,1.59-.64,2.14,2.14,0,0,0,1.51.64,2.77,2.77,0,0,0,2.78,2.39,2.84,2.84,0,0,0,2.78-2.55,2.37,2.37,0,0,0,.8.16h.23a2.81,2.81,0,0,0,5.57-.08c.16,0,.32.08.56.08a2.23,2.23,0,0,0,1.59-.64,2.19,2.19,0,0,0,1.59.64,2.23,2.23,0,0,0,1.59-.64,2.19,2.19,0,0,0,1.59.64,2,2,0,0,0,2.14-1.91v-.16l-9.86-32.27,2.39-8.91a1.67,1.67,0,0,1,.32.48,17.81,17.81,0,0,1,1.51,6,91.66,91.66,0,0,1,.4,9.94,1.51,1.51,0,0,0,3,0,79.57,79.57,0,0,0-.48-10.26,20.29,20.29,0,0,0-1.83-7.23,7.06,7.06,0,0,0-2.7-2.62,15.91,15.91,0,0,0-7.4-1.75h-.15a16.7,16.7,0,0,0-4.22.55A11,11,0,0,0,524,64.35a7.78,7.78,0,0,0-2.7,2.63,18.92,18.92,0,0,0-1.83,7.23A98.24,98.24,0,0,0,519,84.47a1.51,1.51,0,1,0,3,0,91.66,91.66,0,0,1,.4-9.94,17.81,17.81,0,0,1,1.51-6c.08-.16.24-.32.32-.48l2.39,8.91-9.86,32.27v.16C516.55,110.31,517.5,111.18,518.7,111.18Zm-1.59-1.91L527,77l.08-.16-.08-.16-2.14-8.11a14,14,0,0,1,6.36-1.19,13.8,13.8,0,0,1,6.36,1.19l-2.15,8.11-.08.16.08.16,9.86,32.27h0a1.51,1.51,0,0,1-1.59,1.35,1.62,1.62,0,0,1-1.19-.47l-.4-.4-.4.4a1.74,1.74,0,0,1-2.38,0l-.4-.4-.4.4a1.64,1.64,0,0,1-1.19.47,1,1,0,0,1-.48-.08,2.93,2.93,0,0,1-.71-.39l-.4-.4-.4.4a1.74,1.74,0,0,1-2.38,0l-.4-.4-.4.4a2.13,2.13,0,0,1-1,.47H531a2.34,2.34,0,0,1-.72-.16.68.68,0,0,1-.39-.31l-.4-.4-.4.4a1.65,1.65,0,0,1-1.19.47,1.62,1.62,0,0,1-1.19-.47l-.4-.4-.4.4a1.65,1.65,0,0,1-1.19.47h-.08a1.57,1.57,0,0,1-1.11-.47l-.4-.4-.4.4a1.65,1.65,0,0,1-1.19.47,1.62,1.62,0,0,1-1.19-.47l-.4-.4-.4.4a1.65,1.65,0,0,1-1.19.47,1.37,1.37,0,0,1-1.27-1.35Z" transform="translate(-28.11 -6.55)"/></g><g style="opacity:0.07"><circle cx="840.17" cy="67.66" r="0.32"/><path d="M852.54,94.17h.16a2.24,2.24,0,0,0,2.07-2.39c-.08-2-.16-3.73-.16-5.32a39.69,39.69,0,0,1,1.11-10.66v42.69a3.42,3.42,0,1,0,6.84,0V94.17h1.27v24.32a3.42,3.42,0,0,0,6.84,0V75.8a40.11,40.11,0,0,1,1.11,10.66c0,1.59-.08,3.41-.16,5.32a2.29,2.29,0,0,0,2.15,2.39h.16A2.26,2.26,0,0,0,876.15,92c.08-2.07.16-3.89.16-5.56,0-8.27-1.19-12.8-2.78-15.59a7.47,7.47,0,0,0-2.63-2.78,5.25,5.25,0,0,0-1.82-.63c-.16,0-.32-.08-.48-.08h-1.83a10.83,10.83,0,0,1-.24,1.19c-.08.4-.16.87-.24,1.35-.63,3.18-1.67,7.71-3.1,9.14-1.43-1.43-2.46-6-3.1-9.14-.08-.48-.16-1-.24-1.27a9.72,9.72,0,0,0-.24-1.19h-1.82a1.15,1.15,0,0,0-.48.07,5.57,5.57,0,0,0-1.83.64c-1.43.8-2.78,2.39-3.74,5.25s-1.67,6.91-1.67,13.12c0,1.66.08,3.57.16,5.56A2.4,2.4,0,0,0,852.54,94.17Zm15.74-20.59c0-1.28.72-1.2,1.27-.8a1.11,1.11,0,0,1,.4.72c0,.32-.24.63-1,.63,2.7,0-.64,3.34-.64.64,0,2.7-3.34-.64-.64-.64C864.94,74.21,868.28,70.87,868.28,73.58Z" transform="translate(-28.11 -6.55)"/><circle cx="835.09" cy="52.87" r="6.28"/><polygon points="834.85 62.25 834.85 61.94 832.94 60.9 832.86 60.82 832.86 60.9 832.86 63.37 834.85 62.25"/><polygon points="835.4 62.25 837.39 63.37 837.39 60.9 837.39 60.82 837.31 60.9 835.4 61.94 835.4 62.25"/><circle cx="835.09" cy="64.32" r="0.56"/><circle cx="835.09" cy="66.31" r="0.56"/><circle cx="835.09" cy="68.53" r="0.56"/><path d="M820,72.94h.08a.76.76,0,0,0,.72-.64,2.57,2.57,0,0,1,.16-.71,37.69,37.69,0,0,1,3-9.3,15,15,0,0,1,3.5-4.69,8,8,0,0,1,4.93-2A7.7,7.7,0,0,1,838,58.07c2.31,2.31,3.82,5.89,4.77,8.83.48,1.51.8,2.86,1,3.81a8.5,8.5,0,0,0,.24,1.12,1.4,1.4,0,0,1,.08.4.66.66,0,0,0,.8.55.65.65,0,0,0,.55-.79h0a39.49,39.49,0,0,0-2.54-8.83A19.61,19.61,0,0,0,839,57a8.69,8.69,0,0,0-13,0C820.9,62.21,819.63,72,819.55,72,819.39,72.54,819.63,72.86,820,72.94Z" transform="translate(-28.11 -6.55)"/><circle cx="804.32" cy="56.93" r="6.28"/><path d="M819.86,119.61a2.19,2.19,0,0,0,1.59-.64,2.23,2.23,0,0,0,1.59.64,2.21,2.21,0,0,1,3.11,0,2.75,2.75,0,0,0,2.78,2.38,2.83,2.83,0,0,0,2.78-2.54,2.37,2.37,0,0,0,.8.16h.23a2.81,2.81,0,0,0,5.57-.08c.16,0,.32.08.56.08a2.23,2.23,0,0,0,1.59-.64,2.19,2.19,0,0,0,1.59.64,2.23,2.23,0,0,0,1.59-.64,2.19,2.19,0,0,0,1.59.64,2,2,0,0,0,2.14-1.91v-.16l-9.86-32.28,2.39-8.9a1.67,1.67,0,0,1,.32.48,17.81,17.81,0,0,1,1.51,6,91.66,91.66,0,0,1,.4,9.94,1.51,1.51,0,1,0,3,0,79.57,79.57,0,0,0-.48-10.26,20.45,20.45,0,0,0-1.83-7.23,7.16,7.16,0,0,0-2.7-2.63,15.91,15.91,0,0,0-7.4-1.75h-.16a16.4,16.4,0,0,0-4.21.56,10.85,10.85,0,0,0-3.18,1.27,7.69,7.69,0,0,0-2.7,2.63,18.69,18.69,0,0,0-1.83,7.23,98.24,98.24,0,0,0-.48,10.26,1.51,1.51,0,0,0,3,0,91.66,91.66,0,0,1,.4-9.94,17.81,17.81,0,0,1,1.51-6c.08-.16.24-.32.32-.48l2.38,8.9L818,117.62v.16A1.73,1.73,0,0,0,819.86,119.61Zm-1.51-1.83,9.86-32.28.08-.16-.08-.16-2.14-8.11a14.11,14.11,0,0,1,6.36-1.19,13.93,13.93,0,0,1,6.36,1.19l-2.15,8.11-.08.16.08.16,9.86,32.28h0a1.52,1.52,0,0,1-1.59,1.35,1.59,1.59,0,0,1-1.19-.48l-.4-.39-.4.39a1.62,1.62,0,0,1-1.19.48,1.59,1.59,0,0,1-1.19-.48l-.4-.39-.4.39a1.62,1.62,0,0,1-1.19.48,1,1,0,0,1-.48-.08,3,3,0,0,1-.71-.4l-.4-.39-.4.39a1.62,1.62,0,0,1-1.19.48,1.59,1.59,0,0,1-1.19-.48l-.4-.39-.4.39a2.2,2.2,0,0,1-1,.48h-.16a2.34,2.34,0,0,1-.72-.16.8.8,0,0,1-.4-.32l-.39-.39-.4.39a1.73,1.73,0,0,1-2.39,0l-.39-.39-.4.39a1.62,1.62,0,0,1-1.19.48h-.08a1.58,1.58,0,0,1-1.12-.48l-.39-.39-.4.39a1.73,1.73,0,0,1-2.39,0l-.39-.39-.4.39a1.62,1.62,0,0,1-1.19.48,1.53,1.53,0,0,1-1.28-1.35Z" transform="translate(-28.11 -6.55)"/></g><g style="opacity:0.07"><circle cx="52.44" cy="34.27" r="0.32"/><path d="M64.81,60.78H65A2.24,2.24,0,0,0,67,58.39c-.08-2-.16-3.73-.16-5.32A39.59,39.59,0,0,1,68,42.41V85.1a3.42,3.42,0,1,0,6.83,0V60.78h1.27V85.1a3.42,3.42,0,1,0,6.84,0V42.41a39.59,39.59,0,0,1,1.12,10.66c0,1.59-.08,3.41-.16,5.32A2.29,2.29,0,0,0,86,60.78h.16a2.27,2.27,0,0,0,2.23-2.15c.08-2.07.16-3.89.16-5.56,0-8.27-1.2-12.8-2.79-15.59a7.38,7.38,0,0,0-2.62-2.78,5.5,5.5,0,0,0-1.83-.64c-.16,0-.32-.07-.47-.07H79a10.83,10.83,0,0,1-.24,1.19c-.08.4-.16.87-.24,1.35-.64,3.18-1.67,7.71-3.1,9.14-1.43-1.43-2.47-6-3.1-9.14-.08-.48-.16-1-.24-1.27a10.39,10.39,0,0,0-.24-1.2H70.05a1,1,0,0,0-.47.08,5.5,5.5,0,0,0-1.83.64C66.32,35.58,65,37.17,64,40s-1.67,6.91-1.67,13.12c0,1.66.08,3.57.16,5.56A2.39,2.39,0,0,0,64.81,60.78ZM80.55,40.19c0-1.28.71-1.2,1.27-.8a1.11,1.11,0,0,1,.4.72c0,.31-.24.63-1,.63,2.71,0-.63,3.34-.63.64,0,2.7-3.34-.64-.64-.64C77.21,40.82,80.55,37.48,80.55,40.19Z" transform="translate(-28.11 -6.55)"/><circle cx="47.35" cy="19.48" r="6.28"/><polygon points="47.11 28.86 47.11 28.55 45.2 27.51 45.13 27.43 45.13 27.51 45.13 29.98 47.11 28.86"/><polygon points="47.67 28.86 49.66 29.98 49.66 27.51 49.66 27.43 49.58 27.51 47.67 28.55 47.67 28.86"/><circle cx="47.35" cy="30.93" r="0.56"/><circle cx="47.35" cy="32.92" r="0.56"/><circle cx="47.35" cy="35.14" r="0.56"/><path d="M32.29,39.55h.08a.76.76,0,0,0,.72-.64,2.72,2.72,0,0,1,.15-.71,37.68,37.68,0,0,1,3-9.3,15,15,0,0,1,3.49-4.69,8,8,0,0,1,4.93-2,7.7,7.7,0,0,1,5.57,2.46c2.3,2.31,3.81,5.89,4.77,8.83.47,1.51.79,2.86,1,3.81a8.5,8.5,0,0,0,.24,1.12,1.37,1.37,0,0,1,.08.39.68.68,0,1,0,1.35-.23h0a40.13,40.13,0,0,0-2.54-8.83,19.8,19.8,0,0,0-3.9-6.12,8.7,8.7,0,0,0-13,0c-5.09,5.17-6.36,15-6.44,15C31.65,39.15,31.89,39.47,32.29,39.55Z" transform="translate(-28.11 -6.55)"/><circle cx="16.59" cy="23.54" r="6.28"/><path d="M32.13,86.22a2.21,2.21,0,0,0,1.59-.64,2.3,2.3,0,0,0,3.18,0,2.18,2.18,0,0,0,1.51.64,2.76,2.76,0,0,0,2.78,2.38A2.83,2.83,0,0,0,44,86.06a2.31,2.31,0,0,0,.79.16H45a2.81,2.81,0,0,0,5.57-.08c.15,0,.31.08.55.08a2.21,2.21,0,0,0,1.59-.64,2.3,2.3,0,0,0,3.18,0,2.23,2.23,0,0,0,1.59.64,2.06,2.06,0,0,0,2.15-1.91v-.16L49.78,51.87,52.17,43a1.86,1.86,0,0,1,.31.48,17.35,17.35,0,0,1,1.51,6,91.66,91.66,0,0,1,.4,9.94,1.51,1.51,0,0,0,3,0,81.56,81.56,0,0,0-.47-10.26,20.45,20.45,0,0,0-1.83-7.23,7.11,7.11,0,0,0-2.71-2.63A15.88,15.88,0,0,0,45,37.56h-.16a16.31,16.31,0,0,0-4.21.56,10.74,10.74,0,0,0-3.18,1.27A7.77,7.77,0,0,0,34.75,42a18.8,18.8,0,0,0-1.82,7.24,98.24,98.24,0,0,0-.48,10.26,1.51,1.51,0,0,0,3,0,91.66,91.66,0,0,1,.4-9.94,17.51,17.51,0,0,1,1.51-6c.08-.16.24-.32.32-.48L40.08,52,30.22,84.23v.16A1.74,1.74,0,0,0,32.13,86.22Zm-1.51-1.83,9.86-32.28.08-.16-.08-.16-2.15-8.11a14.14,14.14,0,0,1,6.36-1.19,13.9,13.9,0,0,1,6.36,1.19l-2.14,8.11-.08.16.08.16,9.85,32.28h0a1.51,1.51,0,0,1-1.59,1.35A1.62,1.62,0,0,1,56,85.26l-.4-.39-.39.39a1.73,1.73,0,0,1-2.39,0l-.4-.39-.39.39a1.63,1.63,0,0,1-1.2.48,1,1,0,0,1-.47-.08,3.24,3.24,0,0,1-.72-.4l-.4-.39-.39.39a1.73,1.73,0,0,1-2.39,0l-.4-.39-.39.39a2.18,2.18,0,0,1-1,.48h-.16a2.28,2.28,0,0,1-.71-.16.8.8,0,0,1-.4-.32l-.4-.39-.39.39a1.73,1.73,0,0,1-2.39,0l-.4-.39-.39.39a1.63,1.63,0,0,1-1.2.48h-.08a1.57,1.57,0,0,1-1.11-.48l-.4-.39-.39.39a1.73,1.73,0,0,1-2.39,0l-.4-.39-.39.39a1.63,1.63,0,0,1-1.2.48,1.53,1.53,0,0,1-1.27-1.35Z" transform="translate(-28.11 -6.55)"/></g><g style="opacity:0.07"><path d="M946.63,169.44c-10.66,2.63-14.63,9.38-15.58,13-.72,2.86-1.12,6.76.71,9.22.56.8,3,.32,2.23-.79-1.43-2-1-5.41-.56-7.63,3.5-16.14,21.31-7.24,24.17-5.09,7.63,5.56,4.21,15.82,1.51,18.2-9.38,8.27-21.78.4-23.21-2.78,4.13-4.29,6.12-11,3.1-16.3-.32-.55-2.79-.23-2.55.24,3,5.33,1,11.77-3.18,15.9-.32,0-3,4.93-14.15,2.23s-11.69-14.79-10.49-18.6c4.61-14.47,24.64-5.17,24.88-5.17,2.07,1.11,2.15-.32,1.91-.8-4.06-6.44-13.44-7.79-20.27-6.44s-11.77,7.32-13.12,14,1.51,15.42,7.87,18.44c14.39,6.76,23.37-1.35,23.69-1.59,3.34,9.38,15.58,13.52,24.49,10a18.66,18.66,0,0,0,11.37-12.17C975,171.83,952.75,167.93,946.63,169.44Zm-39.12,23.14c-6.12-6-3.81-23.93,7.32-26.32,7.79-1.9,13.51.88,15.18,2.15-2-.64-17.41-3.9-22.5,5.49a18.88,18.88,0,0,0-1.27,10.73c3.26,15,17.57,13.51,18.6,13.43C921.51,198.46,914.11,199.1,907.51,192.58Zm40.23,12.32c-3.42-.79-7.87-3.42-9.94-6.28a13.23,13.23,0,0,0,3.9,2.31c3.89,1.43,8.35,2.22,12.48,1.27,8-1.75,15.34-13.52,6.76-23.77-1.75-2.15-10.42-7.56-19.32-5.81a18.35,18.35,0,0,1,15.42-.23c5.73,2.46,11.13,8.26,11.29,14.54C968.57,192.9,963.16,208.32,947.74,204.9Zm-11.21-36.33a1.51,1.51,0,0,0,2.39-.32c2.78-2.54,7.47-3.58,8.9-7.31a3.77,3.77,0,0,0-2.07-4.93,6.17,6.17,0,0,0-4.61.32,6.94,6.94,0,0,0-4.53-3.1c-2.38-.48-5,.79-5.41,3.33C930.81,158.71,936.53,168.57,936.53,168.57Zm-.79-13.6a4.26,4.26,0,0,1,3.34,2.87c.15.55.79.71,1.43.63.31,0,2.06-2.7,4.37-.87,1.27,1,.64,3-.24,4.05-1.75,2.15-4.37,3.18-6.6,4.69-.63-1-3.89-6.6-4.21-8.58C933.51,156.41,934.07,154.9,935.74,155Z" transform="translate(-28.11 -6.55)"/></g><g style="opacity:0.07"><path d="M182.14,166.16c-8,7.45-8.26,15.28-7.33,19,.76,2.85,2.29,6.45,5.09,7.72.87.43,2.79-1.18,1.56-1.77-2.21-1.05-3.52-4.23-4.18-6.41C172.54,168.83,192.43,168,196,168.51c9.38,1.17,11.34,11.8,10.13,15.2-4.21,11.77-18.87,10.88-21.66,8.79,1.54-5.76.05-12.56-5.17-15.76-.55-.34-2.55,1.13-2.11,1.44,5.22,3.2,6.52,9.83,4.9,15.45-.27.15-.26,5.78-11.31,8.79s-17.38-7.29-18.18-11.2c-3-14.9,19.07-16.45,19.28-16.56,2.35,0,1.73-1.32,1.29-1.62-6.67-3.68-15.53-.32-20.86,4.17s-6.76,12.09-4.71,18.59,8.78,12.77,15.81,12.34c15.86-1,19.8-12.49,20-12.85,7.46,6.59,20.18,4.29,26.28-3.08a18.62,18.62,0,0,0,4.07-16.14C208.14,154.52,186.77,161.87,182.14,166.16Zm-23,39.16c-8.28-2.32-14.92-19.09-6.33-26.57,5.9-5.43,12.25-5.77,14.33-5.46-2,.4-17.12,5-17,15.68a18.83,18.83,0,0,0,4.08,10c10.12,11.58,21.91,3.33,22.78,2.76C174.19,203.71,168,207.84,159.1,205.32Zm41.16-8.67c-3.37,1-8.54.82-11.73-.69a13,13,0,0,0,4.52.14c4.11-.64,8.39-2.09,11.54-4.93,6.19-5.41,6.9-19.25-5.58-24.07-2.57-1-12.77-1.57-19.71,4.26a18.37,18.37,0,0,1,13.38-7.67c6.2-.61,13.74,1.86,16.92,7.28C212.69,176.07,215.42,192.19,200.26,196.65Zm-27.38-26.37c.8.46,2.11-.63,1.93-1.44,1.21-3.57,4.82-6.74,4.26-10.7a3.77,3.77,0,0,0-4.19-3.32,6.21,6.21,0,0,0-3.88,2.51,7,7,0,0,0-5.47-.52c-2.32.73-4,3.12-3.12,5.53C163.1,164.42,172.88,170.28,172.88,170.28Zm-7.27-11.52a4.25,4.25,0,0,1,4.31.89c.41.41,1,.24,1.56-.13.28-.16.5-3.37,3.4-2.88,1.58.22,2,2.33,1.75,3.66-.49,2.72-2.29,4.9-3.5,7.3-1-.53-6.6-3.89-7.84-5.48C164.35,161.09,164.11,159.5,165.61,158.76Z" transform="translate(-28.11 -6.55)"/></g><g style="opacity:0.07"><path d="M631.78,193.86c-9.95,4.62-12.6,12-12.79,15.83-.19,3,.17,6.86,2.53,8.95.7.65,3.09-.3,2-1.24-1.84-1.66-2.08-5.07-2-7.39.34-16.49,19.54-11.13,22.72-9.6,8.53,4,7.15,14.73,5,17.66-7.6,9.91-21.29,4.5-23.31,1.74,3.27-5,4-12-.07-16.6-.45-.52-2.77.26-2.41.71,4,4.64,3.16,11.36-.13,16.22-.32,0-2,5.46-13.43,4.88s-14.27-12.3-13.85-16.25c1.76-15,23.19-9.72,23.43-9.74,2.22.66,2.08-.76,1.73-1.13-5.16-5.5-14.63-5.15-21.16-2.45s-10.21,9.36-10.27,16.23,4.45,14.83,11.25,16.58c15.38,3.88,22.68-5.84,23-6,5.05,8.62,17.83,10.28,25.88,5.12a18.27,18.27,0,0,0,8.79-14.17C660.07,190.76,637.44,191.24,631.78,193.86ZM597.67,224c-7.17-4.83-8.32-22.77,2.12-27.2,7.27-3.33,13.41-1.68,15.34-.74-2.1-.28-17.78-.54-21,9.59a19.52,19.52,0,0,0,.79,10.79c6.06,14.11,19.8,9.93,20.89,9.66A19.38,19.38,0,0,1,597.67,224Zm41.87,4.47a18.26,18.26,0,0,1-10.95-4.31,13.46,13.46,0,0,0,4.22,1.52c4.13.64,8.6.61,12.43-1.11,7.52-3.27,12.51-16.21,2.13-24.56-2.16-1.71-11.7-5.43-20.07-2a18.6,18.6,0,0,1,15.1-3.2c6.12,1.34,12.47,6,13.86,12.1C657.69,212.71,655.32,228.83,639.54,228.42Zm-17.89-33.51c.63.66,2.25.1,2.25-.78,2.26-3,6.64-4.86,7.37-8.93a3.79,3.79,0,0,0-3-4.42,6.27,6.27,0,0,0-4.52,1.15,7.28,7.28,0,0,0-5.08-2.23c-2.48,0-4.79,1.73-4.71,4.28C614.13,186.36,621.57,194.83,621.65,194.91Zm-3.41-13.18a4.42,4.42,0,0,1,3.88,2.19c.29.53.93.55,1.56.41.32,0,1.47-3,4.15-1.67,1.43.74,1.15,2.84.55,4-1.29,2.44-3.7,3.94-5.59,5.88-.81-.88-5.1-5.74-5.76-7.6C616.42,183.59,616.59,182,618.24,181.73Z" transform="translate(-28.11 -6.55)"/></g><g style="opacity:0.07"><path d="M754.2,140.75a.8.8,0,0,0-1,.4l-1.67,4.06a.79.79,0,0,0,.4,1,.48.48,0,0,0,.32.08.7.7,0,0,0,.72-.48l1.67-4.05A.81.81,0,0,0,754.2,140.75Z" transform="translate(-28.11 -6.55)"/><path d="M754,148.78a.77.77,0,0,0,.71.48.48.48,0,0,0,.32-.08l3.9-1.91a.78.78,0,1,0-.64-1.43l-3.89,1.91A.73.73,0,0,0,754,148.78Z" transform="translate(-28.11 -6.55)"/><path d="M768.27,166.27A100.07,100.07,0,0,0,764,153a.71.71,0,0,0-.88-.4l-14,3.42a.78.78,0,0,0-.64.79c.08,3.1,1.59,10.66,2.31,13.68,2.38,9.78,7.63,16.85,12.24,16.85h.24l3.5,14.23-4.85,1.2a.75.75,0,0,0-.56.95.78.78,0,0,0,.8.64h.16l11.29-2.79a.78.78,0,0,0-.4-1.51l-4.85,1.19L764.85,187C769.3,185,770.73,176.29,768.27,166.27Zm-5.41-12a38.7,38.7,0,0,1,1.51,4.21,21.19,21.19,0,0,0-8.66,4.61,25.94,25.94,0,0,1-4.22,2.95,77.56,77.56,0,0,1-1.35-8.67Zm1,31.4c-3.9,1-9.15-6.2-11.45-15.5-.16-.64-.32-1.51-.56-2.46a23.25,23.25,0,0,0,4.93-3.26,19.19,19.19,0,0,1,8.11-4.38c.8,2.55,1.51,5.09,1.91,6.6C769.06,176,767.71,184.72,763.82,185.67Z" transform="translate(-28.11 -6.55)"/><path d="M763.34,168.26a.76.76,0,0,0-.56,1c1.12,4.61,1,8.5.48,9.69a.79.79,0,0,0,.4,1,.48.48,0,0,0,.32.08.7.7,0,0,0,.71-.48c.64-1.67.8-6-.4-10.65A.72.72,0,0,0,763.34,168.26Z" transform="translate(-28.11 -6.55)"/><path d="M723.19,188.53a.78.78,0,0,0-.4,1.51l11.29,2.79h.16a.84.84,0,0,0,.8-.64.81.81,0,0,0-.56-.95l-4.85-1.2,3.5-14.23h.24c4.61,0,9.86-7,12.24-16.85.72-3,2.23-10.65,2.31-13.67a.78.78,0,0,0-.64-.8l-14-3.42a.76.76,0,0,0-.88.4c-1.35,2.78-3.49,10.18-4.29,13.28-2.46,10-1,18.76,3.34,20.75L728,189.73Zm10.42-45.71,12.72,3.1c-.16,1.75-.56,4.53-1,7.08a19.05,19.05,0,0,1-4.13-2.86,20.3,20.3,0,0,0-8.51-4.69C733,144.49,733.29,143.54,733.61,142.82Zm-3.9,12.4c.48-1.82,1.43-5.16,2.39-8.18a19.21,19.21,0,0,1,8,4.37,19.94,19.94,0,0,0,4.85,3.26c-.32,1.59-.64,3-.88,4-2.3,9.38-7.55,16.54-11.45,15.5C728.76,173.27,727.41,164.53,729.71,155.22Z" transform="translate(-28.11 -6.55)"/><path d="M733.13,168.58a.73.73,0,0,0,.4-1c-.56-1.43-.8-6.2.55-11.93a.81.81,0,0,0-.55-1,.83.83,0,0,0-1,.55c-1.43,5.73-1.27,10.9-.47,12.88a.76.76,0,0,0,.71.48C732.89,168.66,733,168.66,733.13,168.58Z" transform="translate(-28.11 -6.55)"/><path d="M746.33,192.43a.56.56,0,0,0,.31-.08c.24-.08,5.81-2.23,6.92-6.44a19.28,19.28,0,0,0-12-5.09,4.37,4.37,0,0,0-2.47,5.09c1,4.21,6.68,6.36,6.92,6.44A.6.6,0,0,0,746.33,192.43Zm-5.65-6.92a2.7,2.7,0,0,1,1.51-3.26,2.55,2.55,0,0,1,1.12-.23,2.58,2.58,0,0,1,2.3,1.35.72.72,0,0,0,.64.31,1,1,0,0,0,.63-.31,2.7,2.7,0,0,1,3.42-1.12,2.62,2.62,0,0,1,1.51,3.26c-.71,2.94-4.53,4.77-5.64,5.25C745.29,190.28,741.48,188.45,740.68,185.51Z" transform="translate(-28.11 -6.55)"/><path d="M779.88,147.83a4.79,4.79,0,0,0-2.71-5.64,4.59,4.59,0,0,0-5.16,1,4.5,4.5,0,0,0-5.17-1,4.86,4.86,0,0,0-2.7,5.64c1.11,4.69,7.31,7.08,7.55,7.16.08,0,.16.07.32.07a.52.52,0,0,0,.31-.07C772.56,154.91,778.68,152.52,779.88,147.83ZM772,153.4c-1.2-.48-5.49-2.55-6.36-6a3.18,3.18,0,0,1,1.74-3.81,3.32,3.32,0,0,1,1.28-.24,3.11,3.11,0,0,1,2.62,1.51.82.82,0,0,0,.64.4.71.71,0,0,0,.63-.4,3.1,3.1,0,0,1,3.9-1.27,3.19,3.19,0,0,1,1.75,3.81C777.49,150.77,773.12,152.92,772,153.4Z" transform="translate(-28.11 -6.55)"/><path d="M721.84,152c.08,0,.16.08.32.08a.6.6,0,0,0,.32-.08c.16-.08,4.53-1.82,5.32-5.24a3.67,3.67,0,0,0-2.06-4.3,10.33,10.33,0,0,1-7.16,0,3.69,3.69,0,0,0-2.07,4.3C717.31,150.22,721.68,152,721.84,152Zm-2.62-8a2.26,2.26,0,0,1,.71-.15,1.83,1.83,0,0,1,1.59.95.82.82,0,0,0,.64.4.69.69,0,0,0,.63-.4,1.77,1.77,0,0,1,2.31-.8,1.92,1.92,0,0,1,1.11,2.39c-.55,2.15-3.18,3.58-4.05,4-.88-.39-3.58-1.82-4.06-4A1.94,1.94,0,0,1,719.22,144Z" transform="translate(-28.11 -6.55)"/><path d="M745.45,198.79a3.66,3.66,0,0,0-2.06-4.29,10.49,10.49,0,0,1-7.16,0,3.67,3.67,0,0,0-2.07,4.29c.8,3.42,5.17,5.17,5.33,5.25s.16.08.32.08a.48.48,0,0,0,.32-.08C740.28,204,744.66,202.21,745.45,198.79Zm-5.64,3.66c-1.19-.56-3.58-2-4.06-4a1.92,1.92,0,0,1,1.12-2.38,2.22,2.22,0,0,1,.71-.16,1.86,1.86,0,0,1,1.59.95.82.82,0,0,0,.64.4.7.7,0,0,0,.63-.4,1.76,1.76,0,0,1,2.31-.79,1.92,1.92,0,0,1,1.11,2.38C743.39,200.62,740.68,202.05,739.81,202.45Z" transform="translate(-28.11 -6.55)"/></g><g style="opacity:0.07"><line x1="1533.2" y1="67.61" x2="1546.37" y2="61.89" style="fill:none;stroke:#000;stroke-linecap:round;stroke-miterlimit:10;stroke-width:2px"/><line x1="1531.29" y1="45.09" x2="1539.82" y2="64.77" style="fill:none;stroke:#000;stroke-linecap:round;stroke-miterlimit:10;stroke-width:2px"/><path d="M1552.33,18.83l-5.89,2.52-5.89,2.52A50.61,50.61,0,0,0,1544.49,37c4.26,9.79,10.94,16.38,15,14.62a.07.07,0,0,1,.1,0,.08.08,0,0,1,.11,0c4-1.76,3.79-11.1-.46-20.88A58.65,58.65,0,0,0,1552.33,18.83Z" transform="translate(-28.11 -6.55)" style="fill:none;stroke:#000;stroke-linecap:round;stroke-linejoin:round;stroke-width:2px"/><path d="M1543.2,32.94c2.29-1,2.87.25,5.16-.74s1.75-2.3,4.11-3.26,2.87.25,5.16-.74" transform="translate(-28.11 -6.55)" style="fill:none;stroke:#000;stroke-linecap:round;stroke-miterlimit:10;stroke-width:2px"/><line x1="1563.78" y1="50.43" x2="1574.09" y2="40.54" style="fill:none;stroke:#000;stroke-linecap:round;stroke-miterlimit:10;stroke-width:2px"/><line x1="1554.06" y1="30.09" x2="1568.93" y2="45.49" style="fill:none;stroke:#000;stroke-linecap:round;stroke-miterlimit:10;stroke-width:2px"/><path d="M1564,8.4l-4.6,4.44-4.59,4.43a50.39,50.39,0,0,0,8.29,10.88c7.41,7.73,16,11.47,19.12,8.49l0-.07,0-.07c3.14-3-.35-11.69-7.76-19.43A51.44,51.44,0,0,0,1564,8.4Z" transform="translate(-28.11 -6.55)" style="fill:none;stroke:#000;stroke-linecap:round;stroke-linejoin:round;stroke-width:2px"/><path d="M1560.36,24.81c1.8-1.72,2.78-.71,4.61-2.51s.88-2.7,2.72-4.49,2.81-.79,4.61-2.52" transform="translate(-28.11 -6.55)" style="fill:none;stroke:#000;stroke-linecap:round;stroke-miterlimit:10;stroke-width:2px"/><line x1="1519.35" y1="2.14" x2="1521.89" y2="6.22" style="fill:none;stroke:#000;stroke-linecap:round;stroke-linejoin:round;stroke-width:2px"/><line x1="1515.07" y1="8.12" x2="1519.75" y2="9.21" style="fill:none;stroke:#000;stroke-linecap:round;stroke-linejoin:round;stroke-width:2px"/><line x1="1526.56" y1="1" x2="1525.47" y2="5.68" style="fill:none;stroke:#000;stroke-linecap:round;stroke-linejoin:round;stroke-width:2px"/></g><g style="opacity:0.07"><path d="M1460.92,164a2.51,2.51,0,0,0-2.56,1.17,2.67,2.67,0,0,0-2.87,0,2.79,2.79,0,0,0-.9,3.56,5.83,5.83,0,0,0,3.59,2.81c.74.27,1.3.37,1.36.43a1.34,1.34,0,0,0,.39-.07c.11-.11,3.17-2.13,3.23-4.94A2.79,2.79,0,0,0,1460.92,164Zm-1.34,6.89c-.74-.16-3.17-.85-4-2.63a1.72,1.72,0,0,1,.52-2.26,1.45,1.45,0,0,1,1.29-.19,2.87,2.87,0,0,1,.74.49.69.69,0,0,0,.51.16,1,1,0,0,0,.39-.29,1.54,1.54,0,0,1,1.72-1.09,1.76,1.76,0,0,1,1.38,1.88C1462.13,168.81,1460.13,170.42,1459.58,170.88Z" transform="translate(-28.11 -6.55)"/><path d="M1449.45,177.23a3,3,0,0,0-3.39,2.25c-1,2.94,1.51,6.22,1.57,6.39l.23.22a.08.08,0,0,0,.11,0c.17.06,4.23.66,6.38-1.57a3.08,3.08,0,0,0,.39-4,2.68,2.68,0,0,0-3-1A2.63,2.63,0,0,0,1449.45,177.23Zm1.34,2.85a.59.59,0,0,0,.24.44.73.73,0,0,0,.5,0,1.78,1.78,0,0,1,2.37.41,2.11,2.11,0,0,1-.29,2.7c-1.55,1.6-4.42,1.37-5.21,1.27-.46-.66-2-3.11-1.27-5.2a2.09,2.09,0,0,1,2.28-1.56.42.42,0,0,1,.34.11A1.88,1.88,0,0,1,1450.79,180.08Z" transform="translate(-28.11 -6.55)"/><path d="M1414.42,183.28a2.88,2.88,0,0,0-1.18,3.62c.77,2.07,3.15,3.15,4.28,3.58a1.78,1.78,0,0,1,.56.22c.12,0,.28.05.4-.07s3.45-2,3.74-4.78a2.91,2.91,0,0,0-2.08-3.23,2.85,2.85,0,0,0-2.8.95A2.78,2.78,0,0,0,1414.42,183.28Zm2.61,1.42a1.18,1.18,0,0,0,.45.22c.17-.06.33-.12.39-.29a1.59,1.59,0,0,1,1.89-1,1.81,1.81,0,0,1,1.27,2.12c-.19,2-2.41,3.53-3,3.93-.74-.27-3.23-1.13-3.93-3a1.88,1.88,0,0,1,.74-2.37,1.36,1.36,0,0,1,1.24-.13A1.44,1.44,0,0,1,1417,184.7Z" transform="translate(-28.11 -6.55)"/><path d="M1451.72,171.68c-.93-1.55-3.52-2.07-3.58-2.13a9.12,9.12,0,0,0-6.56,1,8.78,8.78,0,0,1-.95-6.45,10,10,0,0,0-1.08-7.35,9.55,9.55,0,0,0-5.87-4.34.52.52,0,1,0-.21,1,8.73,8.73,0,0,1,5.24,3.85,8.94,8.94,0,0,1,1,6.56,9.52,9.52,0,0,0,1.07,7.24,9.59,9.59,0,0,0-3.94,5.91,9.93,9.93,0,0,0,6.83,11.92h0l.06,0h0l.79.21a8.78,8.78,0,0,1,5.24,3.85,8.89,8.89,0,0,1,1,6.56.55.55,0,0,0,.3.62l0,0a.52.52,0,0,0,.61-.4,9.86,9.86,0,0,0-1.08-7.35,9.53,9.53,0,0,0-5.86-4.34l-.79-.21a8.93,8.93,0,0,1-6.2-10.75,8.62,8.62,0,0,1,3.51-5.23,9.11,9.11,0,0,0,5.29,3.56c.11,0,2.6.75,4.21-.24a2.19,2.19,0,0,0,1.21-1.59A2.69,2.69,0,0,0,1451.72,171.68Zm-1.53,2.73c-1.22.69-3.43.11-3.43.11a8.17,8.17,0,0,1-4.72-3.12,8.86,8.86,0,0,1,5.78-.83,5.63,5.63,0,0,1,3,1.64,1.58,1.58,0,0,1-.58,2.2Z" transform="translate(-28.11 -6.55)"/><path d="M1428,166.63h0l.74.27a6.88,6.88,0,0,1,3.88,3.65,7.66,7.66,0,0,1,.27,5.45,7.19,7.19,0,0,1-3.14,3.82,7.55,7.55,0,0,0-4.11-3.31h0a5.2,5.2,0,0,0-3.54-.22,2,2,0,0,0-1.16,1.2,2.2,2.2,0,0,0,0,1.69,5,5,0,0,0,2.85,2.09,7.63,7.63,0,0,0,5.45-.15,6.84,6.84,0,0,1,.2,5.17,8,8,0,0,0,4.9,10.15.53.53,0,0,0,.32-1h0a7,7,0,0,1-4.26-8.87,7.63,7.63,0,0,0-.27-5.9,8.33,8.33,0,0,0,3.7-4.39,8.18,8.18,0,0,0-.33-6.18,7.82,7.82,0,0,0-4.46-4.2h0l-.68-.21h0a7,7,0,0,1-4.25-8.87.5.5,0,0,0-.35-.66h0a.5.5,0,0,0-.67.34,7.81,7.81,0,0,0,.33,6.07A8.1,8.1,0,0,0,1428,166.63Zm-3.87,13.73a4.15,4.15,0,0,1-2.22-1.59,1,1,0,0,1,0-.9.83.83,0,0,1,.61-.63,4.29,4.29,0,0,1,2.7.18c0,.05,0,.05.11,0h0a7.14,7.14,0,0,1,3.53,2.75A6.87,6.87,0,0,1,1424.09,180.36Z" transform="translate(-28.11 -6.55)"/><path d="M1423.63,173.17a2.65,2.65,0,1,0-1.57-3.4A2.59,2.59,0,0,0,1423.63,173.17Zm1.4-4.07a1.62,1.62,0,1,1-2.07,1A1.63,1.63,0,0,1,1425,169.1Z" transform="translate(-28.11 -6.55)"/><path d="M1429.85,158.39a2.72,2.72,0,0,0,1.57,3.41,2.77,2.77,0,0,0,3.41-1.58,2.71,2.71,0,0,0-1.58-3.4A2.53,2.53,0,0,0,1429.85,158.39Zm4,1.45a1.62,1.62,0,1,1-1-2.06A1.62,1.62,0,0,1,1433.86,159.84Z" transform="translate(-28.11 -6.55)"/><path d="M1446.77,165a2.7,2.7,0,0,0,3.4-1.57,2.76,2.76,0,0,0-1.57-3.41,2.65,2.65,0,0,0-1.83,5Zm1.45-4.13a1.62,1.62,0,0,1-1.07,3.06,1.66,1.66,0,0,1-1-2.07A1.63,1.63,0,0,1,1448.22,160.89Z" transform="translate(-28.11 -6.55)"/><path d="M1446.5,195.16a2.65,2.65,0,1,0,1.57,3.4A2.59,2.59,0,0,0,1446.5,195.16Zm-1.4,4.07a1.62,1.62,0,1,1,2.07-1A1.6,1.6,0,0,1,1445.1,199.23Z" transform="translate(-28.11 -6.55)"/><path d="M1435.28,190.18a2.65,2.65,0,1,0,3.4-1.58A2.66,2.66,0,0,0,1435.28,190.18Zm4.07,1.39a1.62,1.62,0,1,1-1-2.06A1.62,1.62,0,0,1,1439.35,191.57Z" transform="translate(-28.11 -6.55)"/></g><g style="opacity:0.07"><circle cx="1434.29" cy="30.63" r="0.32"/><path d="M1446.65,57.13h.16a2.23,2.23,0,0,0,2.07-2.38c-.08-2-.16-3.74-.16-5.33a40,40,0,0,1,1.11-10.65V81.46a3.42,3.42,0,0,0,6.84,0V57.13h1.27V81.46a3.42,3.42,0,0,0,6.84,0V38.77a39.6,39.6,0,0,1,1.11,10.65c0,1.59-.08,3.42-.16,5.33a2.29,2.29,0,0,0,2.15,2.38h.16a2.26,2.26,0,0,0,2.23-2.14c.08-2.07.15-3.9.15-5.57,0-8.27-1.19-12.8-2.78-15.58a7.38,7.38,0,0,0-2.62-2.78,5.57,5.57,0,0,0-1.83-.64c-.16,0-.32-.08-.48-.08h-1.83a12,12,0,0,1-.23,1.19c-.08.4-.16.88-.24,1.36-.64,3.18-1.67,7.71-3.1,9.14-1.43-1.43-2.47-6-3.1-9.14-.08-.48-.16-1-.24-1.28a10.6,10.6,0,0,0-.24-1.19h-1.83a1,1,0,0,0-.48.08,5.53,5.53,0,0,0-1.82.64c-1.44.79-2.79,2.38-3.74,5.24s-1.67,6.92-1.67,13.12c0,1.67.08,3.58.16,5.57A2.38,2.38,0,0,0,1446.65,57.13Zm15.74-20.59c0-1.27.72-1.19,1.28-.79a1.09,1.09,0,0,1,.39.71c0,.32-.23.64-1,.64,2.7,0-.64,3.34-.64.64,0,2.7-3.33-.64-.63-.64C1459.06,37.18,1462.39,33.84,1462.39,36.54Z" transform="translate(-28.11 -6.55)"/><circle cx="1429.2" cy="15.84" r="6.28"/><polygon points="1428.96 25.22 1428.96 24.9 1427.05 23.87 1426.97 23.79 1426.97 23.87 1426.97 26.33 1428.96 25.22"/><polygon points="1429.52 25.22 1431.51 26.33 1431.51 23.87 1431.51 23.79 1431.43 23.87 1429.52 24.9 1429.52 25.22"/><circle cx="1429.2" cy="27.29" r="0.56"/><circle cx="1429.2" cy="29.28" r="0.56"/><circle cx="1429.2" cy="31.5" r="0.56"/><path d="M1414.14,35.91h.08a.75.75,0,0,0,.71-.64,2.5,2.5,0,0,1,.16-.71,37.73,37.73,0,0,1,3-9.31,15.4,15.4,0,0,1,3.5-4.69,8,8,0,0,1,4.93-2,7.72,7.72,0,0,1,5.57,2.46c2.3,2.31,3.81,5.88,4.77,8.83.47,1.51.79,2.86,1,3.81a7.94,7.94,0,0,0,.24,1.11,1.4,1.4,0,0,1,.08.4.65.65,0,0,0,.79.56.66.66,0,0,0,.56-.8h0a39.84,39.84,0,0,0-2.55-8.82,19.47,19.47,0,0,0-3.89-6.12,8.7,8.7,0,0,0-13,0C1415,25.17,1413.74,35,1413.66,35,1413.5,35.51,1413.74,35.83,1414.14,35.91Z" transform="translate(-28.11 -6.55)"/><circle cx="1398.43" cy="19.89" r="6.28"/><path d="M1414,82.57a2.32,2.32,0,0,1,3.18,0,2.2,2.2,0,0,0,1.59-.63,2.15,2.15,0,0,0,1.51.63A2.76,2.76,0,0,0,1423,85a2.82,2.82,0,0,0,2.78-2.54,2.65,2.65,0,0,0,.8.15h.24a2.81,2.81,0,0,0,5.56-.08c.16,0,.32.08.56.08a2.32,2.32,0,0,1,3.18,0,2.32,2.32,0,0,1,3.18,0,2,2,0,0,0,2.15-1.9v-.16l-9.86-32.28,2.38-8.9a1.51,1.51,0,0,1,.32.47,17.65,17.65,0,0,1,1.51,6,91.88,91.88,0,0,1,.4,9.94,1.51,1.51,0,1,0,3,0,79.5,79.5,0,0,0-.48-10.25,20.14,20.14,0,0,0-1.83-7.24,7,7,0,0,0-2.7-2.62,15.9,15.9,0,0,0-7.39-1.75h-.16a16.31,16.31,0,0,0-4.21.56,10.23,10.23,0,0,0-3.18,1.27,7.69,7.69,0,0,0-2.71,2.62,19,19,0,0,0-1.83,7.24,101.21,101.21,0,0,0-.47,10.25,1.51,1.51,0,0,0,3,0,91.88,91.88,0,0,1,.4-9.94,17.41,17.41,0,0,1,1.51-6c.08-.16.23-.32.31-.47l2.39,8.9-9.86,32.28v.16A1.73,1.73,0,0,0,1414,82.57Zm-1.51-1.82,9.86-32.28.08-.16-.08-.16L1420.18,40a14.14,14.14,0,0,1,6.36-1.19A13.9,13.9,0,0,1,1432.9,40l-2.15,8.11-.08.16.08.16,9.86,32.28h0A1.51,1.51,0,0,1,1439,82.1a1.61,1.61,0,0,1-1.19-.48l-.4-.4-.4.4a1.72,1.72,0,0,1-2.38,0l-.4-.4-.4.4a1.59,1.59,0,0,1-1.19.48,1,1,0,0,1-.48-.08,3.42,3.42,0,0,1-.71-.4l-.4-.4-.4.4a1.72,1.72,0,0,1-2.38,0l-.4-.4-.4.4a2.09,2.09,0,0,1-1,.48h-.16a2.22,2.22,0,0,1-.71-.16.8.8,0,0,1-.4-.32l-.4-.4-.4.4a1.72,1.72,0,0,1-2.38,0l-.4-.4-.4.4a1.59,1.59,0,0,1-1.19.48H1420a1.56,1.56,0,0,1-1.11-.48l-.4-.4-.4.4a1.72,1.72,0,0,1-2.38,0l-.4-.4-.4.4a1.59,1.59,0,0,1-1.19.48,1.52,1.52,0,0,1-1.27-1.35Z" transform="translate(-28.11 -6.55)"/></g><g style="opacity:0.07"><path d="M1540.74,132.41c-10.65,2.62-14.63,9.38-15.58,13-.72,2.86-1.11,6.76.72,9.22.55.8,3,.32,2.22-.79-1.43-2-1-5.41-.55-7.64,3.49-16.14,21.3-7.23,24.16-5.08,7.64,5.56,4.22,15.82,1.51,18.2-9.38,8.27-21.78.4-23.21-2.78,4.13-4.29,6.12-11,3.1-16.3-.32-.56-2.78-.24-2.54.24,3,5.33,1,11.77-3.18,15.9-.32,0-3,4.93-14.15,2.23s-11.69-14.79-10.5-18.61c4.61-14.47,24.65-5.17,24.88-5.17,2.07,1.12,2.15-.31,1.91-.79-4-6.44-13.43-7.79-20.27-6.44s-11.77,7.31-13.12,14,1.51,15.43,7.87,18.45c14.39,6.75,23.38-1.35,23.69-1.59,3.34,9.38,15.59,13.51,24.49,10a18.58,18.58,0,0,0,11.37-12.16C1569.12,134.8,1546.86,130.9,1540.74,132.41Zm-39.11,23.14c-6.12-6.05-3.82-23.93,7.31-26.32,7.79-1.91,13.52.87,15.19,2.15-2-.64-17.41-3.9-22.5,5.48a18.76,18.76,0,0,0-1.27,10.74c3.26,15,17.57,13.51,18.6,13.43C1515.62,161.43,1508.23,162.06,1501.63,155.55Zm40.23,12.32c-3.42-.8-7.88-3.42-9.94-6.28a12.82,12.82,0,0,0,3.89,2.3c3.9,1.43,8.35,2.23,12.48,1.27,8-1.74,15.35-13.51,6.76-23.77-1.75-2.14-10.41-7.55-19.32-5.8a18.41,18.41,0,0,1,15.43-.24c5.72,2.47,11.13,8.27,11.29,14.55C1562.68,155.86,1557.28,171.29,1541.86,167.87Zm-11.21-36.33c.47.79,2.14.47,2.38-.32,2.78-2.55,7.47-3.58,8.9-7.32a3.77,3.77,0,0,0-2.06-4.93,6.27,6.27,0,0,0-4.61.32,7,7,0,0,0-4.53-3.1c-2.39-.47-5,.8-5.41,3.34C1524.92,121.68,1530.65,131.54,1530.65,131.54Zm-.8-13.6a4.25,4.25,0,0,1,3.34,2.86c.16.56.79.72,1.43.64.32,0,2.07-2.7,4.37-.88,1.28,1,.64,3-.24,4.06-1.74,2.15-4.37,3.18-6.59,4.69-.64-.95-3.9-6.6-4.22-8.59C1527.62,119.37,1528.18,117.86,1529.85,117.94Z" transform="translate(-28.11 -6.55)"/></g><g style="opacity:0.07"><path d="M1354,108.92a.79.79,0,0,0-1,.4l-1.67,4.06a.79.79,0,0,0,.4,1,.48.48,0,0,0,.32.08.69.69,0,0,0,.71-.48l1.67-4.05A.8.8,0,0,0,1354,108.92Z" transform="translate(-28.11 -6.55)"/><path d="M1353.87,117a.76.76,0,0,0,.71.48.48.48,0,0,0,.32-.08l3.9-1.91a.78.78,0,0,0-.64-1.43l-3.9,1.91A.73.73,0,0,0,1353.87,117Z" transform="translate(-28.11 -6.55)"/><path d="M1368.1,134.44a98.67,98.67,0,0,0-4.3-13.27.7.7,0,0,0-.87-.4l-14,3.42a.78.78,0,0,0-.64.79c.08,3.1,1.59,10.66,2.31,13.68,2.38,9.78,7.63,16.85,12.24,16.85h.24l3.5,14.23-4.85,1.19a.76.76,0,0,0-.56,1,.77.77,0,0,0,.8.63h.15l11.29-2.78a.78.78,0,1,0-.39-1.51l-4.85,1.19-3.5-14.23C1369.13,153.21,1370.56,144.46,1368.1,134.44Zm-5.41-12a40.94,40.94,0,0,1,1.51,4.21,21,21,0,0,0-8.66,4.61,26.39,26.39,0,0,1-4.22,3,77.56,77.56,0,0,1-1.35-8.67Zm1,31.4c-3.89,1-9.14-6.2-11.44-15.5-.16-.64-.32-1.51-.56-2.47a22.87,22.87,0,0,0,4.93-3.25,19.12,19.12,0,0,1,8.11-4.38c.79,2.55,1.51,5.09,1.91,6.6C1368.89,144.14,1367.54,152.89,1363.64,153.84Z" transform="translate(-28.11 -6.55)"/><path d="M1363.17,136.43a.76.76,0,0,0-.56,1c1.11,4.61,1,8.5.48,9.69a.79.79,0,0,0,.4,1,.45.45,0,0,0,.31.08.7.7,0,0,0,.72-.48c.64-1.67.79-6-.4-10.65A.72.72,0,0,0,1363.17,136.43Z" transform="translate(-28.11 -6.55)"/><path d="M1323,156.7a.78.78,0,0,0-.4,1.51l11.29,2.79h.16a.84.84,0,0,0,.8-.64.81.81,0,0,0-.56-1l-4.85-1.2L1333,144h.24c4.61,0,9.85-7,12.24-16.85.71-3,2.23-10.65,2.3-13.67a.77.77,0,0,0-.63-.8l-14-3.42a.76.76,0,0,0-.88.4c-1.35,2.78-3.5,10.18-4.29,13.28-2.47,10-1,18.76,3.34,20.75l-3.5,14.23ZM1333.43,111l12.72,3.1c-.15,1.75-.55,4.53-1,7.08a18.72,18.72,0,0,1-4.13-2.87,20.52,20.52,0,0,0-8.51-4.69C1332.8,112.66,1333.12,111.71,1333.43,111Zm-3.89,12.4c.48-1.83,1.43-5.16,2.38-8.19a19.19,19.19,0,0,1,8,4.38,20.34,20.34,0,0,0,4.85,3.26c-.31,1.59-.63,3-.87,4-2.31,9.38-7.55,16.54-11.45,15.5C1328.59,141.44,1327.23,132.69,1329.54,123.39Z" transform="translate(-28.11 -6.55)"/><path d="M1333,136.75a.73.73,0,0,0,.4-1c-.56-1.44-.8-6.21.55-11.93a.81.81,0,0,0-.55-1,.83.83,0,0,0-1,.55c-1.43,5.73-1.27,10.89-.48,12.88a.77.77,0,0,0,.72.48C1332.72,136.83,1332.8,136.83,1333,136.75Z" transform="translate(-28.11 -6.55)"/><path d="M1346.15,160.6a.6.6,0,0,0,.32-.08c.24-.08,5.81-2.23,6.92-6.44a19.32,19.32,0,0,0-12-5.09,4.36,4.36,0,0,0-2.46,5.09c1,4.21,6.68,6.36,6.92,6.44A.59.59,0,0,0,1346.15,160.6Zm-5.64-6.92a2.7,2.7,0,0,1,1.51-3.26,2.54,2.54,0,0,1,1.11-.24,2.61,2.61,0,0,1,2.31,1.36.74.74,0,0,0,.64.31,1,1,0,0,0,.63-.31,2.7,2.7,0,0,1,3.42-1.12,2.63,2.63,0,0,1,1.51,3.26c-.72,2.94-4.53,4.77-5.64,5.25C1345.12,158.45,1341.31,156.62,1340.51,153.68Z" transform="translate(-28.11 -6.55)"/><path d="M1379.7,116a4.79,4.79,0,0,0-2.7-5.65,4.63,4.63,0,0,0-5.17,1,4.51,4.51,0,0,0-5.16-1A4.9,4.9,0,0,0,1364,116c1.12,4.69,7.32,7.08,7.56,7.15.07,0,.15.08.31.08a.48.48,0,0,0,.32-.08C1372.39,123.08,1378.51,120.69,1379.7,116Zm-7.87,5.56c-1.19-.47-5.48-2.54-6.36-6a3.19,3.19,0,0,1,1.75-3.81,3.3,3.3,0,0,1,1.27-.24,3.09,3.09,0,0,1,2.63,1.51.81.81,0,0,0,.63.4.71.71,0,0,0,.64-.4,3.09,3.09,0,0,1,3.9-1.27,3.18,3.18,0,0,1,1.74,3.81C1377.32,118.94,1373,121.09,1371.83,121.56Z" transform="translate(-28.11 -6.55)"/><path d="M1321.67,120.21c.08,0,.16.08.32.08a.56.56,0,0,0,.31-.08c.16-.08,4.54-1.83,5.33-5.24a3.67,3.67,0,0,0-2.07-4.3,10.3,10.3,0,0,1-7.15,0,3.67,3.67,0,0,0-2.07,4.3C1317.14,118.38,1321.51,120.13,1321.67,120.21Zm-2.62-8a2.22,2.22,0,0,1,.71-.16,1.85,1.85,0,0,1,1.59,1,.82.82,0,0,0,.64.4.7.7,0,0,0,.63-.4,1.76,1.76,0,0,1,2.31-.8,1.93,1.93,0,0,1,1.11,2.39c-.56,2.14-3.18,3.58-4,4-.88-.39-3.58-1.83-4.06-4A1.93,1.93,0,0,1,1319.05,112.18Z" transform="translate(-28.11 -6.55)"/><path d="M1345.28,167a3.66,3.66,0,0,0-2.07-4.29,3.22,3.22,0,0,0-3.57.63,3.26,3.26,0,0,0-3.58-.63A3.66,3.66,0,0,0,1334,167c.8,3.42,5.17,5.17,5.33,5.25s.16.08.32.08a.47.47,0,0,0,.31-.08C1340.11,172.13,1344.49,170.38,1345.28,167Zm-5.64,3.66c-1.2-.56-3.58-2-4.06-4a1.92,1.92,0,0,1,1.11-2.38,2.34,2.34,0,0,1,.72-.16,1.86,1.86,0,0,1,1.59,1,.82.82,0,0,0,.64.4.71.71,0,0,0,.63-.4,1.76,1.76,0,0,1,2.31-.79,1.92,1.92,0,0,1,1.11,2.38C1343.21,168.79,1340.51,170.22,1339.64,170.62Z" transform="translate(-28.11 -6.55)"/></g><g style="opacity:0.07"><circle cx="344.21" cy="25.7" r="5.09"/><circle cx="408.24" cy="34.39" r="5.09" transform="translate(236.6 411.55) rotate(-74.31)"/><path d="M427.49,28.84a1.52,1.52,0,0,0-2.07.4,31,31,0,0,1-8.35,7.87c-1.43,1-2.7,1.67-3.57,2.22a7.2,7.2,0,0,1-1.12.56c-.15.08-.23.08-.31.16a.08.08,0,0,0-.08.08h0a11,11,0,0,0-1.83.47,12,12,0,0,0-2.63,1.12c-.07,0-.15.08-.23.08h0a12.38,12.38,0,0,1-4.46.71,27,27,0,0,1-9.69-2.06c0-.08-.08-.16-.08-.24a1.74,1.74,0,0,0-2.39-.8,18.34,18.34,0,0,1-8,1.91,17.73,17.73,0,0,1-5.25-.8c-.63-.23-1.11-.39-1.43-.55l-.31-.16h-.08a2.54,2.54,0,0,0-.72-.24h-.08c-2.78-.24-5.64-.48-8.43-.79h-.08a35.73,35.73,0,0,1-5.8-1.36,24.66,24.66,0,0,1-9.3-5.16,1.8,1.8,0,0,0-2.47,2.62A28.9,28.9,0,0,0,360,41c1.28.4,2.39.64,3.26.88-.24,5.4,1,8.74,2.87,13.67,0,.08,0,.08.07.16h0a32.23,32.23,0,0,1,1.67,10.49,33.28,33.28,0,0,1-1.67,10.58A2.82,2.82,0,0,0,368,80.35a3.4,3.4,0,0,0,.88.16,2.89,2.89,0,0,0,2.7-2,41,41,0,0,0,1.91-12.33,39,39,0,0,0-.72-7.55A17,17,0,0,1,376,62.71c1.83,3,3.74,7.87,4.61,15.18a2.84,2.84,0,0,0,2.79,2.54h.31a2.83,2.83,0,0,0,2.47-3.1c-.95-8.9-3.58-14.78-6-18.52a20.9,20.9,0,0,0-3.5-4.21c-2.31-4.69-1.91-7.4-.56-10.66a20.27,20.27,0,0,0,6.68,1.12h0a21.93,21.93,0,0,0,8.9-1.91,29,29,0,0,0,11.29,2.54,16.15,16.15,0,0,0,3.1-.24,50.69,50.69,0,0,1-2.38,16.78l3.89.24-4.92,15.1A2.26,2.26,0,1,0,406.9,79l5.25-16.22c.39,0,.87.08,1.27.08V78.29a2.23,2.23,0,0,0,4.45,0V63.18l4,.24a64.25,64.25,0,0,0-6.28-21.62,31.69,31.69,0,0,0,3-1.91,32.33,32.33,0,0,0,9.14-8.67A1.75,1.75,0,0,0,427.49,28.84Z" transform="translate(-28.11 -6.55)"/></g><g style="opacity:0.07"><line x1="1115.28" y1="295.01" x2="1129.44" y2="297.08" style="fill:none;stroke:#000;stroke-linecap:round;stroke-miterlimit:10;stroke-width:2px"/><line x1="1125.54" y1="274.82" x2="1122.36" y2="296.05" style="fill:none;stroke:#000;stroke-linecap:round;stroke-miterlimit:10;stroke-width:2px"/><path d="M1164.78,249.73l-6.36-.95-6.36-1a52.67,52.67,0,0,0-3.5,13.2c-1.59,10.57.71,19.64,5,20.27h.16c4.29.64,9.06-7.39,10.57-18A46.25,46.25,0,0,0,1164.78,249.73Z" transform="translate(-28.11 -6.55)" style="fill:none;stroke:#000;stroke-linecap:round;stroke-linejoin:round;stroke-width:2px"/><path d="M1149.59,257c2.47.39,2.31,1.75,4.77,2.06s2.71-1,5.25-.63,2.3,1.75,4.85,2.06" transform="translate(-28.11 -6.55)" style="fill:none;stroke:#000;stroke-linecap:round;stroke-miterlimit:10;stroke-width:2px"/><line x1="1150.26" y1="296.52" x2="1164.26" y2="293.5" style="fill:none;stroke:#000;stroke-linecap:round;stroke-miterlimit:10;stroke-width:2px"/><line x1="1152.73" y1="274.03" x2="1157.26" y2="295.01" style="fill:none;stroke:#000;stroke-linecap:round;stroke-miterlimit:10;stroke-width:2px"/><path d="M1180.2,247l-6.28,1.35-6.28,1.35a52.45,52.45,0,0,0,1.35,13.6c2.23,10.41,7.55,18.12,11.77,17.25h.16c4.21-1,5.88-10.1,3.57-20.59A42.62,42.62,0,0,0,1180.2,247Z" transform="translate(-28.11 -6.55)" style="fill:none;stroke:#000;stroke-linecap:round;stroke-linejoin:round;stroke-width:2px"/><path d="M1168.51,259.11c2.47-.55,2.79.8,5.25.32s2.15-1.91,4.69-2.38,2.78.79,5.25.23" transform="translate(-28.11 -6.55)" style="fill:none;stroke:#000;stroke-linecap:round;stroke-miterlimit:10;stroke-width:2px"/><line x1="1137.86" y1="232.05" x2="1137.86" y2="236.82" style="fill:none;stroke:#000;stroke-linecap:round;stroke-linejoin:round;stroke-width:2px"/><line x1="1131.1" y1="234.83" x2="1134.52" y2="238.25" style="fill:none;stroke:#000;stroke-linecap:round;stroke-linejoin:round;stroke-width:2px"/><line x1="1144.62" y1="234.83" x2="1141.28" y2="238.25" style="fill:none;stroke:#000;stroke-linecap:round;stroke-linejoin:round;stroke-width:2px"/></g><g style="opacity:0.07"><path d="M1285.21,289s-.63-2.47.72-3.26,3.18,1,3.18,1Z" transform="translate(-28.11 -6.55)" style="fill:none;stroke:#000;stroke-linecap:round;stroke-linejoin:round;stroke-width:2px"/><path d="M1287.52,288.41c1.27,2.15.08,2.78,1.35,4.93s2.94,1.19,4.14,3.34.07,2.78,1.35,5" transform="translate(-28.11 -6.55)" style="fill:none;stroke:#000;stroke-linecap:round;stroke-miterlimit:10;stroke-width:2px"/><path d="M1281.16,263a19.84,19.84,0,0,1-.16-5.33,11.63,11.63,0,0,0-10.49,1c-7.56,4.37-7.56,12.56-4.06,18.68s12.4,12.32,19.48,8.27a10.8,10.8,0,0,0,5-7.16C1285.69,275.21,1282,268.61,1281.16,263Z" transform="translate(-28.11 -6.55)" style="fill:none;stroke:#000;stroke-linecap:round;stroke-miterlimit:10;stroke-width:2px"/><path d="M1311.21,258.12c1.35,8.27-2.3,20.59-11.84,22.18s-16.86-9.06-18.21-17.33,2.07-17.49,12.32-19.16S1309.86,249.85,1311.21,258.12Z" transform="translate(-28.11 -6.55)" style="fill:none;stroke:#000;stroke-linecap:round;stroke-miterlimit:10;stroke-width:2px"/><path d="M1306.6,256.53a10.44,10.44,0,0,1,.64,2.62" transform="translate(-28.11 -6.55)" style="fill:none;stroke:#000;stroke-linecap:round;stroke-miterlimit:10;stroke-width:2px"/><path d="M1294.28,248.66a10.45,10.45,0,0,1,11.29,5.48" transform="translate(-28.11 -6.55)" style="fill:none;stroke:#000;stroke-linecap:round;stroke-miterlimit:10;stroke-width:2px"/><path d="M1297.22,283.8s.32-3,2.15-3.34,3.1,2.46,3.1,2.46Z" transform="translate(-28.11 -6.55)" style="fill:none;stroke:#000;stroke-linecap:round;stroke-linejoin:round;stroke-width:2px"/><path d="M1300,284.12c.48,2.94-1,3.18-.56,6.12s2.79,2.54,3.26,5.48-1,3.18-.55,6.12" transform="translate(-28.11 -6.55)" style="fill:none;stroke:#000;stroke-linecap:round;stroke-miterlimit:10;stroke-width:2px"/></g><g style="opacity:0.07"><circle cx="1535.23" cy="241.6" r="0.32"/><path d="M1547.6,268h.16a2.23,2.23,0,0,0,2.07-2.38c-.08-2-.16-3.74-.16-5.33a39.54,39.54,0,0,1,1.11-10.65v42.69a3.42,3.42,0,1,0,6.84,0V268.19h1.27v24.33a3.42,3.42,0,0,0,6.84,0V249.75a40,40,0,0,1,1.11,10.65c0,1.59-.08,3.42-.16,5.33a2.29,2.29,0,0,0,2.15,2.38h.16a2.25,2.25,0,0,0,2.22-2.15c.08-2.06.16-3.89.16-5.56,0-8.27-1.19-12.8-2.78-15.58A7.58,7.58,0,0,0,1566,242a5.84,5.84,0,0,0-1.83-.63c-.16,0-.32-.08-.48-.08h-1.83a10.39,10.39,0,0,1-.24,1.19c-.08.4-.16.88-.24,1.35-.63,3.18-1.67,7.71-3.1,9.15-1.43-1.44-2.46-6-3.1-9.15-.08-.47-.16-1-.24-1.27a8.67,8.67,0,0,0-.23-1.19h-1.83a1,1,0,0,0-.48.08,5.76,5.76,0,0,0-1.83.63c-1.43.8-2.78,2.39-3.73,5.25s-1.67,6.92-1.67,13.12c0,1.67.08,3.58.16,5.56A2.3,2.3,0,0,0,1547.6,268Zm15.74-20.51c0-1.27.72-1.19,1.27-.8a1.11,1.11,0,0,1,.4.72c0,.32-.24.64-1,.64,2.7,0-.64,3.34-.64.63,0,2.71-3.34-.63-.63-.63C1560,248.16,1563.34,244.82,1563.34,247.52Z" transform="translate(-28.11 -6.55)"/><circle cx="1530.23" cy="226.82" r="6.28"/><polygon points="1529.91 236.2 1529.91 235.88 1528 234.77 1528 234.77 1528 234.77 1528 237.31 1529.91 236.2"/><polygon points="1530.46 236.2 1532.45 237.31 1532.45 234.77 1532.45 234.77 1532.37 234.77 1530.46 235.88 1530.46 236.2"/><circle cx="1530.23" cy="238.26" r="0.56"/><circle cx="1530.23" cy="240.17" r="0.56"/><circle cx="1530.23" cy="242.4" r="0.56"/><path d="M1515.16,246.88h.08a.75.75,0,0,0,.72-.63,2.59,2.59,0,0,1,.16-.72,37.69,37.69,0,0,1,3-9.3,15,15,0,0,1,3.5-4.69,8,8,0,0,1,4.93-2,7.71,7.71,0,0,1,5.56,2.47c2.31,2.3,3.82,5.88,4.77,8.82.48,1.51.8,2.86,1,3.82a8.66,8.66,0,0,0,.24,1.11,1.4,1.4,0,0,1,.08.4.65.65,0,0,0,.8.55.64.64,0,0,0,.55-.79h0a39.48,39.48,0,0,0-2.54-8.82,19.55,19.55,0,0,0-3.9-6.13,8.69,8.69,0,0,0-13,0c-5.09,5.17-6.36,15-6.44,15C1514.53,246.49,1514.77,246.8,1515.16,246.88Z" transform="translate(-28.11 -6.55)"/><circle cx="1499.38" cy="230.87" r="6.28"/><path d="M1515,293.55a2.23,2.23,0,0,0,1.59-.64,2.19,2.19,0,0,0,1.59.64,2.23,2.23,0,0,0,1.59-.64,2.14,2.14,0,0,0,1.51.64,2.76,2.76,0,0,0,2.78,2.39,2.84,2.84,0,0,0,2.78-2.55,2.37,2.37,0,0,0,.8.16h.23a2.81,2.81,0,0,0,5.57-.08c.16,0,.32.08.56.08a2.23,2.23,0,0,0,1.59-.64,2.19,2.19,0,0,0,1.59.64,2.23,2.23,0,0,0,1.59-.64,2.19,2.19,0,0,0,1.59.64,2,2,0,0,0,2.14-1.91v-.16l-9.86-32.27,2.39-8.91a1.67,1.67,0,0,1,.32.48,17.81,17.81,0,0,1,1.51,6,91.66,91.66,0,0,1,.4,9.94,1.51,1.51,0,0,0,3,0,79.57,79.57,0,0,0-.48-10.26,20.29,20.29,0,0,0-1.83-7.23,7.06,7.06,0,0,0-2.7-2.62,15.91,15.91,0,0,0-7.4-1.75h-.15a16.7,16.7,0,0,0-4.22.55,11,11,0,0,0-3.18,1.27,7.78,7.78,0,0,0-2.7,2.63,18.92,18.92,0,0,0-1.83,7.23,98.24,98.24,0,0,0-.48,10.26,1.51,1.51,0,0,0,3,0,91.66,91.66,0,0,1,.4-9.94,17.81,17.81,0,0,1,1.51-6c.08-.16.24-.32.32-.48l2.39,8.91-9.86,32.27v.16C1512.86,292.68,1513.81,293.55,1515,293.55Zm-1.59-1.91,9.85-32.27.08-.16-.08-.16-2.14-8.11a14,14,0,0,1,6.36-1.19,13.8,13.8,0,0,1,6.36,1.19l-2.15,8.11-.08.16.08.16,9.86,32.27h0A1.51,1.51,0,0,1,1540,293a1.58,1.58,0,0,1-1.19-.47l-.4-.4-.4.4a1.74,1.74,0,0,1-2.38,0l-.4-.4-.4.4a1.6,1.6,0,0,1-1.19.47,1,1,0,0,1-.48-.08,2.63,2.63,0,0,1-.71-.39l-.4-.4-.4.4a1.74,1.74,0,0,1-2.38,0l-.4-.4-.4.4a2.18,2.18,0,0,1-1,.47h-.16a2.64,2.64,0,0,1-.72-.15.8.8,0,0,1-.4-.32l-.39-.4-.4.4a1.75,1.75,0,0,1-2.39,0l-.39-.4-.4.4a1.61,1.61,0,0,1-1.19.47H1521a1.57,1.57,0,0,1-1.12-.47l-.39-.4-.4.4a1.75,1.75,0,0,1-2.39,0l-.39-.4-.4.4a1.61,1.61,0,0,1-1.19.47,1.37,1.37,0,0,1-1.27-1.35Z" transform="translate(-28.11 -6.55)"/></g><g style="opacity:0.07"><circle cx="1358.05" cy="227.14" r="5.09"/><circle cx="1422.09" cy="235.83" r="5.09" transform="translate(782.26 1534.55) rotate(-74.31)"/><path d="M1441.33,230.27a1.53,1.53,0,0,0-2.06.4,31.26,31.26,0,0,1-8.35,7.87c-1.43,1-2.7,1.67-3.58,2.23a5.89,5.89,0,0,1-1.11.55c-.16.08-.24.08-.32.16a.08.08,0,0,0-.08.08h0a10.64,10.64,0,0,0-1.83.48,12.41,12.41,0,0,0-2.62,1.11c-.08,0-.16.08-.24.08h0a12.2,12.2,0,0,1-4.45.72,27.1,27.1,0,0,1-9.7-2.07c0-.08-.08-.16-.08-.24a1.73,1.73,0,0,0-2.38-.79,18.4,18.4,0,0,1-8,1.91,17.67,17.67,0,0,1-5.25-.8c-.64-.24-1.11-.4-1.43-.56l-.32-.15h-.08a2.54,2.54,0,0,0-.72-.24h-.07c-2.79-.24-5.65-.48-8.43-.8h-.08a36.19,36.19,0,0,1-5.8-1.35,24.59,24.59,0,0,1-9.31-5.17,1.8,1.8,0,0,0-2.46,2.63,29,29,0,0,0,11.29,6.12c1.27.4,2.38.63,3.26.87-.24,5.41,1,8.75,2.86,13.68,0,.08,0,.08.08.16h0a32.23,32.23,0,0,1,1.67,10.49,33.46,33.46,0,0,1-1.67,10.57,2.82,2.82,0,0,0,1.83,3.58,3.33,3.33,0,0,0,.87.16,2.91,2.91,0,0,0,2.71-2,40.88,40.88,0,0,0,1.9-12.32,39,39,0,0,0-.71-7.55,17.17,17.17,0,0,1,3.18,4.05c1.83,3,3.73,7.87,4.61,15.19a2.83,2.83,0,0,0,2.78,2.54h.32a2.83,2.83,0,0,0,2.46-3.1c-1-8.9-3.57-14.79-6-18.52a21,21,0,0,0-3.5-4.22c-2.3-4.69-1.9-7.39-.55-10.65a20.25,20.25,0,0,0,6.68,1.11h0a21.8,21.8,0,0,0,8.9-1.91,29,29,0,0,0,11.29,2.55,16.3,16.3,0,0,0,3.1-.24,50.63,50.63,0,0,1-2.39,16.77l3.9.24L1416.45,279a2.26,2.26,0,1,0,4.29,1.43l5.25-16.22c.4,0,.88.08,1.27.08v15.42a2.23,2.23,0,1,0,4.45,0v-15.1l4,.24a64.3,64.3,0,0,0-6.28-21.63,28.11,28.11,0,0,0,3-1.91,32,32,0,0,0,9.14-8.66A1.75,1.75,0,0,0,1441.33,230.27Z" transform="translate(-28.11 -6.55)"/></g><g style="opacity:0.07"><line x1="224.87" y1="280.44" x2="236.93" y2="282.21" style="fill:none;stroke:#000;stroke-linecap:round;stroke-miterlimit:10;stroke-width:2px"/><line x1="233.61" y1="263.24" x2="230.9" y2="281.33" style="fill:none;stroke:#000;stroke-linecap:round;stroke-miterlimit:10;stroke-width:2px"/><path d="M271.2,242.83l-5.42-.81-5.42-.82a45.21,45.21,0,0,0-3,11.25c-1.36,9,.61,16.73,4.27,17.27h.13c3.66.55,7.73-6.3,9-15.31A39.07,39.07,0,0,0,271.2,242.83Z" transform="translate(-28.11 -6.55)" style="fill:none;stroke:#000;stroke-linecap:round;stroke-linejoin:round;stroke-width:2px"/><path d="M258.26,249c2.1.34,2,1.49,4.06,1.77s2.31-.88,4.48-.55,2,1.49,4.13,1.77" transform="translate(-28.11 -6.55)" style="fill:none;stroke:#000;stroke-linecap:round;stroke-miterlimit:10;stroke-width:2px"/><line x1="254.68" y1="281.73" x2="266.6" y2="279.16" style="fill:none;stroke:#000;stroke-linecap:round;stroke-miterlimit:10;stroke-width:2px"/><line x1="256.78" y1="262.56" x2="260.64" y2="280.44" style="fill:none;stroke:#000;stroke-linecap:round;stroke-miterlimit:10;stroke-width:2px"/><path d="M284.34,240.53,279,241.68l-5.35,1.15a44.36,44.36,0,0,0,1.15,11.58c1.9,8.88,6.43,15.45,10,14.7H285c3.59-.81,5-8.6,3.05-17.54A36.52,36.52,0,0,0,284.34,240.53Z" transform="translate(-28.11 -6.55)" style="fill:none;stroke:#000;stroke-linecap:round;stroke-linejoin:round;stroke-width:2px"/><path d="M274.38,250.82c2.1-.47,2.37.68,4.47.27s1.83-1.62,4-2,2.37.68,4.47.21" transform="translate(-28.11 -6.55)" style="fill:none;stroke:#000;stroke-linecap:round;stroke-miterlimit:10;stroke-width:2px"/><line x1="244.11" y1="226.79" x2="244.11" y2="230.86" style="fill:none;stroke:#000;stroke-linecap:round;stroke-linejoin:round;stroke-width:2px"/><line x1="238.35" y1="229.16" x2="241.26" y2="232.08" style="fill:none;stroke:#000;stroke-linecap:round;stroke-linejoin:round;stroke-width:2px"/><line x1="249.87" y1="229.16" x2="247.02" y2="232.08" style="fill:none;stroke:#000;stroke-linecap:round;stroke-linejoin:round;stroke-width:2px"/></g><g style="opacity:0.07"><path d="M423.42,275.13s-.54-2.1.61-2.78,2.71.88,2.71.88Z" transform="translate(-28.11 -6.55)" style="fill:none;stroke:#000;stroke-linecap:round;stroke-linejoin:round;stroke-width:2px"/><path d="M425.38,274.66c1.09,1.83.07,2.37,1.16,4.2s2.5,1,3.52,2.84.07,2.37,1.15,4.27" transform="translate(-28.11 -6.55)" style="fill:none;stroke:#000;stroke-linecap:round;stroke-miterlimit:10;stroke-width:2px"/><path d="M420,253a16.85,16.85,0,0,1-.13-4.54,9.92,9.92,0,0,0-8.94.81c-6.44,3.73-6.44,10.71-3.46,15.92s10.57,10.5,16.6,7.05a9.19,9.19,0,0,0,4.27-6.1C423.83,263.41,420.71,257.79,420,253Z" transform="translate(-28.11 -6.55)" style="fill:none;stroke:#000;stroke-linecap:round;stroke-miterlimit:10;stroke-width:2px"/><path d="M445.57,248.85c1.15,7-2,17.54-10.09,18.9S421.12,260,420,253s1.77-14.9,10.5-16.33S444.42,241.8,445.57,248.85Z" transform="translate(-28.11 -6.55)" style="fill:none;stroke:#000;stroke-linecap:round;stroke-miterlimit:10;stroke-width:2px"/><path d="M441.64,247.49a8.7,8.7,0,0,1,.54,2.24" transform="translate(-28.11 -6.55)" style="fill:none;stroke:#000;stroke-linecap:round;stroke-miterlimit:10;stroke-width:2px"/><path d="M431.14,240.79a8.9,8.9,0,0,1,9.62,4.67" transform="translate(-28.11 -6.55)" style="fill:none;stroke:#000;stroke-linecap:round;stroke-miterlimit:10;stroke-width:2px"/><path d="M433.65,270.73s.27-2.58,1.83-2.85,2.64,2.1,2.64,2.1Z" transform="translate(-28.11 -6.55)" style="fill:none;stroke:#000;stroke-linecap:round;stroke-linejoin:round;stroke-width:2px"/><path d="M436,271c.41,2.51-.88,2.71-.48,5.21s2.38,2.17,2.78,4.68-.88,2.71-.47,5.22" transform="translate(-28.11 -6.55)" style="fill:none;stroke:#000;stroke-linecap:round;stroke-miterlimit:10;stroke-width:2px"/></g><g style="opacity:0.07"><path d="M984.78,268.93l-.74.13a1.91,1.91,0,0,1-2.17-1.62h0a1.91,1.91,0,0,1,1.62-2.17l2.71-.34.27,1.9A1.89,1.89,0,0,1,984.78,268.93Z" transform="translate(-28.11 -6.55)" style="fill:none;stroke:#000;stroke-miterlimit:10;stroke-width:2px"/><path d="M989.05,259.85a5,5,0,0,0-1.56-2.91c-1.08-.82-2.57-1.63-2.78-2.85l1.76,12.6" transform="translate(-28.11 -6.55)" style="fill:none;stroke:#000;stroke-linecap:round;stroke-miterlimit:10;stroke-width:2px"/><path d="M998.47,261.27l-.89.54A2.63,2.63,0,0,1,994,261h0a2.63,2.63,0,0,1,.82-3.59l3.05-2,1.35,2.16A2.63,2.63,0,0,1,998.47,261.27Z" transform="translate(-28.11 -6.55)" style="fill:none;stroke:#000;stroke-miterlimit:10;stroke-width:2px"/><path d="M998.53,247.93a6.36,6.36,0,0,0-3.52-2.64c-1.83-.41-4-.55-4.88-2l9.08,14.29" transform="translate(-28.11 -6.55)" style="fill:none;stroke:#000;stroke-linecap:round;stroke-miterlimit:10;stroke-width:2px"/><path d="M962,242.71a10.16,10.16,0,0,0-1.89,18.83l13.27-3.72a10.31,10.31,0,0,0,1.15-8.06A10.16,10.16,0,0,0,962,242.71Z" transform="translate(-28.11 -6.55)" style="fill:none;stroke:#000;stroke-miterlimit:10;stroke-width:2px"/><line x1="927.55" y1="250.59" x2="946.72" y2="245.24" style="fill:none;stroke:#000;stroke-miterlimit:10;stroke-width:2px"/><path d="M976,286.61l-3.66,1a2.07,2.07,0,0,1-2.44-1.22l-9.76-24.92,13.28-3.73,4.07,26.55A2.06,2.06,0,0,1,976,286.61Z" transform="translate(-28.11 -6.55)" style="fill:none;stroke:#000;stroke-miterlimit:10;stroke-width:2px"/><path d="M973.94,287.22l.21.81a7.36,7.36,0,0,0,9.07,5.08l.14-.07a7.36,7.36,0,0,0,5.08-9.07h0a7.63,7.63,0,0,1,5.28-9.42l13.21-3.73" transform="translate(-28.11 -6.55)" style="fill:none;stroke:#000;stroke-linecap:round;stroke-miterlimit:10;stroke-width:2px"/><path d="M969.34,268.79h0a1.36,1.36,0,0,1-1.7-1l-.54-2a1.36,1.36,0,0,1,.95-1.7h0a1.36,1.36,0,0,1,1.69.95l.54,2A1.47,1.47,0,0,1,969.34,268.79Z" transform="translate(-28.11 -6.55)" style="fill:none;stroke:#000;stroke-miterlimit:10;stroke-width:2px"/></g><g style="opacity:0.07"><circle cx="545.64" cy="257.33" r="0.27"/><path d="M560.33,280.82h.14a1.91,1.91,0,0,0,1.76-2c-.07-1.7-.14-3.19-.14-4.54a34,34,0,0,1,.95-9.08v36.38a2.92,2.92,0,0,0,5.83,0V281H570v20.73a2.92,2.92,0,1,0,5.83,0V265.24a34,34,0,0,1,.94,9.08c0,1.35-.06,2.91-.13,4.53a2,2,0,0,0,1.83,2h.13a1.93,1.93,0,0,0,1.9-1.83c.07-1.76.14-3.32.14-4.74,0-7.05-1-10.91-2.38-13.28a6.27,6.27,0,0,0-2.23-2.37,4.81,4.81,0,0,0-1.56-.55c-.13,0-.27-.06-.41-.06h-1.55a8.35,8.35,0,0,1-.21,1l-.2,1.15c-.54,2.71-1.42,6.58-2.64,7.8-1.22-1.22-2.1-5.15-2.64-7.8-.07-.4-.14-.81-.21-1.08a7.32,7.32,0,0,0-.2-1H564.8a.81.81,0,0,0-.4.07,5,5,0,0,0-1.56.54c-1.22.68-2.37,2-3.19,4.48a35.38,35.38,0,0,0-1.42,11.17c0,1.43.07,3.05.14,4.74A2,2,0,0,0,560.33,280.82Zm13.41-17.48c0-1.08.61-1,1.09-.68a1,1,0,0,1,.34.61c0,.27-.21.55-.88.55,2.3,0-.55,2.84-.55.54,0,2.3-2.84-.54-.54-.54C570.9,263.88,573.74,261,573.74,263.34Z" transform="translate(-28.11 -6.55)"/><circle cx="541.37" cy="244.73" r="5.35"/><polygon points="541.1 252.72 541.1 252.45 539.47 251.5 539.47 251.5 539.47 251.5 539.47 253.67 541.1 252.72"/><polygon points="541.57 252.72 543.27 253.67 543.27 251.5 543.27 251.5 543.2 251.5 541.57 252.45 541.57 252.72"/><circle cx="541.37" cy="254.49" r="0.47"/><circle cx="541.37" cy="256.11" r="0.47"/><circle cx="541.37" cy="258.01" r="0.47"/><path d="M532.69,262.8h.07a.64.64,0,0,0,.61-.54,2.09,2.09,0,0,1,.14-.61,31.88,31.88,0,0,1,2.57-7.93,12.84,12.84,0,0,1,3-4,6.86,6.86,0,0,1,4.2-1.69,6.55,6.55,0,0,1,4.74,2.1c2,2,3.25,5,4.07,7.52.4,1.29.67,2.44.88,3.25a5.79,5.79,0,0,0,.2,1,1.14,1.14,0,0,1,.07.34.58.58,0,0,0,1.15-.2h0a33.66,33.66,0,0,0-2.17-7.52,16.48,16.48,0,0,0-3.32-5.22,7.4,7.4,0,0,0-11.11,0c-4.33,4.4-5.42,12.74-5.48,12.74C532.15,262.46,532.35,262.73,532.69,262.8Z" transform="translate(-28.11 -6.55)"/><circle cx="515.09" cy="248.19" r="5.35"/><path d="M532.56,302.56a2,2,0,0,1,2.71,0,1.88,1.88,0,0,0,1.35-.54,1.84,1.84,0,0,0,1.29.54,2.36,2.36,0,0,0,2.37,2,2.42,2.42,0,0,0,2.37-2.17,2,2,0,0,0,.68.13h.2a2.39,2.39,0,0,0,4.74-.06c.14,0,.27.06.48.06a2,2,0,0,1,2.71,0,2,2,0,0,1,2.71,0,1.74,1.74,0,0,0,1.83-1.62v-.14l-8.4-27.5,2-7.59a1.61,1.61,0,0,1,.27.41,15.31,15.31,0,0,1,1.29,5.15,78.94,78.94,0,0,1,.33,8.46,1.29,1.29,0,1,0,2.58,0,67.73,67.73,0,0,0-.41-8.73,17.21,17.21,0,0,0-1.56-6.17,6.06,6.06,0,0,0-2.3-2.23,13.56,13.56,0,0,0-6.3-1.49h-.13a14.14,14.14,0,0,0-3.59.47,8.93,8.93,0,0,0-2.71,1.08,6.66,6.66,0,0,0-2.31,2.24,16.23,16.23,0,0,0-1.56,6.16,84.74,84.74,0,0,0-.4,8.74,1.29,1.29,0,1,0,2.57,0,79,79,0,0,1,.34-8.47,14.93,14.93,0,0,1,1.29-5.14c.07-.14.2-.27.27-.41l2,7.59-8.4,27.5V301C530.73,301.82,531.54,302.56,532.56,302.56Zm-1.36-1.62,8.4-27.51.07-.13-.07-.14-1.83-6.91a12,12,0,0,1,5.42-1,11.77,11.77,0,0,1,5.42,1l-1.83,6.91-.07.14.07.13,8.4,27.51h0a1.28,1.28,0,0,1-1.35,1.15,1.39,1.39,0,0,1-1-.41l-.34-.34-.34.34a1.46,1.46,0,0,1-2,0l-.34-.34-.34.34a1.38,1.38,0,0,1-1,.41A.85.85,0,0,1,548,302a2.89,2.89,0,0,1-.61-.34l-.34-.34-.34.34a1.36,1.36,0,0,1-1,.41,1.39,1.39,0,0,1-1-.41l-.34-.34-.33.34a1.87,1.87,0,0,1-.82.41h-.13a1.87,1.87,0,0,1-.61-.14.61.61,0,0,1-.34-.27l-.34-.34-.34.34a1.46,1.46,0,0,1-2,0l-.34-.34-.34.34a1.38,1.38,0,0,1-1,.41h-.07a1.35,1.35,0,0,1-.95-.41l-.34-.34-.34.34a1.46,1.46,0,0,1-2,0l-.34-.34-.34.34a1.38,1.38,0,0,1-1,.41,1.18,1.18,0,0,1-1.09-1.15Z" transform="translate(-28.11 -6.55)"/></g><g style="opacity:0.07"><circle cx="47.01" cy="243.83" r="4.34"/><circle cx="105.73" cy="252.2" r="4.34" transform="translate(-193.78 279.21) rotate(-74.31)"/><path d="M122.13,247.47a1.31,1.31,0,0,0-1.76.34,26.48,26.48,0,0,1-7.12,6.71c-1.21.81-2.3,1.42-3,1.9a6.77,6.77,0,0,1-.95.47c-.14.07-.21.07-.27.14a.06.06,0,0,0-.07.06h0a9.58,9.58,0,0,0-1.56.41,9.87,9.87,0,0,0-2.23.95c-.07,0-.14.07-.21.07h0a10.42,10.42,0,0,1-3.79.61,23.1,23.1,0,0,1-8.27-1.77c0-.06-.06-.13-.06-.2a1.5,1.5,0,0,0-2-.68,15.58,15.58,0,0,1-6.84,1.63,15.12,15.12,0,0,1-4.47-.68c-.54-.2-1-.34-1.22-.47l-.27-.14h-.07a2.3,2.3,0,0,0-.61-.2h-.06c-2.37-.2-4.81-.41-7.18-.68H70a30.18,30.18,0,0,1-5-1.15,21.09,21.09,0,0,1-7.92-4.4,1.53,1.53,0,1,0-2.1,2.23,24.53,24.53,0,0,0,9.62,5.22c1.08.34,2,.54,2.77.74-.2,4.61.82,7.46,2.44,11.66,0,.06,0,.06.07.13h0a27.57,27.57,0,0,1,1.42,8.94,28.6,28.6,0,0,1-1.42,9,2.4,2.4,0,0,0,1.56,3.05,2.76,2.76,0,0,0,.74.14,2.47,2.47,0,0,0,2.31-1.7,34.8,34.8,0,0,0,1.62-10.5,33.32,33.32,0,0,0-.61-6.43,14.36,14.36,0,0,1,2.71,3.45c1.56,2.58,3.19,6.71,3.93,12.94a2.42,2.42,0,0,0,2.37,2.17h.27a2.42,2.42,0,0,0,2.1-2.64c-.81-7.59-3-12.6-5.14-15.79a18.16,18.16,0,0,0-3-3.59c-2-4-1.62-6.3-.47-9.08a17.22,17.22,0,0,0,5.69,1h0a18.68,18.68,0,0,0,7.59-1.62,24.79,24.79,0,0,0,9.62,2.17,13.52,13.52,0,0,0,2.64-.21,43.51,43.51,0,0,1-2,14.3l3.32.2L100.93,289a1.92,1.92,0,1,0,3.65,1.22l4.47-13.82c.34,0,.75.07,1.09.07v13.14a1.9,1.9,0,1,0,3.79,0V276.74l3.39.2A54.83,54.83,0,0,0,112,258.52a26.58,26.58,0,0,0,2.57-1.63,27.39,27.39,0,0,0,7.79-7.38A1.5,1.5,0,0,0,122.13,247.47Z" transform="translate(-28.11 -6.55)"/></g><g style="opacity:0.07"><circle cx="1188.39" cy="40.63" r="5.09"/><circle cx="1252.49" cy="49.3" r="5.09" transform="translate(838.12 1235.21) rotate(-74.31)"/><path d="M1271.67,43.76a1.54,1.54,0,0,0-2.07.4,31.26,31.26,0,0,1-8.35,7.87c-1.43,1-2.7,1.67-3.58,2.23a5.89,5.89,0,0,1-1.11.55c-.16.08-.24.08-.32.16a.08.08,0,0,0-.08.08h0a10.33,10.33,0,0,0-1.82.48,12.29,12.29,0,0,0-2.63,1.11c-.08,0-.16.08-.24.08h0a12.2,12.2,0,0,1-4.45.72,27.18,27.18,0,0,1-9.7-2.07c0-.08-.08-.16-.08-.24a1.73,1.73,0,0,0-2.38-.79,18.37,18.37,0,0,1-8,1.91,17.67,17.67,0,0,1-5.25-.8c-.63-.24-1.11-.4-1.43-.56l-.32-.15h-.08a2.48,2.48,0,0,0-.71-.24H1219c-2.79-.24-5.65-.48-8.43-.8h-.08a36.44,36.44,0,0,1-5.8-1.35,24.55,24.55,0,0,1-9.3-5.17,1.8,1.8,0,0,0-2.47,2.63,29,29,0,0,0,11.29,6.12c1.27.4,2.39.63,3.26.87-.24,5.41,1,8.75,2.86,13.68,0,.08,0,.08.08.16h0A32.16,32.16,0,0,1,1212,81.13a33.46,33.46,0,0,1-1.67,10.57,2.82,2.82,0,0,0,1.83,3.58,3.41,3.41,0,0,0,.87.16,2.9,2.9,0,0,0,2.71-2,40.92,40.92,0,0,0,1.91-12.32,39,39,0,0,0-.72-7.55,16.69,16.69,0,0,1,3.18,4c1.83,3,3.74,7.87,4.61,15.19a2.83,2.83,0,0,0,2.78,2.54h.32a2.84,2.84,0,0,0,2.47-3.1c-1-8.9-3.58-14.79-6-18.52a21.33,21.33,0,0,0-3.49-4.22c-2.31-4.69-1.91-7.39-.56-10.65a20.3,20.3,0,0,0,6.68,1.11h0a21.8,21.8,0,0,0,8.9-1.91,29,29,0,0,0,11.29,2.55,16.22,16.22,0,0,0,3.1-.24,50.63,50.63,0,0,1-2.38,16.77l3.89.24-4.93,15.11a2.27,2.27,0,0,0,4.3,1.43l5.24-16.22c.4,0,.88.08,1.27.08V93.21a2.23,2.23,0,1,0,4.46,0V78.11l4,.24a64.3,64.3,0,0,0-6.28-21.63,27.15,27.15,0,0,0,3-1.91,32.18,32.18,0,0,0,9.15-8.66A1.77,1.77,0,0,0,1271.67,43.76Z" transform="translate(-28.11 -6.55)"/></g></g></svg>